<svg width="210" height="111" viewBox="0 0 210 111" fill="none" xmlns="http://www.w3.org/2000/svg">
<path d="M59.9753 20.2279C59.9156 19.784 59.7522 19.3603 59.4985 18.9914C59.2447 18.6224 58.9077 18.3185 58.5148 18.1043C57.2459 17.3898 57.5367 16.4836 60.8542 10.8935L64.6543 4.48963H85.9476V21.5245H72.9615C62.2024 21.5245 59.9753 21.2864 59.9753 20.2279ZM105.655 56.0772C105.655 55.8523 103.19 52.7298 100.183 49.131C91.1289 38.3146 90.9901 37.8846 90.4482 19.4274C89.8534 -0.796177 90.4812 0.00430753 75.2481 0.00430753C66.1544 0.00430753 64.4164 0.242481 62.4932 1.75743C61.264 2.72329 57.2855 8.67724 53.6375 14.9884L47.0288 26.4597L46.7248 38.0302C46.5067 46.7098 46.0969 49.9381 45.1122 50.9238C44.7267 51.3604 44.4351 51.8717 44.2554 52.426C44.0758 52.9802 44.012 53.5656 44.068 54.1456C44.3192 55.9053 44.9536 56.0706 52.6594 56.3088C59.9885 56.5337 61.0129 56.3815 61.4358 54.9857C64.4626 44.7912 73.0342 40.3787 81.5132 44.6391C85.0422 46.4253 88.6374 51.3075 88.6374 54.3639C88.6374 56.4279 88.8092 56.4676 97.1494 56.4676C101.855 56.4875 105.655 56.3022 105.655 56.0772Z" fill="#564079"/>
<path d="M74.759 50.7717C73.4446 50.7744 72.1718 51.2331 71.1573 52.0696C70.1427 52.9061 69.4492 54.0687 69.1947 55.3595C68.9402 56.6503 69.1405 57.9895 69.7615 59.1491C70.3825 60.3087 71.3859 61.2169 72.6006 61.7193C73.8154 62.2217 75.1666 62.2871 76.4241 61.9043C77.6816 61.5216 78.7677 60.7143 79.4975 59.6201C80.2274 58.5258 80.5557 57.2122 80.4268 55.9028C80.2978 54.5934 79.7195 53.3693 78.7903 52.4388C78.2607 51.9095 77.632 51.4898 76.9403 51.2037C76.2486 50.9177 75.5074 50.7709 74.759 50.7717ZM74.759 45.0625C77.0137 45.0625 79.2178 45.7318 81.0925 46.9858C82.9672 48.2397 84.4284 50.022 85.2913 52.1072C86.1541 54.1924 86.3799 56.4869 85.94 58.7006C85.5001 60.9142 84.4144 62.9476 82.82 64.5436C81.2257 66.1395 79.1944 67.2264 76.983 67.6667C74.7716 68.107 72.4794 67.8811 70.3963 67.0174C68.3133 66.1536 66.5328 64.6909 65.2801 62.8143C64.0275 60.9376 63.3589 58.7313 63.3589 56.4742C63.3606 53.4482 64.5623 50.5466 66.6998 48.4069C68.8374 46.2672 71.736 45.0643 74.759 45.0625Z" fill="#564079"/>
<path d="M95.9069 19.793H163.316C163.684 19.7921 164.049 19.8641 164.389 20.0047C164.73 20.1454 165.039 20.3519 165.299 20.6126C165.56 20.8732 165.766 21.1828 165.907 21.5235C166.047 21.8642 166.119 22.2293 166.118 22.5979V27.9631C166.119 28.3317 166.047 28.6968 165.907 29.0375C165.766 29.3783 165.56 29.6878 165.299 29.9485C165.039 30.2091 164.73 30.4157 164.389 30.5563C164.049 30.697 163.684 30.7689 163.316 30.7681H95.9069C95.5384 30.7689 95.1733 30.6971 94.8325 30.5565C94.4918 30.4159 94.1821 30.2094 93.9212 29.9489C93.6603 29.6883 93.4533 29.3788 93.3121 29.038C93.1709 28.6973 93.0982 28.332 93.0982 27.9631V22.6112C93.0964 22.2412 93.1678 21.8745 93.3083 21.5322C93.4487 21.1899 93.6555 20.8788 93.9165 20.6168C94.1776 20.3549 94.4879 20.1472 94.8295 20.0058C95.1711 19.8644 95.5372 19.7921 95.9069 19.793Z" fill="#564079"/>
<path d="M100.982 32.4453H163.316C163.684 32.4444 164.049 32.5164 164.389 32.6571C164.73 32.7977 165.039 33.0043 165.299 33.2649C165.56 33.5255 165.766 33.8351 165.906 34.1758C166.047 34.5165 166.119 34.8817 166.118 35.2503V40.6154C166.119 40.984 166.047 41.3492 165.906 41.6899C165.766 42.0306 165.56 42.3402 165.299 42.6008C165.039 42.8615 164.73 43.068 164.389 43.2087C164.049 43.3493 163.684 43.4213 163.316 43.4204H100.982C100.614 43.4213 100.249 43.3493 99.9089 43.2087C99.5686 43.068 99.2593 42.8615 98.999 42.6008C98.7386 42.3402 98.5322 42.0306 98.3917 41.6899C98.2512 41.3492 98.1793 40.984 98.1802 40.6154V35.2503C98.1793 34.8817 98.2512 34.5165 98.3917 34.1758C98.5322 33.8351 98.7386 33.5255 98.999 33.2649C99.2593 33.0043 99.5686 32.7977 99.9089 32.6571C100.249 32.5164 100.614 32.4444 100.982 32.4453Z" fill="#42D3AD"/>
<path d="M163.343 45.1094H109.68C108.132 45.1094 106.877 46.3652 106.877 47.9143V53.2795C106.877 54.8287 108.132 56.0845 109.68 56.0845H163.343C164.89 56.0845 166.145 54.8287 166.145 53.2795V47.9143C166.145 46.3652 164.89 45.1094 163.343 45.1094Z" fill="#564079"/>
<path d="M95.907 7.12891H137.43C138.173 7.12891 138.886 7.42449 139.411 7.95052C139.937 8.47656 140.232 9.18995 140.232 9.93388V15.3321C140.233 15.7004 140.161 16.0653 140.02 16.4056C139.88 16.746 139.673 17.0551 139.413 17.3152C139.152 17.5753 138.843 17.7812 138.503 17.9212C138.162 18.0611 137.798 18.1322 137.43 18.1305H95.907C95.5388 18.1322 95.1738 18.0612 94.8331 17.9213C94.4924 17.7815 94.1827 17.5756 93.9217 17.3156C93.6607 17.0556 93.4536 16.7465 93.3123 16.4061C93.171 16.0657 93.0983 15.7007 93.0983 15.3321V9.96037C93.0948 9.58923 93.1649 9.22108 93.3046 8.87727C93.4442 8.53346 93.6506 8.22083 93.9119 7.95747C94.1731 7.6941 94.484 7.48522 94.8265 7.343C95.169 7.20077 95.5362 7.12802 95.907 7.12891Z" fill="#42D3AD"/>
<path d="M3.54306 103.578C3.14613 103.599 2.74926 103.537 2.37816 103.394C2.00706 103.252 1.67004 103.032 1.38898 102.751C1.10793 102.47 0.889106 102.132 0.746726 101.761C0.604346 101.389 0.541595 100.992 0.56253 100.595V86.7023C0.55217 86.4377 0.599401 86.1741 0.700965 85.9296C0.802528 85.6851 0.955983 85.4657 1.1507 85.2865C1.35348 85.0976 1.59159 84.9506 1.85132 84.8541C2.11105 84.7576 2.38727 84.7135 2.6641 84.7242C2.93073 84.7157 3.19633 84.761 3.44502 84.8576C3.69371 84.9543 3.92038 85.1002 4.11142 85.2865C4.30286 85.4679 4.45368 85.6879 4.55393 85.9319C4.65418 86.176 4.70158 86.4385 4.69299 86.7023V98.4117C4.66563 98.5984 4.68203 98.789 4.74089 98.9683C4.79975 99.1476 4.89945 99.3108 5.03214 99.4449C5.16483 99.579 5.32685 99.6804 5.50541 99.7411C5.68397 99.8017 5.87417 99.8199 6.06099 99.7944H10.1518C10.4081 99.7791 10.6648 99.8165 10.9061 99.9042C11.1474 99.9919 11.3683 100.128 11.5551 100.304C11.742 100.481 11.8908 100.693 11.9926 100.929C12.0943 101.165 12.1468 101.419 12.1468 101.676C12.1468 101.933 12.0943 102.188 11.9926 102.424C11.8908 102.66 11.742 102.872 11.5551 103.049C11.3683 103.225 11.1474 103.361 10.9061 103.449C10.6648 103.536 10.4081 103.574 10.1518 103.559L3.54306 103.578Z" fill="#564079"/>
<path d="M22.8468 95.1744C22.9301 95.1711 23.0125 95.1555 23.0913 95.1281C23.1971 95.1281 23.2565 94.9892 23.2565 94.7973C23.2309 94.5348 23.1401 94.2829 22.9923 94.0646C22.8446 93.8462 22.6446 93.6682 22.4106 93.547C21.7584 93.139 20.9981 92.9384 20.2297 92.9715C19.4109 92.9337 18.6005 93.151 17.9101 93.5933C17.3153 94.0035 17.0179 94.4268 17.0179 94.8502C17.0179 95.0685 17.1435 95.1744 17.3946 95.1744H22.8468ZM20.461 104.033C18.5297 104.096 16.6441 103.436 15.1741 102.18C14.46 101.538 13.8983 100.745 13.5301 99.858C13.1619 98.9709 12.9965 98.0126 13.046 97.0532C12.996 96.0729 13.1566 95.0932 13.5168 94.1803C13.8771 93.2673 14.4287 92.4423 15.1344 91.7608C16.365 90.7358 17.8641 90.0867 19.453 89.8908C21.0419 89.6949 22.6536 89.9605 24.0958 90.656C25.0146 91.1469 25.7806 91.8816 26.3098 92.7796C26.7872 93.6014 27.0402 94.5347 27.0433 95.4854C27.0433 97.0797 26.3362 97.8736 24.9352 97.8736H17.3417C17.0972 97.8736 16.9782 98.0257 16.9782 98.33C16.9904 98.6924 17.1073 99.0435 17.315 99.3406C17.5226 99.6378 17.812 99.8681 18.148 100.004C18.9639 100.427 19.8724 100.641 20.7915 100.626C21.4123 100.623 22.0301 100.539 22.6287 100.374C23.2079 100.218 23.7542 99.9576 24.2412 99.6068C24.5195 99.4031 24.8547 99.292 25.1995 99.2893C25.4186 99.2877 25.6356 99.3315 25.837 99.418C26.0383 99.5045 26.2195 99.6319 26.3693 99.7921C26.5251 99.951 26.6479 100.139 26.7307 100.346C26.8135 100.552 26.8546 100.773 26.8517 100.996C26.8323 101.306 26.7432 101.607 26.5909 101.877C26.4387 102.148 26.2274 102.38 25.9727 102.557C25.2579 103.089 24.4377 103.461 23.5672 103.649C22.5528 103.911 21.5087 104.04 20.461 104.033Z" fill="#564079"/>
<path d="M36.686 100.32C37.1261 100.339 37.565 100.26 37.9708 100.088C38.3766 99.9166 38.7391 99.6566 39.0321 99.3273C39.6163 98.6433 39.925 97.7659 39.8978 96.8663C39.9381 95.9748 39.6272 95.103 39.0321 94.4384C38.4003 93.8468 37.5676 93.5177 36.7025 93.5177C35.8374 93.5177 35.0047 93.8468 34.3729 94.4384C34.0677 94.7618 33.8308 95.1435 33.6763 95.5607C33.5219 95.9778 33.4531 96.4219 33.4741 96.8663C33.4461 97.7719 33.7681 98.6533 34.3729 99.3273C34.6629 99.6515 35.0201 99.9084 35.4197 100.08C35.8193 100.251 36.2515 100.333 36.686 100.32ZM36.3688 104.031C35.4501 104.068 34.5335 103.915 33.677 103.58C32.8205 103.245 32.0426 102.737 31.3924 102.086C30.7436 101.387 30.241 100.565 29.9141 99.6686C29.5873 98.7722 29.4427 97.8194 29.4891 96.8663C29.4401 95.9258 29.5792 94.985 29.898 94.0989C30.2169 93.2129 30.7092 92.3994 31.3461 91.7062C31.984 91.0669 32.7473 90.567 33.5879 90.2379C34.4285 89.9088 35.3281 89.7579 36.23 89.7944C36.926 89.7878 37.6164 89.9187 38.2617 90.1799C38.907 90.441 39.4945 90.827 39.9904 91.3159C40.1181 90.9433 40.3612 90.6212 40.6843 90.3964C41.0269 90.1456 41.4429 90.0154 41.8672 90.0259C42.4141 90.0012 42.9486 90.1938 43.3542 90.5617C43.5372 90.7158 43.6841 90.9083 43.7846 91.1255C43.8851 91.3427 43.9367 91.5793 43.9358 91.8187V102.245C43.9421 102.49 43.8931 102.733 43.7924 102.956C43.6917 103.18 43.5419 103.377 43.3542 103.535C42.9374 103.879 42.4073 104.056 41.8672 104.031C41.4472 104.076 41.025 103.967 40.6796 103.724C40.3341 103.48 40.0891 103.119 39.9904 102.708C38.9957 103.595 37.7003 104.068 36.3688 104.031Z" fill="#564079"/>
<path d="M59.0235 104.031C58.4942 104.051 57.9762 103.874 57.5695 103.535C57.3846 103.376 57.2376 103.177 57.1392 102.954C57.0409 102.731 56.9937 102.489 57.0012 102.245V96.6413C57.0427 96.2058 56.9974 95.7664 56.8681 95.3485C56.7388 94.9306 56.5279 94.5426 56.2478 94.2068C56.0022 93.9675 55.7115 93.7794 55.3928 93.6534C55.074 93.5273 54.7334 93.4658 54.3907 93.4725C54.0396 93.4617 53.6899 93.5211 53.3619 93.6472C53.034 93.7733 52.7345 93.9635 52.4808 94.2068C51.9952 94.6581 51.6683 95.2546 51.549 95.907V102.053C51.556 102.303 51.5075 102.551 51.4069 102.78C51.3063 103.009 51.1562 103.212 50.9674 103.376C50.5891 103.727 50.0889 103.917 49.573 103.905C49.0362 103.92 48.5122 103.739 48.0992 103.396C47.9112 103.24 47.7607 103.043 47.6588 102.821C47.557 102.599 47.5065 102.357 47.511 102.112V91.8252C47.5093 91.5871 47.5593 91.3513 47.6574 91.1343C47.7555 90.9173 47.8995 90.7242 48.0794 90.5683C48.4882 90.2012 49.0243 90.0089 49.573 90.0325C50.0156 90.0154 50.4503 90.1534 50.8022 90.4228C51.1311 90.6731 51.3737 91.02 51.4961 91.4151C51.9494 90.8643 52.5281 90.4303 53.1835 90.1494C53.8389 89.8686 54.552 89.749 55.2631 89.8009C56.7973 89.7373 58.2942 90.2844 59.4266 91.3225C60.5016 92.328 61.0391 93.9334 61.0391 96.1386V102.344C61.0427 102.578 60.9921 102.81 60.8912 103.021C60.7903 103.232 60.6418 103.417 60.4575 103.561C60.052 103.886 59.5425 104.053 59.0235 104.031Z" fill="#564079"/>
<path d="M69.4328 100.675H71.2171C71.9456 100.721 72.6756 100.613 73.359 100.356C74.0425 100.1 74.6639 99.7011 75.1824 99.1867C76.1493 98.0259 76.6238 96.5322 76.5041 95.0255C76.4645 93.1864 75.9886 91.7928 75.0766 90.8446C74.5499 90.3458 73.9256 89.9619 73.243 89.7171C72.5605 89.4722 71.8347 89.3718 71.1114 89.4222H69.3667C69.2114 89.4001 69.0531 89.4145 68.9043 89.4642C68.7556 89.5139 68.6204 89.5976 68.5095 89.7087C68.3986 89.8197 68.315 89.955 68.2653 90.1039C68.2157 90.2528 68.2013 90.4113 68.2234 90.5667V99.5175C68.1976 99.6801 68.2116 99.8466 68.2641 100.003C68.3167 100.159 68.4062 100.3 68.5251 100.413C68.644 100.527 68.7887 100.611 68.9468 100.656C69.1048 100.702 69.2716 100.708 69.4328 100.675ZM67.2783 104.347C66.4438 104.389 65.6266 104.098 65.0049 103.54C64.7206 103.265 64.4981 102.933 64.3523 102.566C64.2064 102.199 64.1405 101.804 64.159 101.41V88.5953C64.1367 88.2123 64.1939 87.8288 64.327 87.469C64.4601 87.1092 64.6661 86.7809 64.9322 86.5048C65.209 86.2488 65.5338 86.0504 65.8877 85.9209C66.2416 85.7915 66.6177 85.7335 66.9941 85.7506H71.1775C72.9663 85.6974 74.7375 86.1173 76.3125 86.9679C77.6826 87.7396 78.8039 88.8873 79.5441 90.2757C80.3089 91.7426 80.6952 93.3777 80.6676 95.0322C80.7011 96.7255 80.3079 98.4 79.5243 99.9011C78.8034 101.266 77.7192 102.404 76.3918 103.19C75.0644 103.976 73.5455 104.379 72.0036 104.353L67.2783 104.347Z" fill="#42D3AD"/>
<path d="M85.8878 88.4798C85.2786 88.4876 84.6888 88.2657 84.2357 87.858C84.0188 87.6573 83.8475 87.4122 83.7335 87.1394C83.6195 86.8666 83.5654 86.5725 83.5748 86.2769C83.5722 85.9911 83.6296 85.7079 83.7435 85.4458C83.8574 85.1836 84.025 84.9483 84.2357 84.7553C84.6802 84.3292 85.2724 84.0921 85.8878 84.0938C86.182 84.0924 86.4734 84.1504 86.7447 84.264C87.016 84.3777 87.2618 84.5447 87.4673 84.7553C87.6783 84.9481 87.8462 85.1833 87.9601 85.4455C88.074 85.7077 88.1312 85.991 88.1282 86.2769C88.1381 86.5725 88.0841 86.8668 87.9701 87.1396C87.856 87.4125 87.6846 87.6575 87.4673 87.858C87.0431 88.2653 86.4756 88.4887 85.8878 88.4798ZM85.8878 104.78C85.3554 104.795 84.8353 104.619 84.4207 104.284C84.2257 104.125 84.0704 103.923 83.9672 103.693C83.8639 103.463 83.8155 103.213 83.8259 102.961V92.5418C83.8242 92.3036 83.8742 92.0679 83.9723 91.8509C84.0704 91.6339 84.2144 91.4408 84.3943 91.2849C84.803 90.9178 85.3392 90.7254 85.8878 90.749C86.1529 90.7342 86.4181 90.7742 86.6671 90.8663C86.9161 90.9585 87.1435 91.101 87.3352 91.2849C87.5099 91.4568 87.6471 91.6631 87.7381 91.8909C87.8291 92.1186 87.8719 92.3628 87.8638 92.608V102.941C87.8714 103.191 87.8231 103.44 87.7225 103.669C87.6219 103.898 87.4715 104.101 87.2823 104.264C86.9019 104.611 86.4019 104.796 85.8878 104.78Z" fill="#42D3AD"/>
<path d="M96.4815 104.78C94.6804 104.852 92.8963 104.407 91.3399 103.496C91.0834 103.334 90.8756 103.106 90.7385 102.835C90.6239 102.595 90.563 102.333 90.5601 102.067C90.5629 101.548 90.7503 101.046 91.0887 100.652C91.2412 100.445 91.4405 100.277 91.6702 100.162C91.8999 100.047 92.1536 99.988 92.4105 99.9901C92.6664 99.9917 92.9181 100.055 93.1441 100.175C93.7475 100.454 94.3759 100.676 95.021 100.837C95.6526 100.994 96.3 101.078 96.9507 101.088C98.0874 101.088 98.6558 100.824 98.6558 100.301C98.6527 100.146 98.6142 99.994 98.5431 99.8564C98.4721 99.7188 98.3705 99.5993 98.246 99.5072C97.6557 99.1802 96.9909 99.0116 96.3163 99.0177C95.9131 99.0177 95.3977 98.925 94.7764 98.8324C94.137 98.7416 93.5125 98.5659 92.9194 98.3099C92.3162 98.0549 91.7867 97.6522 91.3795 97.1389C90.9365 96.5252 90.7172 95.7779 90.7583 95.0219C90.7328 94.3922 90.8616 93.7658 91.1335 93.1973C91.4053 92.6288 91.812 92.1355 92.318 91.7605C93.5421 90.9099 95.013 90.4888 96.5013 90.5631C97.4646 90.5574 98.4252 90.6662 99.3629 90.8872C100.118 91.0248 100.822 91.3605 101.405 91.8597C101.594 92.017 101.748 92.2118 101.858 92.4317C101.967 92.6515 102.031 92.8918 102.043 93.1373C102.055 93.3828 102.017 93.6282 101.93 93.858C101.843 94.0879 101.709 94.2973 101.537 94.4728C101.376 94.652 101.178 94.794 100.957 94.8888C100.735 94.9836 100.496 95.029 100.255 95.0219C99.9865 95.0203 99.722 94.957 99.4819 94.8367C99.0531 94.5679 98.5779 94.3816 98.0808 94.2876C97.5143 94.1632 96.9359 94.1011 96.3559 94.1023C95.1994 94.1023 94.6178 94.3472 94.6178 94.8367C94.6253 94.9531 94.6604 95.066 94.7202 95.166C94.7799 95.2661 94.8627 95.3505 94.9615 95.4123C95.4547 95.659 95.9912 95.8072 96.541 95.8488C97.0653 95.9062 97.66 95.9922 98.3253 96.1068C99.0069 96.2042 99.6733 96.3888 100.308 96.656C100.939 96.9231 101.485 97.3577 101.887 97.9129C102.357 98.6179 102.588 99.4548 102.548 100.301C102.569 100.946 102.429 101.587 102.141 102.164C101.852 102.742 101.425 103.238 100.896 103.609C99.59 104.467 98.0409 104.878 96.4815 104.78Z" fill="#42D3AD"/>
<path d="M112.244 101.066C112.673 101.084 113.101 101.003 113.494 100.832C113.888 100.66 114.238 100.401 114.517 100.074C115.097 99.3878 115.403 98.5114 115.376 97.6131C115.416 96.7229 115.108 95.8522 114.517 95.1852C114.227 94.8772 113.873 94.6356 113.481 94.477C113.088 94.3183 112.667 94.2461 112.244 94.2656C111.829 94.2495 111.416 94.3233 111.033 94.482C110.65 94.6408 110.305 94.8806 110.023 95.1852C109.44 95.8556 109.137 96.7251 109.177 97.6131C109.15 98.5093 109.451 99.3846 110.023 100.074C110.294 100.397 110.635 100.654 111.02 100.826C111.404 100.998 111.823 101.08 112.244 101.066ZM112.568 104.778C111.32 104.813 110.107 104.367 109.177 103.534V109.15C109.184 109.4 109.136 109.647 109.036 109.876C108.937 110.104 108.789 110.308 108.602 110.474C108.223 110.823 107.723 111.01 107.208 110.996C106.67 111.012 106.145 110.834 105.728 110.493C105.54 110.337 105.389 110.141 105.287 109.919C105.185 109.697 105.135 109.454 105.139 109.21V92.5853C105.139 92.3474 105.19 92.112 105.288 91.8952C105.386 91.6784 105.529 91.4851 105.708 91.3284C106.119 90.9609 106.657 90.7686 107.208 90.7925C107.632 90.7809 108.049 90.9113 108.391 91.163C108.715 91.3865 108.959 91.7091 109.085 92.0825C109.557 91.5985 110.121 91.2144 110.745 90.953C111.368 90.6916 112.037 90.5583 112.713 90.561C113.607 90.5212 114.5 90.671 115.333 91.0004C116.165 91.3299 116.919 91.8317 117.544 92.4728C118.807 93.8848 119.461 95.7401 119.361 97.633C119.455 99.5465 118.796 101.421 117.524 102.853C116.881 103.506 116.106 104.015 115.252 104.346C114.398 104.678 113.483 104.825 112.568 104.778Z" fill="#42D3AD"/>
<path d="M128.983 101.07C129.423 101.09 129.861 101.012 130.266 100.84C130.671 100.668 131.032 100.408 131.323 100.078C131.912 99.396 132.223 98.5176 132.195 97.6168C132.236 96.7239 131.922 95.8512 131.323 95.1888C130.694 94.6053 129.868 94.2811 129.01 94.2811C128.152 94.2811 127.326 94.6053 126.697 95.1888C126.392 95.5122 126.155 95.8939 126 96.3111C125.846 96.7283 125.777 97.1724 125.798 97.6168C125.77 98.5223 126.092 99.4038 126.697 100.078C126.984 100.399 127.336 100.654 127.731 100.825C128.126 100.997 128.553 101.08 128.983 101.07ZM128.66 104.781C127.741 104.818 126.825 104.664 125.969 104.329C125.112 103.994 124.334 103.486 123.683 102.836C123.035 102.137 122.534 101.315 122.208 100.418C121.882 99.522 121.739 98.5694 121.786 97.6168C121.736 96.6761 121.874 95.7349 122.193 94.8486C122.512 93.9624 123.005 93.149 123.644 92.4566C124.281 91.8164 125.044 91.3158 125.885 90.9866C126.725 90.6575 127.625 90.507 128.527 90.5447C129.223 90.5381 129.914 90.6692 130.559 90.9303C131.204 91.1914 131.792 91.5774 132.288 92.0663C132.402 91.696 132.634 91.3731 132.949 91.1468C133.293 90.895 133.712 90.7648 134.138 90.7764C134.685 90.7517 135.22 90.9442 135.625 91.3122C135.807 91.4674 135.953 91.6601 136.053 91.8771C136.154 92.094 136.206 92.3301 136.207 92.5691V102.989C136.216 103.239 136.169 103.488 136.068 103.717C135.967 103.946 135.816 104.15 135.625 104.312C135.208 104.656 134.678 104.833 134.138 104.808C133.718 104.855 133.295 104.746 132.949 104.502C132.604 104.259 132.359 103.897 132.261 103.485C131.267 104.357 129.981 104.82 128.66 104.781Z" fill="#42D3AD"/>
<path d="M145.532 104.781C144.339 104.825 143.175 104.413 142.274 103.63C141.415 102.869 140.992 101.692 140.992 100.097V95.1358C141.001 95.0737 140.995 95.0106 140.975 94.9511C140.955 94.8917 140.922 94.8377 140.878 94.7934C140.834 94.7491 140.78 94.7158 140.72 94.696C140.661 94.6761 140.598 94.6704 140.536 94.6792H139.875C139.644 94.697 139.412 94.661 139.198 94.5737C138.983 94.4864 138.792 94.3505 138.639 94.1765C138.355 93.8105 138.208 93.3564 138.223 92.8931C138.21 92.4178 138.356 91.9519 138.639 91.57C138.789 91.3908 138.979 91.2499 139.194 91.159C139.409 91.0681 139.642 91.0298 139.875 91.0473H140.536C140.599 91.0553 140.663 91.0485 140.723 91.0275C140.782 91.0065 140.837 90.9718 140.881 90.9263C140.925 90.8808 140.958 90.8255 140.977 90.765C140.997 90.7045 141.002 90.6404 140.992 90.5777V87.1773C140.987 86.9308 141.033 86.686 141.128 86.4583C141.222 86.2306 141.363 86.0249 141.54 85.8542C141.727 85.6698 141.949 85.5254 142.194 85.4298C142.438 85.3343 142.699 85.2896 142.961 85.2985C143.493 85.2772 144.013 85.4647 144.409 85.8212C144.593 85.9884 144.74 86.1927 144.84 86.4207C144.94 86.6487 144.991 86.8952 144.99 87.1443V90.5446C144.99 90.8555 145.136 91.0143 145.44 91.0143H147.145C147.391 91.0058 147.636 91.0498 147.864 91.1434C148.092 91.2369 148.297 91.3778 148.466 91.5567C148.81 91.9108 149 92.3863 148.995 92.8798C149.001 93.1189 148.957 93.3565 148.866 93.5776C148.775 93.7986 148.639 93.9981 148.466 94.1633C148.285 94.3328 148.072 94.4646 147.839 94.5509C147.607 94.6372 147.359 94.6764 147.112 94.6661H145.473C145.411 94.6569 145.348 94.6625 145.289 94.6823C145.23 94.7021 145.176 94.7356 145.132 94.7801C145.088 94.8246 145.056 94.8787 145.037 94.9382C145.018 94.9977 145.013 95.0609 145.023 95.1225V99.4424C144.978 99.8496 145.084 100.259 145.321 100.594C145.416 100.697 145.533 100.779 145.663 100.834C145.793 100.888 145.933 100.915 146.074 100.911C146.321 100.892 146.566 100.854 146.807 100.799C147.024 100.743 147.245 100.706 147.468 100.686C147.702 100.684 147.934 100.732 148.147 100.828C148.361 100.924 148.551 101.065 148.704 101.242C149.004 101.568 149.182 101.987 149.21 102.429C149.238 102.871 149.113 103.309 148.856 103.67C148.596 104.032 148.217 104.292 147.786 104.404C147.407 104.522 147.021 104.613 146.629 104.675C146.267 104.74 145.9 104.775 145.532 104.781Z" fill="#42D3AD"/>
<path d="M158.029 104.779C156.774 104.784 155.536 104.487 154.421 103.912C153.311 103.333 152.382 102.459 151.737 101.385C151.041 100.181 150.696 98.806 150.74 97.4157C150.706 96.4786 150.872 95.5453 151.226 94.6773C151.581 93.8094 152.115 93.0267 152.795 92.3813C154.233 91.1069 156.11 90.4406 158.029 90.5224C158.845 90.5214 159.659 90.6146 160.454 90.8002C161.218 90.9677 161.93 91.3172 162.53 91.819C162.744 91.986 162.915 92.2013 163.03 92.4473C163.145 92.6934 163.2 92.9632 163.19 93.2347C163.184 93.726 162.996 94.1975 162.662 94.5578C162.502 94.7527 162.3 94.9082 162.071 95.0126C161.842 95.117 161.592 95.1674 161.34 95.1598C161.015 95.1634 160.696 95.0664 160.428 94.8819C160.042 94.6682 159.631 94.5016 159.205 94.3858C158.826 94.2841 158.435 94.2352 158.042 94.2403C157.133 94.1995 156.244 94.5151 155.564 95.1201C155.242 95.415 154.989 95.7769 154.822 96.1804C154.656 96.5839 154.579 97.0192 154.599 97.4554C154.571 97.947 154.652 98.4388 154.834 98.896C155.017 99.3532 155.298 99.7647 155.656 100.102C156.334 100.717 157.22 101.053 158.135 101.041C159.253 101.02 160.326 100.595 161.155 99.8436C161.452 99.5917 161.824 99.4452 162.212 99.4268C162.453 99.4264 162.691 99.4803 162.909 99.5845C163.126 99.6887 163.317 99.8406 163.468 100.029C163.814 100.403 164.004 100.895 163.997 101.405C163.99 101.646 163.946 101.885 163.865 102.113C163.758 102.402 163.584 102.66 163.356 102.867C162.578 103.519 161.68 104.011 160.712 104.316C159.846 104.604 158.942 104.76 158.029 104.779Z" fill="#42D3AD"/>
<path d="M168.735 104.781C168.198 104.799 167.673 104.623 167.255 104.285C167.062 104.124 166.908 103.922 166.806 103.692C166.704 103.463 166.656 103.213 166.666 102.962V85.8806C166.664 85.6413 166.713 85.4043 166.811 85.1861C166.909 84.9679 167.054 84.7736 167.235 84.617C167.648 84.2543 168.186 84.0649 168.735 84.0878C169.258 84.0706 169.766 84.2608 170.149 84.617C170.331 84.7848 170.475 84.9898 170.571 85.2181C170.666 85.4463 170.712 85.6926 170.704 85.9401V92.0727C171.138 91.5773 171.687 91.1976 172.304 90.9679C172.989 90.6877 173.724 90.546 174.465 90.5511C175.222 90.5185 175.979 90.6362 176.692 90.8973C177.404 91.1584 178.057 91.5578 178.615 92.0727C179.668 93.0782 180.194 94.6836 180.194 96.8888V103.094C180.198 103.328 180.147 103.56 180.047 103.771C179.946 103.982 179.797 104.167 179.613 104.311C179.207 104.636 178.698 104.805 178.179 104.788C177.65 104.808 177.132 104.631 176.725 104.291C176.537 104.128 176.388 103.924 176.29 103.695C176.192 103.466 176.146 103.217 176.157 102.968V97.3651C176.198 96.9296 176.153 96.4901 176.023 96.0723C175.894 95.6544 175.683 95.2663 175.403 94.9305C175.158 94.69 174.868 94.5011 174.549 94.375C174.23 94.2489 173.889 94.1881 173.546 94.1962C173.197 94.1852 172.849 94.2471 172.524 94.3781C172.2 94.5091 171.907 94.7062 171.663 94.957C171.198 95.4178 170.867 95.9963 170.704 96.6308V102.922C170.712 103.172 170.664 103.421 170.563 103.649C170.462 103.878 170.312 104.082 170.123 104.245C169.747 104.597 169.249 104.789 168.735 104.781Z" fill="#42D3AD"/>
<path d="M192.619 95.9223C192.704 95.9191 192.789 95.9036 192.87 95.8761C192.976 95.8761 193.035 95.7371 193.035 95.5453C193.008 95.2825 192.916 95.0306 192.767 94.8124C192.618 94.5941 192.417 94.4163 192.183 94.2949C191.533 93.8871 190.775 93.6864 190.009 93.7194C189.187 93.6803 188.375 93.8977 187.682 94.3413C187.444 94.4633 187.239 94.6414 187.085 94.8604C186.93 95.0794 186.832 95.3325 186.797 95.5982C186.797 95.8165 186.922 95.9223 187.167 95.9223H192.619ZM190.233 104.78C188.301 104.847 186.415 104.187 184.946 102.928C184.232 102.286 183.67 101.493 183.302 100.606C182.934 99.7187 182.769 98.7605 182.818 97.8012C182.763 96.8154 182.922 95.8294 183.282 94.9104C183.642 93.9914 184.196 93.1609 184.907 92.4757C186.137 91.4507 187.636 90.8015 189.225 90.6056C190.814 90.4097 192.426 90.6754 193.868 91.3709C194.786 91.8599 195.551 92.5953 196.075 93.4945C196.556 94.3151 196.809 95.2491 196.809 96.2002C196.809 97.7968 196.106 98.5928 194.701 98.5884H187.107C186.869 98.5884 186.75 98.7406 186.75 99.0449C186.761 99.4068 186.877 99.7576 187.083 100.055C187.29 100.352 187.578 100.583 187.914 100.719C188.73 101.139 189.639 101.35 190.557 101.334C191.178 101.333 191.795 101.251 192.394 101.089C192.971 100.931 193.515 100.671 194 100.322C194.281 100.118 194.618 100.007 194.965 100.004C195.183 100.003 195.399 100.047 195.599 100.134C195.799 100.22 195.98 100.347 196.128 100.507C196.285 100.665 196.409 100.853 196.493 101.06C196.577 101.267 196.619 101.488 196.617 101.711C196.596 102.02 196.507 102.321 196.355 102.591C196.203 102.861 195.992 103.094 195.738 103.272C195.022 103.801 194.202 104.173 193.333 104.364C192.322 104.636 191.28 104.776 190.233 104.78Z" fill="#42D3AD"/>
<path d="M201.792 104.645C201.254 104.663 200.727 104.485 200.312 104.142C200.124 103.986 199.973 103.789 199.871 103.567C199.769 103.345 199.719 103.103 199.723 102.858V92.5713C199.723 92.3333 199.774 92.098 199.872 91.8812C199.97 91.6644 200.113 91.4711 200.292 91.3143C200.703 90.9462 201.241 90.7539 201.792 90.7785C202.278 90.7646 202.751 90.9373 203.114 91.2614C203.452 91.5661 203.672 91.9809 203.735 92.4324C204.089 91.8944 204.559 91.4423 205.11 91.1093C205.653 90.7438 206.292 90.548 206.947 90.5469C207.332 90.5462 207.716 90.5929 208.09 90.6859C208.511 90.7992 208.882 91.0479 209.147 91.3937C209.416 91.7445 209.561 92.1753 209.557 92.6175C209.568 92.9096 209.518 93.2008 209.411 93.4728C209.304 93.7448 209.142 93.9919 208.936 94.1986C208.757 94.3943 208.529 94.5386 208.276 94.6166C208.023 94.6945 207.753 94.7032 207.495 94.6419C207.106 94.5455 206.707 94.4966 206.306 94.4964C205.977 94.4873 205.651 94.548 205.348 94.6745C205.045 94.8011 204.772 94.9907 204.548 95.2307C204.098 95.7202 203.821 96.7192 203.735 98.2209V102.805C203.742 103.055 203.693 103.304 203.593 103.533C203.492 103.761 203.342 103.965 203.153 104.129C202.781 104.467 202.295 104.652 201.792 104.645Z" fill="#42D3AD"/>
</svg>
