<svg width="111" height="59" viewBox="0 0 111 59" fill="none" xmlns="http://www.w3.org/2000/svg">
<path d="M31.556 10.7518C31.5243 10.5158 31.4375 10.2906 31.3027 10.0945C31.168 9.89842 30.989 9.73688 30.7803 9.623C30.1064 9.24324 30.2608 8.76153 32.0228 5.79022L34.041 2.38638H45.3499V11.441H38.4529C32.7388 11.441 31.556 11.3144 31.556 10.7518ZM55.8164 29.8068C55.8164 29.6873 54.5072 28.0276 52.9102 26.1147C48.1017 20.3654 48.028 20.1369 47.7401 10.3263C47.4242 -0.423193 47.7577 0.00228959 39.6674 0.00228959C34.8377 0.00228959 33.9146 0.128887 32.8933 0.934129C32.2404 1.44752 30.1274 4.61223 28.19 7.96682L24.6801 14.0641L24.5186 20.2143C24.4028 24.8277 24.1852 26.5437 23.6622 27.0676C23.4575 27.2997 23.3026 27.5714 23.2072 27.8661C23.1117 28.1607 23.0779 28.4718 23.1076 28.7801C23.241 29.7154 23.578 29.8033 27.6705 29.9299C31.563 30.0494 32.107 29.9686 32.3317 29.2266C33.9392 23.8079 38.4915 21.4626 42.9948 23.7271C44.869 24.6765 46.7784 27.2716 46.7784 28.8961C46.7784 29.9932 46.8697 30.0143 51.2992 30.0143C53.7982 30.0249 55.8164 29.9264 55.8164 29.8068Z" fill="#564079"/>
<path d="M39.4076 26.9858C38.7096 26.9872 38.0336 27.231 37.4948 27.6757C36.9559 28.1203 36.5876 28.7382 36.4524 29.4243C36.3173 30.1104 36.4237 30.8223 36.7535 31.4386C37.0833 32.055 37.6162 32.5378 38.2613 32.8048C38.9065 33.0718 39.6241 33.1066 40.292 32.9031C40.9598 32.6997 41.5367 32.2706 41.9243 31.689C42.3119 31.1073 42.4863 30.4091 42.4178 29.7131C42.3493 29.0172 42.0422 28.3665 41.5487 27.8719C41.2674 27.5905 40.9335 27.3675 40.5661 27.2154C40.1988 27.0634 39.8051 26.9853 39.4076 26.9858ZM39.4076 23.9512C40.6051 23.9512 41.7757 24.3069 42.7714 24.9735C43.767 25.64 44.5431 26.5873 45.0013 27.6957C45.4596 28.804 45.5795 30.0236 45.3459 31.2002C45.1122 32.3769 44.5356 33.4577 43.6889 34.306C42.8421 35.1543 41.7633 35.732 40.5888 35.966C39.4143 36.2001 38.197 36.08 37.0906 35.6209C35.9843 35.1618 35.0387 34.3843 34.3734 33.3868C33.7081 32.3893 33.353 31.2165 33.353 30.0169C33.354 28.4084 33.9921 26.8662 35.1274 25.7288C36.2627 24.5915 37.8021 23.9521 39.4076 23.9512Z" fill="#564079"/>
<path d="M50.6397 10.5195H86.4407C86.6363 10.5191 86.83 10.5573 87.0108 10.6321C87.1915 10.7068 87.3558 10.8166 87.4941 10.9552C87.6323 11.0937 87.7419 11.2583 87.8166 11.4394C87.8912 11.6205 87.9294 11.8145 87.9289 12.0105V14.8622C87.9294 15.0581 87.8912 15.2522 87.8166 15.4333C87.7419 15.6144 87.6323 15.779 87.4941 15.9175C87.3558 16.056 87.1915 16.1658 87.0108 16.2406C86.83 16.3154 86.6363 16.3536 86.4407 16.3531H50.6397C50.4439 16.3536 50.2501 16.3154 50.0691 16.2407C49.8881 16.166 49.7237 16.0562 49.5851 15.9177C49.4465 15.7792 49.3366 15.6147 49.2616 15.4336C49.1866 15.2525 49.148 15.0583 49.148 14.8622V12.0175C49.147 11.8208 49.185 11.6259 49.2596 11.444C49.3342 11.2621 49.4439 11.0967 49.5826 10.9574C49.7213 10.8182 49.886 10.7078 50.0675 10.6327C50.2489 10.5575 50.4434 10.5191 50.6397 10.5195Z" fill="#564079"/>
<path d="M53.3349 17.2461H86.4403C86.6359 17.2456 86.8296 17.2839 87.0104 17.3586C87.1911 17.4334 87.3554 17.5432 87.4937 17.6817C87.6319 17.8203 87.7415 17.9848 87.8162 18.1659C87.8908 18.347 87.929 18.5411 87.9285 18.737V21.5888C87.929 21.7847 87.8908 21.9788 87.8162 22.1599C87.7415 22.341 87.6319 22.5055 87.4937 22.6441C87.3554 22.7826 87.1911 22.8924 87.0104 22.9672C86.8296 23.0419 86.6359 23.0802 86.4403 23.0797H53.3349C53.1393 23.0802 52.9456 23.0419 52.7648 22.9672C52.5841 22.8924 52.4198 22.7826 52.2815 22.6441C52.1432 22.5055 52.0336 22.341 51.959 22.1599C51.8844 21.9788 51.8462 21.7847 51.8467 21.5888V18.737C51.8462 18.5411 51.8844 18.347 51.959 18.1659C52.0336 17.9848 52.1432 17.8203 52.2815 17.6817C52.4198 17.5432 52.5841 17.4334 52.7648 17.3586C52.9456 17.2839 53.1393 17.2456 53.3349 17.2461Z" fill="#42D3AD"/>
<path d="M86.4549 23.9766H57.9545C57.1326 23.9766 56.4663 24.6441 56.4663 25.4675V28.3193C56.4663 29.1427 57.1326 29.8102 57.9545 29.8102H86.4549C87.2768 29.8102 87.9431 29.1427 87.9431 28.3193V25.4675C87.9431 24.6441 87.2768 23.9766 86.4549 23.9766Z" fill="#564079"/>
<path d="M50.6397 3.78907H72.6924C73.0871 3.78907 73.4657 3.94617 73.7448 4.22578C74.0239 4.50538 74.1807 4.88457 74.1807 5.27999V8.14934C74.1811 8.3451 74.1429 8.53903 74.0683 8.71993C73.9936 8.90083 73.8839 9.06513 73.7456 9.20339C73.6073 9.34164 73.443 9.45111 73.2622 9.52549C73.0815 9.59987 72.8878 9.63768 72.6924 9.63675H50.6397C50.4442 9.63767 50.2503 9.59991 50.0694 9.52557C49.8885 9.45124 49.724 9.34181 49.5854 9.2036C49.4467 9.06539 49.3367 8.90111 49.2617 8.72019C49.1866 8.53927 49.148 8.34526 49.148 8.14934V5.29407C49.1462 5.0968 49.1834 4.90112 49.2576 4.71837C49.3317 4.53563 49.4414 4.36945 49.5801 4.22947C49.7189 4.08948 49.884 3.97845 50.0659 3.90286C50.2478 3.82726 50.4428 3.78859 50.6397 3.78907Z" fill="#42D3AD"/>
<path d="M1.58505 55.0537C1.37424 55.0648 1.16346 55.0314 0.966371 54.9557C0.769281 54.8799 0.590291 54.7635 0.441021 54.6139C0.291752 54.4644 0.175535 54.2851 0.0999173 54.0876C0.0242992 53.8902 -0.0090283 53.679 0.0020903 53.4678V46.0835C-0.0034114 45.9429 0.0216729 45.8027 0.0756132 45.6728C0.129554 45.5428 0.211054 45.4262 0.314466 45.331C0.422164 45.2305 0.548627 45.1524 0.686569 45.1011C0.82451 45.0498 0.971211 45.0264 1.11824 45.0321C1.25984 45.0275 1.4009 45.0516 1.53298 45.103C1.66506 45.1544 1.78544 45.2319 1.88691 45.331C1.98858 45.4274 2.06868 45.5443 2.12193 45.674C2.17517 45.8037 2.20034 45.9433 2.19578 46.0835V52.3074C2.18125 52.4067 2.18996 52.5079 2.22122 52.6033C2.25248 52.6986 2.30543 52.7853 2.3759 52.8566C2.44637 52.9279 2.53242 52.9818 2.62726 53.014C2.72209 53.0462 2.82311 53.0559 2.92232 53.0423H5.09495C5.23107 53.0342 5.36739 53.0541 5.49556 53.1007C5.62373 53.1473 5.74103 53.2197 5.84026 53.3134C5.93949 53.4071 6.01855 53.5201 6.07259 53.6455C6.12663 53.771 6.15451 53.9061 6.15451 54.0427C6.15451 54.1793 6.12663 54.3145 6.07259 54.4399C6.01855 54.5653 5.93949 54.6784 5.84026 54.772C5.74103 54.8657 5.62373 54.9381 5.49556 54.9847C5.36739 55.0313 5.23107 55.0512 5.09495 55.0431L1.58505 55.0537Z" fill="#564079"/>
<path d="M11.8374 50.5878C11.8816 50.5861 11.9254 50.5778 11.9672 50.5632C12.0234 50.5632 12.055 50.4894 12.055 50.3874C12.0414 50.2479 11.9931 50.114 11.9147 49.9979C11.8362 49.8818 11.73 49.7872 11.6057 49.7228C11.2593 49.5059 10.8555 49.3993 10.4474 49.4169C10.0126 49.3968 9.58216 49.5123 9.21548 49.7474C8.89959 49.9654 8.74164 50.1905 8.74164 50.4155C8.74164 50.5315 8.80833 50.5878 8.94171 50.5878H11.8374ZM10.5703 55.2962C9.54454 55.3301 8.54314 54.979 7.76237 54.3116C7.38314 53.9705 7.08483 53.5488 6.88928 53.0773C6.69373 52.6058 6.60589 52.0964 6.63218 51.5865C6.60562 51.0654 6.69088 50.5447 6.88221 50.0594C7.07354 49.5741 7.36649 49.1356 7.74131 48.7734C8.39488 48.2286 9.19106 47.8835 10.0349 47.7794C10.8788 47.6753 11.7347 47.8165 12.5007 48.1862C12.9887 48.4471 13.3955 48.8376 13.6766 49.3149C13.9301 49.7517 14.0645 50.2478 14.0662 50.7531C14.0662 51.6005 13.6906 52.0225 12.9465 52.0225H8.91362C8.78375 52.0225 8.72058 52.1033 8.72058 52.2651C8.72701 52.4577 8.78914 52.6444 8.89943 52.8023C9.00971 52.9602 9.1634 53.0827 9.34183 53.1547C9.77518 53.3799 10.2577 53.4936 10.7458 53.4853C11.0755 53.4841 11.4036 53.4392 11.7215 53.3517C12.0292 53.2684 12.3193 53.1302 12.578 52.9438C12.7258 52.8355 12.9038 52.7765 13.0869 52.775C13.2033 52.7741 13.3185 52.7974 13.4255 52.8434C13.5324 52.8894 13.6286 52.9571 13.7082 53.0422C13.7909 53.1267 13.8561 53.2267 13.9001 53.3366C13.9441 53.4464 13.9659 53.5639 13.9644 53.6822C13.9541 53.8468 13.9067 54.007 13.8259 54.1507C13.745 54.2944 13.6328 54.418 13.4976 54.5121C13.1179 54.7946 12.6823 54.9924 12.22 55.0923C11.6812 55.2316 11.1267 55.3002 10.5703 55.2962Z" fill="#564079"/>
<path d="M19.1872 53.3239C19.421 53.3341 19.6541 53.2921 19.8696 53.2009C20.0851 53.1097 20.2777 52.9715 20.4333 52.7964C20.7435 52.4328 20.9075 51.9665 20.893 51.4884C20.9144 51.0145 20.7493 50.5511 20.4333 50.1978C20.0977 49.8834 19.6555 49.7085 19.196 49.7085C18.7366 49.7085 18.2943 49.8834 17.9588 50.1978C17.7967 50.3697 17.6708 50.5726 17.5888 50.7944C17.5068 51.0161 17.4703 51.2521 17.4814 51.4884C17.4666 51.9697 17.6375 52.4382 17.9588 52.7964C18.1128 52.9688 18.3025 53.1053 18.5147 53.1964C18.7269 53.2876 18.9565 53.331 19.1872 53.3239ZM19.0188 55.2965C18.5308 55.3165 18.0441 55.2349 17.5892 55.057C17.1343 54.879 16.7212 54.6086 16.3758 54.2628C16.0312 53.8912 15.7643 53.4543 15.5907 52.9778C15.4171 52.5014 15.3403 51.995 15.3649 51.4884C15.339 50.9884 15.4128 50.4884 15.5822 50.0174C15.7515 49.5464 16.013 49.114 16.3512 48.7456C16.69 48.4058 17.0954 48.1401 17.5418 47.9651C17.9883 47.7902 18.4661 47.71 18.9451 47.7294C19.3147 47.7259 19.6814 47.7955 20.0241 47.9343C20.3668 48.0731 20.6788 48.2783 20.9422 48.5381C21.01 48.3401 21.1391 48.1689 21.3107 48.0494C21.4927 47.9161 21.7136 47.8468 21.939 47.8525C22.2294 47.8393 22.5133 47.9417 22.7287 48.1373C22.8259 48.2192 22.904 48.3215 22.9573 48.4369C23.0107 48.5524 23.0381 48.6782 23.0376 48.8054V54.3471C23.041 54.4774 23.0149 54.6067 22.9615 54.7254C22.908 54.8441 22.8284 54.9492 22.7287 55.0328C22.5074 55.216 22.2258 55.3101 21.939 55.2965C21.7159 55.3207 21.4917 55.2627 21.3082 55.1333C21.1248 55.0038 20.9946 54.8118 20.9422 54.5933C20.4139 55.0646 19.7259 55.3162 19.0188 55.2965Z" fill="#564079"/>
<path d="M31.0504 55.2965C30.7694 55.3073 30.4942 55.2133 30.2783 55.0328C30.18 54.9483 30.102 54.8429 30.0497 54.7242C29.9975 54.6056 29.9724 54.4767 29.9764 54.3471V51.3688C29.9984 51.1373 29.9744 50.9037 29.9057 50.6816C29.8371 50.4595 29.7251 50.2532 29.5763 50.0747C29.4458 49.9475 29.2915 49.8476 29.1222 49.7806C28.9529 49.7136 28.772 49.6809 28.59 49.6844C28.4035 49.6787 28.2178 49.7103 28.0436 49.7773C27.8694 49.8443 27.7103 49.9454 27.5756 50.0747C27.3177 50.3146 27.1441 50.6316 27.0807 50.9785V54.2451C27.0845 54.3779 27.0587 54.51 27.0053 54.6316C26.9519 54.7532 26.8722 54.8614 26.7719 54.9484C26.571 55.1351 26.3053 55.2361 26.0313 55.2297C25.7462 55.2378 25.4679 55.1416 25.2486 54.9589C25.1487 54.876 25.0688 54.7717 25.0147 54.6536C24.9606 54.5355 24.9338 54.4067 24.9362 54.2768V48.8089C24.9353 48.6823 24.9618 48.5569 25.0139 48.4416C25.066 48.3263 25.1425 48.2236 25.238 48.1407C25.4552 47.9456 25.7399 47.8434 26.0313 47.8559C26.2664 47.8469 26.4972 47.9202 26.6841 48.0634C26.8588 48.1964 26.9877 48.3808 27.0527 48.5908C27.2934 48.2981 27.6007 48.0674 27.9488 47.9181C28.2969 47.7688 28.6757 47.7053 29.0533 47.7328C29.8681 47.699 30.6631 47.9898 31.2645 48.5416C31.8355 49.0761 32.121 49.9294 32.121 51.1015V54.3999C32.1229 54.5243 32.096 54.6474 32.0424 54.7597C31.9888 54.8719 31.91 54.9702 31.8121 55.0468C31.5967 55.2196 31.3261 55.3083 31.0504 55.2965Z" fill="#564079"/>
<path d="M36.5788 53.5115H37.5265C37.9134 53.5361 38.3011 53.4783 38.664 53.3419C39.027 53.2055 39.3571 52.9937 39.6324 52.7203C40.146 52.1033 40.3979 51.3093 40.3344 50.5085C40.3133 49.5309 40.0606 48.7902 39.5763 48.2862C39.2965 48.0211 38.9649 47.817 38.6024 47.6869C38.2399 47.5567 37.8544 47.5034 37.4703 47.5302H36.5437C36.4612 47.5184 36.3772 47.5261 36.2981 47.5525C36.2191 47.5789 36.1473 47.6234 36.0884 47.6824C36.0295 47.7414 35.9851 47.8133 35.9588 47.8925C35.9324 47.9716 35.9248 48.0559 35.9365 48.1385V52.8961C35.9228 52.9825 35.9302 53.071 35.9581 53.154C35.986 53.2369 36.0336 53.3118 36.0967 53.3723C36.1599 53.4328 36.2367 53.4771 36.3207 53.5013C36.4046 53.5256 36.4932 53.529 36.5788 53.5115ZM35.4346 55.463C34.9913 55.4853 34.5573 55.3311 34.2272 55.034C34.0762 54.8882 33.958 54.7117 33.8805 54.5165C33.8031 54.3212 33.7681 54.1117 33.7779 53.9018V47.0906C33.7661 46.887 33.7964 46.6832 33.8671 46.4919C33.9378 46.3007 34.0472 46.1262 34.1885 45.9794C34.3355 45.8434 34.508 45.7379 34.696 45.6691C34.884 45.6003 35.0837 45.5695 35.2836 45.5786H37.5054C38.4554 45.5503 39.3961 45.7735 40.2326 46.2256C40.9603 46.6358 41.5558 47.2458 41.9489 47.9838C42.3551 48.7635 42.5603 49.6326 42.5456 50.512C42.5634 51.4121 42.3546 52.3021 41.9384 53.1C41.5556 53.8254 40.9797 54.4305 40.2747 54.8482C39.5697 55.2659 38.7631 55.4799 37.9441 55.4666L35.4346 55.463Z" fill="#42D3AD"/>
<path d="M45.3184 47.0286C44.9948 47.0328 44.6816 46.9148 44.4409 46.6981C44.3257 46.5914 44.2348 46.4611 44.1742 46.3161C44.1137 46.1711 44.0849 46.0148 44.0899 45.8577C44.0885 45.7058 44.1191 45.5552 44.1795 45.4159C44.24 45.2766 44.329 45.1515 44.4409 45.0489C44.677 44.8224 44.9915 44.6964 45.3184 44.6973C45.4746 44.6966 45.6294 44.7274 45.7735 44.7878C45.9176 44.8482 46.0481 44.937 46.1573 45.0489C46.2693 45.1514 46.3585 45.2764 46.4189 45.4158C46.4794 45.5552 46.5099 45.7057 46.5082 45.8577C46.5135 46.0148 46.4848 46.1712 46.4243 46.3162C46.3637 46.4613 46.2726 46.5915 46.1573 46.6981C45.9319 46.9146 45.6305 47.0333 45.3184 47.0286ZM45.3184 55.6929C45.0356 55.7006 44.7594 55.6071 44.5392 55.4292C44.4356 55.3446 44.3531 55.237 44.2983 55.1149C44.2435 54.9928 44.2178 54.8596 44.2233 54.7259V49.1877C44.2224 49.0611 44.2489 48.9358 44.301 48.8204C44.3531 48.7051 44.4296 48.6025 44.5251 48.5196C44.7422 48.3245 45.027 48.2222 45.3184 48.2347C45.4591 48.2269 45.6 48.2481 45.7323 48.2971C45.8645 48.3461 45.9853 48.4219 46.087 48.5196C46.1799 48.611 46.2527 48.7206 46.3011 48.8417C46.3494 48.9627 46.3721 49.0925 46.3678 49.2229V54.7154C46.3718 54.8482 46.3462 54.9803 46.2927 55.102C46.2393 55.2236 46.1594 55.3318 46.059 55.4187C45.857 55.6028 45.5914 55.7012 45.3184 55.6929Z" fill="#42D3AD"/>
<path d="M50.9447 55.6939C49.9881 55.7322 49.0406 55.4955 48.214 55.0117C48.0777 54.9256 47.9674 54.8041 47.8946 54.6601C47.8337 54.5327 47.8014 54.3934 47.7998 54.2522C47.8013 53.9759 47.9008 53.7092 48.0806 53.4997C48.1616 53.3897 48.2674 53.3005 48.3894 53.2393C48.5114 53.1782 48.6462 53.1469 48.7826 53.1481C48.9185 53.1489 49.0521 53.1827 49.1722 53.2465C49.4927 53.3949 49.8264 53.5126 50.169 53.5982C50.5045 53.6814 50.8483 53.7263 51.1939 53.7318C51.7976 53.7318 52.0994 53.5911 52.0994 53.3133C52.0978 53.231 52.0774 53.1501 52.0396 53.077C52.0019 53.0038 51.9479 52.9403 51.8818 52.8914C51.5683 52.7175 51.2152 52.6279 50.8569 52.6312C50.6428 52.6312 50.3691 52.5819 50.0391 52.5327C49.6995 52.4844 49.3678 52.391 49.0528 52.2549C48.7325 52.1194 48.4512 51.9054 48.235 51.6325C47.9997 51.3063 47.8833 50.9091 47.9051 50.5073C47.8916 50.1725 47.96 49.8396 48.1043 49.5374C48.2487 49.2353 48.4647 48.9731 48.7334 48.7737C49.3836 48.3216 50.1648 48.0978 50.9552 48.1373C51.4668 48.1342 51.977 48.1921 52.475 48.3096C52.8758 48.3827 53.2501 48.5611 53.5596 48.8265C53.6598 48.9101 53.7416 49.0136 53.8 49.1305C53.8583 49.2474 53.8918 49.3751 53.8984 49.5056C53.905 49.636 53.8845 49.7665 53.8383 49.8886C53.792 50.0108 53.721 50.1221 53.6298 50.2154C53.5442 50.3107 53.439 50.3861 53.3214 50.4365C53.2038 50.4869 53.0767 50.5111 52.9488 50.5073C52.8062 50.5064 52.6657 50.4728 52.5382 50.4088C52.3105 50.2659 52.0581 50.1669 51.7941 50.117C51.4932 50.0508 51.186 50.0178 50.878 50.0185C50.2638 50.0185 49.9549 50.1486 49.9549 50.4088C49.9589 50.4707 49.9775 50.5307 50.0093 50.5839C50.041 50.6371 50.0849 50.682 50.1374 50.7148C50.3993 50.8459 50.6843 50.9247 50.9763 50.9468C51.2547 50.9773 51.5706 51.023 51.9239 51.084C52.2859 51.1357 52.6398 51.2338 52.9769 51.3758C53.3121 51.5178 53.6021 51.7488 53.8158 52.0439C54.065 52.4187 54.188 52.8635 54.1668 53.3133C54.1779 53.6563 54.1036 53.9968 53.9504 54.3038C53.7971 54.6108 53.5699 54.8746 53.2893 55.0715C52.5956 55.5278 51.7729 55.7462 50.9447 55.6939Z" fill="#42D3AD"/>
<path d="M59.3163 53.7201C59.5442 53.7293 59.7713 53.6867 59.9804 53.5953C60.1896 53.504 60.3753 53.3663 60.5237 53.1926C60.8315 52.8279 60.994 52.362 60.98 51.8846C61.0008 51.4114 60.8372 50.9486 60.5237 50.5941C60.3694 50.4304 60.1816 50.302 59.9732 50.2176C59.7649 50.1333 59.5408 50.0949 59.3163 50.1053C59.0961 50.0967 58.8767 50.136 58.6732 50.2203C58.4696 50.3047 58.2867 50.4322 58.1369 50.5941C57.8273 50.9504 57.6664 51.4126 57.6877 51.8846C57.673 52.3609 57.8328 52.8262 58.1369 53.1926C58.2808 53.3643 58.4618 53.5009 58.666 53.5923C58.8703 53.6837 59.0927 53.7274 59.3163 53.7201ZM59.4882 55.6928C58.8257 55.7113 58.1813 55.4747 57.6877 55.0317V58.0171C57.6911 58.1495 57.6656 58.2811 57.6128 58.4026C57.5601 58.5241 57.4814 58.6326 57.3823 58.7203C57.1808 58.9058 56.9152 59.0055 56.6417 58.9981C56.3561 59.0065 56.077 58.9117 55.8555 58.7309C55.7556 58.648 55.6757 58.5436 55.6216 58.4255C55.5675 58.3074 55.5407 58.1786 55.5431 58.0487V49.2122C55.5429 49.0857 55.5697 48.9606 55.6218 48.8453C55.6739 48.7301 55.75 48.6274 55.845 48.5441C56.0633 48.3487 56.3492 48.2465 56.6417 48.2592C56.8672 48.253 57.0882 48.3224 57.27 48.4561C57.4423 48.5749 57.5716 48.7464 57.6385 48.9449C57.8892 48.6876 58.189 48.4835 58.52 48.3445C58.8511 48.2056 59.2066 48.1347 59.5655 48.1361C60.0404 48.115 60.5145 48.1946 60.9567 48.3697C61.3988 48.5449 61.7991 48.8116 62.1312 49.1524C62.8021 49.9029 63.1491 50.889 63.0964 51.8951C63.1463 52.9123 62.796 53.9084 62.1207 54.6695C61.7789 55.0166 61.3676 55.2872 60.9139 55.4636C60.4601 55.64 59.9743 55.7181 59.4882 55.6928Z" fill="#42D3AD"/>
<path d="M68.2066 53.7225C68.4399 53.7333 68.6726 53.6915 68.8876 53.6002C69.1026 53.5089 69.2945 53.3705 69.4491 53.1951C69.7618 52.8327 69.9272 52.3658 69.9124 51.887C69.9339 51.4125 69.7674 50.9486 69.4491 50.5965C69.1149 50.2863 68.6762 50.114 68.2206 50.114C67.7651 50.114 67.3263 50.2863 66.9921 50.5965C66.83 50.7684 66.7042 50.9713 66.6222 51.193C66.5402 51.4148 66.5036 51.6508 66.5148 51.887C66.4999 52.3683 66.6709 52.8369 66.9921 53.1951C67.1444 53.3658 67.3319 53.5014 67.5415 53.5924C67.7512 53.6835 67.9781 53.7279 68.2066 53.7225ZM68.0346 55.6952C67.5467 55.7145 67.0602 55.6326 66.6054 55.4547C66.1506 55.2768 65.7374 55.0068 65.3916 54.6614C65.0475 54.2896 64.7811 53.8527 64.6081 53.3762C64.4351 52.8997 64.359 52.3934 64.3843 51.887C64.3575 51.387 64.431 50.8867 64.6004 50.4157C64.7698 49.9446 65.0317 49.5123 65.3706 49.1443C65.7089 48.8039 66.1143 48.5379 66.5608 48.3629C67.0074 48.188 67.4853 48.108 67.9644 48.128C68.334 48.1245 68.7007 48.1942 69.0434 48.3329C69.3862 48.4717 69.6982 48.6769 69.9615 48.9368C70.0222 48.7399 70.1455 48.5683 70.3125 48.448C70.4956 48.3142 70.7178 48.245 70.9443 48.2511C71.2347 48.238 71.5186 48.3404 71.734 48.5359C71.8305 48.6185 71.908 48.7209 71.9613 48.8362C72.0146 48.9515 72.0425 49.077 72.0429 49.204V54.7423C72.0479 54.8753 72.0227 55.0077 71.9692 55.1295C71.9157 55.2513 71.8353 55.3594 71.734 55.4456C71.5127 55.6288 71.2311 55.7228 70.9443 55.7093C70.7211 55.7342 70.4965 55.6765 70.3128 55.5469C70.1292 55.4174 69.9992 55.225 69.9475 55.006C69.4196 55.4695 68.7362 55.7157 68.0346 55.6952Z" fill="#42D3AD"/>
<path d="M76.9953 55.6944C76.3619 55.7176 75.7434 55.4989 75.2649 55.0825C74.8086 54.6782 74.584 54.0523 74.584 53.2048V50.5676C74.5887 50.5346 74.5857 50.501 74.5752 50.4694C74.5647 50.4379 74.5469 50.4091 74.5235 50.3856C74.5 50.3621 74.4713 50.3443 74.4398 50.3338C74.4083 50.3233 74.3747 50.3202 74.3418 50.3249H73.9908C73.8682 50.3344 73.7451 50.3152 73.6312 50.2688C73.5173 50.2224 73.4157 50.1502 73.3345 50.0577C73.1835 49.8632 73.1053 49.6218 73.1134 49.3755C73.1064 49.1229 73.1843 48.8753 73.3345 48.6723C73.414 48.577 73.515 48.5021 73.6291 48.4538C73.7433 48.4055 73.8673 48.3851 73.9908 48.3944H74.3418C74.3753 48.3987 74.4092 48.3951 74.441 48.3839C74.4728 48.3727 74.5015 48.3543 74.525 48.3301C74.5485 48.3059 74.566 48.2765 74.5763 48.2444C74.5865 48.2122 74.5892 48.1782 74.584 48.1448V46.3374C74.5815 46.2064 74.6061 46.0763 74.6562 45.9552C74.7064 45.8342 74.781 45.7249 74.8753 45.6341C74.9745 45.5361 75.0925 45.4593 75.2223 45.4086C75.352 45.3578 75.4908 45.334 75.63 45.3388C75.9125 45.3274 76.1884 45.4271 76.3986 45.6166C76.4965 45.7055 76.5746 45.8141 76.6279 45.9352C76.6811 46.0564 76.7082 46.1875 76.7075 46.3198V48.1272C76.7075 48.2925 76.7847 48.3769 76.9462 48.3769H77.8517C77.9825 48.3724 78.1126 48.3958 78.2337 48.4455C78.3547 48.4952 78.4638 48.5701 78.5537 48.6652C78.7362 48.8534 78.8371 49.1061 78.8345 49.3685C78.8378 49.4955 78.8145 49.6219 78.7662 49.7393C78.7178 49.8568 78.6454 49.9629 78.5537 50.0507C78.4575 50.1408 78.3443 50.2108 78.2208 50.2567C78.0972 50.3026 77.9658 50.3234 77.8342 50.3179H76.9637C76.931 50.3131 76.8975 50.316 76.8661 50.3265C76.8347 50.3371 76.8062 50.3549 76.7829 50.3785C76.7597 50.4022 76.7423 50.4309 76.7322 50.4626C76.7222 50.4942 76.7197 50.5278 76.7251 50.5605V52.8567C76.7012 53.0731 76.7574 53.2908 76.883 53.4685C76.9339 53.5236 76.9959 53.5671 77.0649 53.5962C77.1339 53.6253 77.2083 53.6393 77.2831 53.6373C77.4143 53.6272 77.5445 53.6072 77.6727 53.5775C77.7879 53.5482 77.9053 53.5283 78.0237 53.5178C78.148 53.5164 78.271 53.5421 78.3844 53.5931C78.4977 53.6441 78.5986 53.7192 78.6801 53.8131C78.8392 53.9864 78.934 54.2092 78.9487 54.4441C78.9634 54.679 78.897 54.9119 78.7608 55.1037C78.6225 55.2963 78.4214 55.4343 78.1922 55.494C77.9912 55.5567 77.7859 55.6049 77.578 55.6381C77.3856 55.6726 77.1907 55.6914 76.9953 55.6944Z" fill="#42D3AD"/>
<path d="M83.6324 55.6946C82.966 55.6975 82.3086 55.5395 81.716 55.2339C81.1265 54.9264 80.6333 54.4615 80.291 53.8907C79.9213 53.2507 79.7378 52.5199 79.761 51.7809C79.7433 51.2828 79.8314 50.7867 80.0196 50.3253C80.2078 49.864 80.4918 49.448 80.8526 49.1049C81.6166 48.4275 82.6131 48.0734 83.6324 48.1169C84.0661 48.1164 84.4983 48.1659 84.9206 48.2645C85.3261 48.3536 85.7042 48.5393 86.0227 48.806C86.1363 48.8948 86.2274 49.0092 86.2884 49.14C86.3494 49.2708 86.3786 49.4143 86.3737 49.5586C86.3702 49.8197 86.2702 50.0703 86.0929 50.2618C86.0081 50.3654 85.9007 50.4481 85.779 50.5036C85.6573 50.559 85.5246 50.5858 85.3909 50.5818C85.2181 50.5837 85.049 50.5322 84.9065 50.4341C84.7014 50.3205 84.4834 50.2319 84.2572 50.1704C84.0558 50.1164 83.8479 50.0903 83.6395 50.093C83.1567 50.0714 82.6845 50.2392 82.3232 50.5607C82.1524 50.7174 82.0179 50.9098 81.9294 51.1243C81.8408 51.3388 81.8003 51.5701 81.8108 51.802C81.7961 52.0633 81.8387 52.3247 81.9357 52.5677C82.0328 52.8107 82.1818 53.0295 82.3724 53.2085C82.7324 53.5356 83.2027 53.714 83.6886 53.7079C84.2825 53.6969 84.8523 53.4708 85.2926 53.0714C85.4503 52.9375 85.6478 52.8596 85.8542 52.8498C85.9822 52.8496 86.1086 52.8783 86.2241 52.9337C86.3395 52.9891 86.441 53.0698 86.5211 53.1698C86.705 53.3685 86.8055 53.6304 86.8019 53.9012C86.7986 54.0296 86.7749 54.1566 86.7317 54.2775C86.6753 54.431 86.5825 54.5685 86.4614 54.6783C86.0485 55.0249 85.5714 55.2866 85.0575 55.4484C84.5975 55.6018 84.1171 55.6848 83.6324 55.6946Z" fill="#42D3AD"/>
<path d="M89.3185 55.6934C89.0334 55.7028 88.7544 55.6092 88.5323 55.4297C88.4298 55.3444 88.3483 55.2366 88.2941 55.1147C88.2399 54.9927 88.2146 54.8598 88.2199 54.7264V45.6473C88.2185 45.5201 88.2448 45.3941 88.2969 45.2781C88.3491 45.1621 88.4258 45.0589 88.5218 44.9756C88.7415 44.7829 89.0268 44.6822 89.3185 44.6944C89.5962 44.6852 89.8661 44.7863 90.0697 44.9756C90.1663 45.0648 90.2426 45.1738 90.2935 45.2951C90.3443 45.4165 90.3686 45.5474 90.3645 45.6789V48.9386C90.5946 48.6753 90.8865 48.4735 91.2139 48.3513C91.5781 48.2024 91.9682 48.1271 92.3616 48.1298C92.7641 48.1124 93.166 48.175 93.5443 48.3138C93.9226 48.4526 94.2698 48.6649 94.5659 48.9386C95.1251 49.473 95.4047 50.3264 95.4047 51.4985V54.7968C95.4066 54.9212 95.3797 55.0444 95.3262 55.1566C95.2726 55.2689 95.1937 55.3672 95.0958 55.4438C94.8802 55.6164 94.6101 55.7062 94.3342 55.697C94.0531 55.7078 93.778 55.6138 93.562 55.4332C93.4622 55.3462 93.3833 55.2379 93.331 55.1161C93.2788 54.9944 93.2545 54.8624 93.2602 54.73V51.7516C93.2822 51.5202 93.2582 51.2866 93.1895 51.0645C93.1208 50.8423 93.0088 50.6361 92.86 50.4576C92.73 50.3298 92.5758 50.2294 92.4064 50.1623C92.237 50.0953 92.0558 50.063 91.8737 50.0673C91.6881 50.0614 91.5033 50.0943 91.3311 50.164C91.1589 50.2336 91.003 50.3384 90.8734 50.4717C90.6266 50.7166 90.4507 51.0241 90.3645 51.3613V54.7054C90.3685 54.8382 90.3428 54.9703 90.2894 55.092C90.236 55.2137 90.1561 55.3218 90.0556 55.4086C89.8561 55.5958 89.5918 55.6979 89.3185 55.6934Z" fill="#42D3AD"/>
<path d="M102.003 50.9863C102.049 50.9845 102.094 50.9763 102.137 50.9617C102.193 50.9617 102.224 50.8878 102.224 50.7858C102.21 50.6462 102.161 50.5123 102.082 50.3963C102.003 50.2803 101.896 50.1858 101.772 50.1212C101.427 49.9045 101.024 49.7978 100.617 49.8153C100.181 49.7946 99.7491 49.9101 99.3814 50.1459C99.2548 50.2108 99.1459 50.3054 99.064 50.4218C98.9821 50.5382 98.9296 50.6728 98.9111 50.814C98.9111 50.93 98.9778 50.9863 99.1076 50.9863H102.003ZM100.736 55.6946C99.7102 55.7303 98.7082 55.3789 97.9283 54.7101C97.5491 54.369 97.2508 53.9472 97.0552 53.4757C96.8597 53.0042 96.7718 52.4948 96.7981 51.9849C96.769 51.461 96.853 50.9369 97.0444 50.4484C97.2358 49.9599 97.5301 49.5185 97.9072 49.1543C98.5608 48.6094 99.357 48.2644 100.201 48.1603C101.045 48.0561 101.901 48.1973 102.667 48.567C103.154 48.827 103.56 49.2178 103.839 49.6958C104.094 50.132 104.229 50.6284 104.229 51.134C104.229 51.9826 103.855 52.4057 103.109 52.4034H99.076C98.9497 52.4034 98.8865 52.4843 98.8865 52.646C98.8922 52.8383 98.9536 53.0248 99.0633 53.1828C99.173 53.3408 99.3262 53.4634 99.5042 53.5356C99.9381 53.759 100.42 53.8714 100.908 53.8626C101.238 53.8624 101.566 53.8187 101.884 53.7325C102.19 53.6485 102.479 53.5104 102.737 53.3246C102.886 53.2163 103.065 53.1573 103.249 53.1559C103.365 53.1553 103.48 53.1787 103.586 53.2247C103.692 53.2707 103.788 53.3383 103.867 53.4231C103.95 53.5074 104.016 53.6073 104.061 53.7171C104.105 53.827 104.128 53.9445 104.127 54.0631C104.116 54.2275 104.068 54.3874 103.987 54.531C103.907 54.6746 103.795 54.7983 103.66 54.893C103.28 55.1742 102.844 55.3718 102.382 55.4731C101.845 55.6176 101.292 55.6921 100.736 55.6946Z" fill="#42D3AD"/>
<path d="M106.875 55.6203C106.589 55.6303 106.31 55.5352 106.089 55.3531C105.989 55.2702 105.909 55.1658 105.855 55.0477C105.801 54.9296 105.774 54.8008 105.777 54.6709V49.203C105.776 49.0765 105.803 48.9514 105.855 48.8362C105.907 48.721 105.983 48.6182 106.078 48.5349C106.297 48.3392 106.583 48.237 106.875 48.2501C107.133 48.2427 107.384 48.3345 107.577 48.5067C107.757 48.6687 107.874 48.8892 107.907 49.1291C108.095 48.8432 108.344 48.6029 108.637 48.4259C108.926 48.2316 109.265 48.1276 109.613 48.127C109.817 48.1266 110.021 48.1514 110.22 48.2008C110.443 48.261 110.641 48.3933 110.782 48.5771C110.924 48.7636 111.001 48.9925 110.999 49.2276C111.005 49.3828 110.978 49.5376 110.922 49.6822C110.865 49.8268 110.779 49.9581 110.669 50.068C110.574 50.172 110.453 50.2487 110.319 50.2901C110.184 50.3315 110.041 50.3362 109.904 50.3036C109.697 50.2523 109.485 50.2264 109.272 50.2262C109.098 50.2214 108.925 50.2537 108.764 50.3209C108.603 50.3882 108.458 50.489 108.339 50.6166C108.1 50.8768 107.953 51.4077 107.907 52.2059V54.6428C107.911 54.7756 107.885 54.9076 107.832 55.0292C107.778 55.1509 107.698 55.2591 107.598 55.346C107.401 55.526 107.142 55.624 106.875 55.6203Z" fill="#42D3AD"/>
</svg>
