<?xml version="1.0" encoding="UTF-8"?>
<svg width="376px" height="124px" viewBox="0 0 376 124" version="1.1" xmlns="http://www.w3.org/2000/svg" xmlns:xlink="http://www.w3.org/1999/xlink">
    <title>SAUDI_MADE_arabic_horizontal_RGB</title>
    <defs>
        <polygon id="path-1" points="0 1.42108547e-14 81.538 1.42108547e-14 81.538 48.74 0 48.74"></polygon>
        <polygon id="path-3" points="0 0 58.932 0 58.932 48.741 0 48.741"></polygon>
    </defs>
    <g id="Desktop" stroke="none" stroke-width="1" fill="none" fill-rule="evenodd">
        <g id="SAUDI_MADE_arabic_horizontal_RGB" transform="translate(0.000000, -0.000000)">
            <polygon id="Fill-1" fill="#156839" points="7.125 7.455 15.073 7.455 15.073 0.015 7.125 0.015"></polygon>
            <g id="Group-5" transform="translate(0.000000, 0.015000)">
                <mask id="mask-2" fill="white">
                    <use xlink:href="#path-1"></use>
                </mask>
                <g id="Clip-3"></g>
                <polygon id="Fill-2" fill="#156839" mask="url(#mask-2)" points="19.177 7.44 27.13 7.44 27.13 1.42108547e-14 19.177 1.42108547e-14"></polygon>
                <path d="M68.775,18.853 C64.542,18.853 61.083,20.331 58.324,23.279 C55.633,26.232 54.281,29.819 54.281,33.991 C54.281,35.848 54.731,37.901 55.566,40.147 L36.879,40.147 C32.519,40.147 30.339,37.838 30.339,33.607 L30.339,13.403 C18.922,13.403 13.215,13.403 13.215,13.468 C4.751,13.468 -0.06,19.625 -0.06,29.18 C-0.06,38.028 4.879,44.701 12.575,44.701 C16.997,44.701 20.078,43.35 21.68,40.853 C23.733,46.109 27.325,48.74 32.453,48.74 L81.538,48.74 L81.538,40.147 L66.661,40.147 C64.286,39.184 63.069,36.938 63.069,33.54 C63.069,31.616 63.519,30.014 64.415,28.796 C65.376,27.322 66.789,26.616 68.585,26.616 C71.216,26.616 72.879,27.895 73.713,30.398 L81.088,26.999 C78.845,21.933 74.229,18.853 68.775,18.853 M15.011,37.261 C11.419,37.261 8.855,33.54 8.855,29.052 C8.855,24.047 11.547,20.009 15.201,20.009 L21.102,20.009 L21.102,28.474 C21.102,33.734 18.794,37.261 15.011,37.261" id="Fill-4" fill="#156839" mask="url(#mask-2)"></path>
            </g>
            <polygon id="Fill-6" fill="#156839" points="166.1 14.829 174.119 14.829 174.119 7.455 166.1 7.455"></polygon>
            <path d="M229.617,19.574 C222.432,19.574 214.929,23.934 209.223,31.309 L209.223,22.782 L200.246,22.782 L200.246,34.006 C200.246,38.622 198.64,40.162 195.692,40.162 L173.736,40.162 C174.437,38.172 174.825,36.058 174.825,33.683 L174.825,19.702 L165.782,19.702 L165.782,34.006 C165.782,38.11 164.241,40.162 161.228,40.162 L104.81,40.162 C98.207,40.162 97.117,37.854 97.117,33.493 L97.117,7.389 L88.136,7.389 L88.136,38.172 C88.136,44.778 92.113,48.754 98.975,48.754 L246.931,48.754 C247.124,46.768 247.252,44.778 247.252,42.854 C247.252,28.361 241.096,19.574 229.617,19.574 M237.887,39.006 L237.825,40.162 L211.53,40.162 C216.469,31.697 222.37,27.399 228.977,27.399 C234.616,27.399 237.887,32.403 237.887,39.006" id="Fill-7" fill="#156839"></path>
            <polygon id="Fill-8" fill="#156839" points="7.125 71.215 15.073 71.215 15.073 63.774 7.125 63.774"></polygon>
            <g id="Group-12" transform="translate(0.000000, 63.774000)">
                <mask id="mask-4" fill="white">
                    <use xlink:href="#path-3"></use>
                </mask>
                <g id="Clip-10"></g>
                <polygon id="Fill-9" fill="#156839" mask="url(#mask-4)" points="19.177 7.441 27.13 7.441 27.13 0 19.177 0"></polygon>
                <path d="M12.575,44.702 C16.998,44.702 20.078,43.353 21.68,40.854 C23.733,46.111 27.325,48.741 32.453,48.741 L47.326,48.741 C51.046,48.741 53.995,47.456 56.113,44.83 C57.971,42.585 58.932,39.764 58.932,36.362 L58.932,19.688 L49.956,19.688 L49.956,33.863 C49.956,38.029 48.416,40.149 45.401,40.149 L36.879,40.149 C32.519,40.149 30.339,37.84 30.339,33.608 L30.339,13.403 C18.922,13.403 13.215,13.403 13.215,13.47 C4.75,13.47 -0.06,19.626 -0.06,29.181 C-0.06,38.029 4.879,44.702 12.575,44.702 M8.855,29.053 C8.855,24.048 11.547,20.011 15.201,20.011 L21.102,20.011 L21.102,28.475 C21.102,33.736 18.794,37.262 15.011,37.262 C11.419,37.262 8.855,33.541 8.855,29.053" id="Fill-11" fill="#156839" mask="url(#mask-4)"></path>
            </g>
            <polygon id="Fill-13" fill="#156839" points="50.34 123.16 58.355 123.16 58.355 115.723 50.34 115.723"></polygon>
            <polygon id="Fill-14" fill="#156839" points="38.282 123.16 46.235 123.16 46.235 115.723 38.282 115.723"></polygon>
            <path d="M71.947,90.965 C83.36,90.965 88.237,94.941 88.237,103.923 L64.957,103.923 L64.957,112.515 L97.213,112.515 L97.213,103.856 C97.213,94.174 92.659,87.76 83.939,84.68 C81.569,83.85 77.592,83.463 71.947,83.463 L71.947,90.965" id="Fill-15" fill="#156839"></path>
            <g id="Group-19" transform="translate(103.233000, 0.000000)" fill="#156839">
                <path d="M28.665,112.515 L48.988,112.515 C51.618,112.515 54.244,112.065 56.941,111.231 C59.438,110.397 61.428,109.306 62.969,108.026 C65.856,111.041 69.187,112.515 72.908,112.515 L130.744,112.515 C133.948,112.515 136.835,111.358 139.336,109.116 C142.479,106.292 144.019,102.383 144.019,97.382 L144.019,83.462 L134.976,83.462 L134.976,98.15 C134.976,101.998 133.436,103.923 130.421,103.923 L124.715,103.923 C125.421,101.998 125.805,99.817 125.805,97.443 L125.805,83.462 L116.829,83.462 L116.829,98.15 C116.829,101.998 115.289,103.923 112.275,103.923 L106.568,103.923 C107.27,101.998 107.658,99.817 107.658,97.443 L107.658,83.462 L98.615,83.462 L98.615,97.766 C98.615,99.496 98.488,100.586 98.227,101.097 C97.525,102.96 96.113,103.923 94.061,103.923 L74.832,103.923 C72.78,103.923 71.178,103.41 70.022,102.32 C72.33,100.909 74.765,98.727 77.396,95.714 C79.771,92.955 81.373,90.647 82.079,88.917 C75.984,84.235 69.382,81.86 62.263,81.86 C56.296,81.86 50.334,83.591 44.5,87.055 L44.5,94.429 C46.998,94.88 49.628,95.969 52.32,97.637 C54.566,99.046 56.234,100.396 57.197,101.742 C54.822,103.217 52.002,103.923 48.86,103.923 L28.793,103.923 L28.793,98.084 C28.793,89.557 22.769,83.401 14.56,83.401 C6.029,83.401 0,89.235 0,97.893 C0,106.425 6.157,112.515 14.56,112.515 C17.57,112.515 19.366,112.387 20.072,112.132 C19.366,114.634 17.314,115.914 13.854,115.914 L13.081,115.914 L13.081,123.097 L14.044,123.097 C22.769,123.097 27.641,119.567 28.665,112.515 M59.888,93.533 C58.737,92.699 57.197,91.799 55.272,90.965 C57.775,89.747 60.338,89.173 62.903,89.173 C65.533,89.173 68.225,89.875 70.983,91.287 C70.406,92.249 69.382,93.278 68.036,94.429 C66.557,95.776 65.149,96.803 63.865,97.382 C62.391,95.647 61.044,94.368 59.888,93.533 M19.816,103.923 L14.621,103.923 C11.285,103.923 9.105,101.164 9.105,97.509 C9.105,94.112 10.901,91.481 14.299,91.481 C17.57,91.481 19.816,93.917 19.816,97.7 L19.816,103.923" id="Fill-16"></path>
                <polygon id="Fill-18" points="159.317 112.566 271.883 112.566 271.883 0 159.317 0"></polygon>
            </g>
            <path d="M346.062,52.885 C352.179,60.935 355.577,66.827 355.577,66.827 C353.486,70.484 351.145,74.398 348.556,78.565 C348.556,78.565 344.79,72.257 338.065,63.407 C334.675,58.949 325.992,49.008 325.86,48.864 C325.866,49.06 325.854,92.288 325.881,96.365 L325.858,96.359 C325.859,96.374 325.859,96.398 325.859,96.412 L311.785,96.412 C311.813,92.334 311.8,49.06 311.807,48.864 C311.675,49.008 302.991,58.949 299.602,63.407 C292.876,72.257 289.111,78.565 289.111,78.565 C286.522,74.398 284.18,70.484 282.089,66.827 C282.089,66.827 285.487,60.935 291.605,52.885 C294.305,49.331 300.836,41.946 302.47,40.111 C297.835,40.962 293.52,42.069 290.303,43.136 C287.199,44.164 284.825,45.179 283.272,45.907 C281.792,46.6 281.001,47.044 281.001,47.044 C281.972,43.252 283.071,39.819 284.319,36.826 C284.319,36.826 285.061,36.3 286.454,35.485 C287.907,34.634 290.125,33.461 293.024,32.299 C296.088,31.071 299.931,29.852 304.318,28.946 C304.193,28.853 301.415,26.616 300.322,25.911 C295.268,22.647 293.278,23.701 293.278,23.701 C295.795,21.886 298.335,20.421 300.853,19.372 C300.853,19.372 301.245,19.144 302.003,18.963 C302.811,18.769 304.099,18.665 305.783,18.989 C307.671,19.353 313.091,21.892 313.183,21.944 C313.19,21.862 313.444,19.426 313.532,18.564 C313.794,16.039 314.349,16.194 314.792,16.154 L322.874,16.154 C323.318,16.194 323.872,16.039 324.134,18.564 C324.223,19.426 324.477,21.862 324.484,21.944 C324.575,21.892 329.995,19.353 331.883,18.989 C333.568,18.665 334.856,18.769 335.663,18.963 C336.421,19.144 336.814,19.372 336.814,19.372 C339.331,20.421 341.871,21.886 344.388,23.701 C344.388,23.701 342.399,22.647 337.344,25.911 C336.251,26.616 333.474,28.853 333.349,28.946 C337.736,29.852 341.578,31.071 344.643,32.299 C347.541,33.461 349.759,34.634 351.212,35.485 C352.606,36.3 353.347,36.826 353.347,36.826 C354.595,39.819 355.694,43.252 356.665,47.044 C356.665,47.044 355.874,46.6 354.395,45.907 C352.841,45.179 350.467,44.164 347.363,43.136 C344.147,42.069 339.831,40.962 335.196,40.111 C336.83,41.946 343.361,49.331 346.062,52.885" id="Fill-20" fill="#FFFFFE"></path>
        </g>
    </g>
</svg>