<svg width="232" height="124" viewBox="0 0 232 124" fill="none" xmlns="http://www.w3.org/2000/svg">
<path d="M66.1709 22.8464C66.1049 22.3544 65.9243 21.885 65.6439 21.4762C65.3634 21.0673 64.9909 20.7306 64.5566 20.4932C63.1541 19.7014 63.4755 18.6972 67.1423 12.5028L71.3424 5.40664H94.8771V24.2831H80.524C68.6324 24.2831 66.1709 24.0193 66.1709 22.8464ZM116.659 62.5713C116.659 62.322 113.934 58.862 110.611 54.8741C100.604 42.8884 100.45 42.4119 99.8514 21.9593C99.194 -0.450609 99.8879 0.436414 83.0513 0.436414C73.0005 0.436414 71.0794 0.700336 68.9538 2.37906C67.5952 3.44934 63.198 10.047 59.1659 17.0404L51.8615 29.7518L51.5255 42.5733C51.2845 52.1911 50.8316 55.7685 49.7433 56.8608C49.3172 57.3445 48.9948 57.9111 48.7963 58.5253C48.5977 59.1395 48.5272 59.7881 48.5892 60.4308C48.8667 62.3808 49.568 62.5639 58.0849 62.8278C66.1855 63.0771 67.3176 62.9085 67.7851 61.3617C71.1305 50.0651 80.6043 45.1756 89.9759 49.8966C93.8764 51.8759 97.85 57.2859 97.85 60.6727C97.85 62.9598 98.0399 63.0039 107.258 63.0039C112.459 63.0259 116.659 62.8205 116.659 62.5713V62.5713Z" fill="#564079"/>
<path d="M82.5107 56.6916C81.058 56.6946 79.6512 57.2029 78.5299 58.1298C77.4086 59.0568 76.642 60.345 76.3608 61.7754C76.0795 63.2058 76.3009 64.6898 76.9873 65.9747C77.6736 67.2597 78.7826 68.2661 80.1252 68.8228C81.4679 69.3794 82.9613 69.4519 84.3511 69.0278C85.741 68.6036 86.9415 67.7091 87.7481 66.4966C88.5547 65.284 88.9177 63.8284 88.7752 62.3775C88.6326 60.9266 87.9934 59.5701 86.9664 58.539C86.381 57.9524 85.6862 57.4873 84.9217 57.1704C84.1572 56.8534 83.3379 56.6907 82.5107 56.6916ZM82.5107 50.3652C85.0028 50.3652 87.4389 51.1069 89.511 52.4964C91.583 53.8859 93.198 55.8609 94.1517 58.1715C95.1054 60.4822 95.3549 63.0247 94.8687 65.4777C94.3825 67.9307 93.1825 70.1839 91.4203 71.9524C89.6582 73.7209 87.4131 74.9252 84.9689 75.4131C82.5247 75.9011 79.9913 75.6507 77.6889 74.6936C75.3865 73.7365 73.4186 72.1156 72.0341 70.0361C70.6496 67.9566 69.9106 65.5117 69.9106 63.0107C69.9126 59.6575 71.2407 56.4423 73.6033 54.0712C75.9658 51.7001 79.1696 50.3672 82.5107 50.3652V50.3652Z" fill="#564079"/>
<path d="M105.885 22.3633H180.39C180.797 22.3623 181.2 22.4421 181.576 22.5979C181.953 22.7538 182.294 22.9827 182.582 23.2715C182.87 23.5603 183.098 23.9033 183.253 24.2809C183.409 24.6584 183.488 25.063 183.487 25.4715V31.4167C183.488 31.8251 183.409 32.2297 183.253 32.6073C183.098 32.9848 182.87 33.3279 182.582 33.6167C182.294 33.9055 181.953 34.1344 181.576 34.2902C181.2 34.4461 180.797 34.5258 180.39 34.5249H105.885C105.478 34.5258 105.074 34.4462 104.698 34.2904C104.321 34.1346 103.979 33.9058 103.69 33.6171C103.402 33.3284 103.173 32.9854 103.017 32.6078C102.861 32.2302 102.781 31.8255 102.781 31.4167V25.4862C102.779 25.0761 102.858 24.6698 103.013 24.2905C103.168 23.9113 103.397 23.5665 103.685 23.2762C103.974 22.9859 104.317 22.7559 104.694 22.5992C105.072 22.4425 105.477 22.3623 105.885 22.3633V22.3633Z" fill="#564079"/>
<path d="M111.495 36.3867H180.39C180.797 36.3858 181.2 36.4655 181.576 36.6214C181.952 36.7772 182.294 37.0061 182.582 37.2949C182.869 37.5837 183.098 37.9268 183.253 38.3043C183.408 38.6819 183.488 39.0865 183.487 39.4949V45.4401C183.488 45.8486 183.408 46.2532 183.253 46.6307C183.098 47.0083 182.869 47.3513 182.582 47.6401C182.294 47.9289 181.952 48.1578 181.576 48.3137C181.2 48.4695 180.797 48.5493 180.39 48.5483H111.495C111.088 48.5493 110.684 48.4695 110.308 48.3137C109.932 48.1578 109.59 47.9289 109.302 47.6401C109.015 47.3513 108.787 47.0083 108.631 46.6307C108.476 46.2532 108.397 45.8486 108.397 45.4401V39.4949C108.397 39.0865 108.476 38.6819 108.631 38.3043C108.787 37.9268 109.015 37.5837 109.302 37.2949C109.59 37.0061 109.932 36.7772 110.308 36.6214C110.684 36.4655 111.088 36.3858 111.495 36.3867V36.3867Z" fill="#42D3AD"/>
<path d="M180.419 50.418H121.107C119.397 50.418 118.01 51.8096 118.01 53.5262V59.4714C118.01 61.188 119.397 62.5796 121.107 62.5796H180.419C182.129 62.5796 183.516 61.188 183.516 59.4714V53.5262C183.516 51.8096 182.129 50.418 180.419 50.418Z" fill="#564079"/>
<path d="M105.885 8.33204H151.778C152.6 8.33204 153.387 8.65957 153.968 9.24247C154.549 9.82537 154.875 10.6159 154.875 11.4402V17.4221C154.876 17.8302 154.797 18.2345 154.641 18.6116C154.486 18.9888 154.258 19.3313 153.97 19.6195C153.682 19.9078 153.34 20.136 152.964 20.291C152.588 20.4461 152.185 20.5249 151.778 20.523H105.885C105.478 20.5249 105.074 20.4462 104.698 20.2912C104.321 20.1362 103.979 19.9081 103.691 19.62C103.402 19.3318 103.173 18.9894 103.017 18.6122C102.861 18.235 102.78 17.8306 102.78 17.4221V11.4696C102.777 11.0583 102.854 10.6504 103.008 10.2694C103.163 9.88843 103.391 9.542 103.68 9.25017C103.968 8.95833 104.312 8.72687 104.691 8.56927C105.069 8.41167 105.475 8.33105 105.885 8.33204V8.33204Z" fill="#42D3AD"/>
<path d="M3.79862 115.205C3.35991 115.228 2.92126 115.158 2.5111 115C2.10094 114.843 1.72844 114.6 1.4178 114.288C1.10716 113.976 0.865304 113.602 0.707936 113.191C0.550569 112.779 0.481211 112.339 0.50435 111.899V96.5042C0.492901 96.211 0.545103 95.9189 0.657357 95.648C0.769611 95.3771 0.93922 95.1339 1.15443 94.9354C1.37856 94.726 1.64174 94.5631 1.92881 94.4562C2.21587 94.3493 2.52117 94.3004 2.82714 94.3123C3.12184 94.3028 3.41539 94.3531 3.69026 94.4601C3.96513 94.5672 4.21565 94.7289 4.42681 94.9354C4.6384 95.1364 4.8051 95.3801 4.9159 95.6506C5.0267 95.921 5.07909 96.2119 5.0696 96.5042V109.479C5.03936 109.686 5.05748 109.898 5.12254 110.096C5.1876 110.295 5.29779 110.476 5.44445 110.624C5.5911 110.773 5.77018 110.885 5.96753 110.953C6.16489 111.02 6.37511 111.04 6.58159 111.012H11.103C11.3863 110.995 11.67 111.036 11.9367 111.133C12.2034 111.231 12.4476 111.381 12.6541 111.577C12.8606 111.772 13.0251 112.008 13.1376 112.269C13.25 112.531 13.308 112.812 13.308 113.097C13.308 113.382 13.25 113.664 13.1376 113.925C13.0251 114.187 12.8606 114.422 12.6541 114.618C12.4476 114.813 12.2034 114.964 11.9367 115.061C11.67 115.158 11.3863 115.2 11.103 115.183L3.79862 115.205Z" fill="#564079"/>
<path d="M25.1348 105.895C25.2269 105.891 25.318 105.874 25.405 105.844C25.5219 105.844 25.5876 105.69 25.5876 105.477C25.5593 105.186 25.4589 104.907 25.2956 104.665C25.1323 104.423 24.9113 104.226 24.6527 104.092C23.9318 103.64 23.0915 103.417 22.2422 103.454C21.3372 103.412 20.4415 103.653 19.6784 104.143C19.021 104.597 18.6923 105.067 18.6923 105.536C18.6923 105.778 18.8311 105.895 19.1087 105.895H25.1348ZM22.4979 115.711C20.3632 115.781 18.2792 115.049 16.6544 113.658C15.8651 112.947 15.2443 112.068 14.8374 111.085C14.4304 110.102 14.2476 109.04 14.3023 107.977C14.2471 106.891 14.4245 105.805 14.8227 104.793C15.2208 103.782 15.8305 102.868 16.6105 102.112C17.9707 100.977 19.6276 100.257 21.3837 100.04C23.1399 99.8231 24.9212 100.117 26.5153 100.888C27.5308 101.432 28.3774 102.246 28.9623 103.241C29.49 104.152 29.7696 105.186 29.773 106.24C29.773 108.006 28.9915 108.886 27.4429 108.886H19.0502C18.7799 108.886 18.6485 109.054 18.6485 109.392C18.6619 109.793 18.7912 110.182 19.0207 110.512C19.2502 110.841 19.57 111.096 19.9413 111.246C20.8432 111.716 21.8473 111.953 22.8631 111.935C23.5493 111.933 24.2321 111.839 24.8937 111.657C25.5339 111.483 26.1377 111.195 26.676 110.807C26.9836 110.581 27.3541 110.458 27.7351 110.455C27.9773 110.453 28.2172 110.501 28.4397 110.597C28.6622 110.693 28.8625 110.834 29.028 111.012C29.2002 111.188 29.336 111.396 29.4275 111.625C29.519 111.854 29.5645 112.099 29.5612 112.346C29.5398 112.689 29.4413 113.023 29.273 113.323C29.1048 113.622 28.8712 113.88 28.5897 114.076C27.7996 114.665 26.8931 115.077 25.931 115.286C24.8098 115.576 23.6558 115.719 22.4979 115.711V115.711Z" fill="#564079"/>
<path d="M40.4304 111.599C40.9169 111.62 41.4019 111.532 41.8505 111.342C42.299 111.152 42.6997 110.864 43.0235 110.499C43.6692 109.741 44.0104 108.769 43.9803 107.772C44.0248 106.784 43.6812 105.818 43.0235 105.082C42.3252 104.426 41.4048 104.061 40.4487 104.061C39.4925 104.061 38.5721 104.426 37.8739 105.082C37.5365 105.44 37.2746 105.863 37.104 106.325C36.9333 106.788 36.8573 107.28 36.8805 107.772C36.8495 108.776 37.2053 109.752 37.8739 110.499C38.1943 110.858 38.5892 111.143 39.0308 111.333C39.4725 111.523 39.9502 111.614 40.4304 111.599V111.599ZM40.0798 115.711C39.0644 115.753 38.0514 115.583 37.1047 115.212C36.1581 114.841 35.2983 114.277 34.5796 113.556C33.8625 112.781 33.307 111.871 32.9457 110.877C32.5845 109.884 32.4247 108.828 32.4759 107.772C32.4218 106.73 32.5755 105.687 32.9279 104.705C33.2804 103.724 33.8245 102.822 34.5284 102.054C35.2334 101.346 36.0771 100.792 37.0062 100.427C37.9353 100.062 38.9296 99.8951 39.9264 99.9356C40.6957 99.9283 41.4588 100.073 42.172 100.363C42.8852 100.652 43.5345 101.08 44.0826 101.622C44.2238 101.209 44.4925 100.852 44.8496 100.603C45.2283 100.325 45.688 100.18 46.1571 100.192C46.7615 100.165 47.3522 100.378 47.8005 100.786C48.0028 100.957 48.1652 101.17 48.2763 101.411C48.3873 101.651 48.4444 101.914 48.4433 102.179V113.732C48.4503 114.003 48.3962 114.273 48.2849 114.52C48.1736 114.768 48.008 114.987 47.8005 115.161C47.3399 115.543 46.7539 115.739 46.1571 115.711C45.6928 115.762 45.2261 115.641 44.8443 115.371C44.4626 115.101 44.1918 114.701 44.0826 114.245C42.9832 115.228 41.5515 115.752 40.0798 115.711V115.711Z" fill="#564079"/>
<path d="M65.1191 115.711C64.5341 115.734 63.9616 115.538 63.5121 115.161C63.3077 114.985 63.1452 114.765 63.0365 114.518C62.9278 114.271 62.8757 114.002 62.884 113.732V107.523C62.9298 107.04 62.8798 106.553 62.7369 106.09C62.594 105.627 62.3609 105.197 62.0513 104.825C61.7798 104.56 61.4586 104.351 61.1062 104.212C60.7539 104.072 60.3775 104.004 59.9987 104.011C59.6106 103.999 59.2241 104.065 58.8616 104.205C58.4992 104.345 58.1681 104.555 57.8878 104.825C57.351 105.325 56.9898 105.986 56.8578 106.709V113.519C56.8656 113.796 56.812 114.071 56.7008 114.325C56.5897 114.578 56.4237 114.804 56.215 114.985C55.7969 115.375 55.244 115.585 54.6738 115.572C54.0805 115.589 53.5014 115.388 53.0449 115.007C52.8371 114.835 52.6708 114.617 52.5582 114.371C52.4457 114.125 52.3898 113.856 52.3948 113.585V102.186C52.393 101.922 52.4482 101.661 52.5566 101.42C52.6651 101.18 52.8242 100.966 53.023 100.793C53.4749 100.386 54.0674 100.173 54.6738 100.199C55.1631 100.181 55.6435 100.333 56.0324 100.632C56.396 100.909 56.6642 101.294 56.7994 101.731C57.3005 101.121 57.94 100.64 58.6644 100.329C59.3888 100.018 60.177 99.8853 60.9629 99.9428C62.6586 99.8723 64.3131 100.479 65.5647 101.629C66.7528 102.743 67.3469 104.522 67.3469 106.966V113.842C67.3509 114.101 67.295 114.358 67.1835 114.592C67.0719 114.826 66.9079 115.031 66.7042 115.191C66.2559 115.551 65.6928 115.736 65.1191 115.711V115.711Z" fill="#564079"/>
<path d="M76.6237 111.988H78.5958C79.401 112.04 80.2078 111.919 80.9632 111.635C81.7186 111.351 82.4055 110.909 82.9785 110.339C84.0472 109.053 84.5716 107.397 84.4394 105.728C84.3955 103.69 83.8696 102.146 82.8616 101.095C82.2795 100.542 81.5894 100.117 80.835 99.8456C80.0806 99.5743 79.2784 99.463 78.479 99.5189H76.5506C76.379 99.4944 76.204 99.5103 76.0396 99.5654C75.8752 99.6205 75.7257 99.7133 75.6032 99.8363C75.4806 99.9593 75.3882 100.109 75.3333 100.274C75.2784 100.439 75.2626 100.615 75.2869 100.787V110.705C75.2584 110.886 75.2739 111.07 75.332 111.243C75.3901 111.416 75.4891 111.572 75.6205 111.698C75.7519 111.824 75.9118 111.917 76.0865 111.967C76.2612 112.018 76.4455 112.025 76.6237 111.988V111.988ZM74.2424 116.057C73.3201 116.103 72.4168 115.782 71.7297 115.163C71.4155 114.858 71.1696 114.491 71.0084 114.084C70.8471 113.677 70.7743 113.24 70.7947 112.802V98.6025C70.7701 98.1781 70.8333 97.7532 70.9804 97.3545C71.1275 96.9558 71.3553 96.592 71.6494 96.286C71.9553 96.0023 72.3142 95.7825 72.7054 95.639C73.0966 95.4956 73.5123 95.4314 73.9283 95.4503H78.552C80.5291 95.3913 82.4868 95.8566 84.2275 96.7992C85.7419 97.6544 86.9812 98.9261 87.7994 100.465C88.6447 102.09 89.0716 103.902 89.0411 105.735C89.0782 107.612 88.6436 109.467 87.7775 111.131C86.9807 112.643 85.7824 113.904 84.3152 114.775C82.8481 115.646 81.1693 116.092 79.4651 116.064L74.2424 116.057Z" fill="#42D3AD"/>
<path d="M94.8116 98.4775C94.1383 98.4861 93.4864 98.2401 92.9855 97.7884C92.7458 97.5659 92.5565 97.2944 92.4305 96.9921C92.3045 96.6898 92.2447 96.3639 92.2551 96.0364C92.2522 95.7196 92.3157 95.4059 92.4416 95.1154C92.5674 94.8249 92.7527 94.5642 92.9855 94.3503C93.4768 93.8781 94.1313 93.6153 94.8116 93.6172C95.1367 93.6157 95.4588 93.6799 95.7587 93.8058C96.0586 93.9318 96.3302 94.1169 96.5574 94.3503C96.7905 94.5639 96.9761 94.8246 97.102 95.1151C97.2278 95.4057 97.2912 95.7196 97.2878 96.0364C97.2987 96.3639 97.2391 96.69 97.113 96.9924C96.987 97.2947 96.7974 97.5662 96.5574 97.7884C96.0884 98.2397 95.4612 98.4872 94.8116 98.4775ZM94.8116 116.54C94.2231 116.556 93.6482 116.361 93.19 115.99C92.9745 115.814 92.8029 115.59 92.6887 115.335C92.5746 115.081 92.5212 114.803 92.5326 114.524V102.979C92.5308 102.715 92.586 102.453 92.6944 102.213C92.8029 101.972 92.962 101.759 93.1608 101.586C93.6126 101.179 94.2052 100.966 94.8116 100.992C95.1046 100.976 95.3977 101.02 95.6729 101.122C95.9481 101.224 96.1994 101.382 96.4113 101.586C96.6044 101.776 96.7561 102.005 96.8567 102.257C96.9573 102.51 97.0046 102.78 96.9956 103.052V114.502C97.0039 114.779 96.9506 115.055 96.8393 115.308C96.7281 115.562 96.5619 115.788 96.3528 115.969C95.9324 116.353 95.3798 116.558 94.8116 116.54V116.54Z" fill="#42D3AD"/>
<path d="M106.52 116.54C104.53 116.62 102.558 116.127 100.837 115.118C100.554 114.939 100.324 114.685 100.173 114.385C100.046 114.119 99.9789 113.829 99.9756 113.535C99.9787 112.959 100.186 112.403 100.56 111.966C100.728 111.737 100.949 111.551 101.203 111.423C101.457 111.296 101.737 111.231 102.021 111.233C102.304 111.235 102.582 111.305 102.832 111.438C103.499 111.747 104.193 111.993 104.906 112.171C105.604 112.345 106.32 112.438 107.039 112.45C108.295 112.45 108.923 112.156 108.923 111.577C108.92 111.406 108.878 111.237 108.799 111.085C108.72 110.932 108.608 110.8 108.471 110.698C107.818 110.335 107.083 110.148 106.338 110.155C105.892 110.155 105.322 110.053 104.636 109.95C103.929 109.849 103.239 109.655 102.583 109.371C101.917 109.088 101.331 108.642 100.881 108.073C100.392 107.393 100.149 106.565 100.195 105.727C100.167 105.03 100.309 104.336 100.609 103.706C100.91 103.076 101.359 102.529 101.919 102.114C103.272 101.171 104.897 100.704 106.542 100.787C107.607 100.78 108.669 100.901 109.705 101.146C110.539 101.298 111.318 101.67 111.962 102.223C112.171 102.398 112.341 102.614 112.462 102.857C112.584 103.101 112.653 103.367 112.667 103.639C112.681 103.911 112.638 104.183 112.542 104.438C112.446 104.693 112.298 104.925 112.108 105.119C111.93 105.318 111.711 105.475 111.466 105.58C111.222 105.685 110.957 105.735 110.691 105.727C110.394 105.726 110.102 105.656 109.837 105.522C109.363 105.224 108.837 105.018 108.288 104.914C107.662 104.776 107.023 104.707 106.382 104.709C105.103 104.709 104.46 104.98 104.46 105.522C104.469 105.651 104.508 105.776 104.574 105.887C104.64 105.998 104.731 106.092 104.84 106.16C105.385 106.433 105.978 106.598 106.586 106.644C107.166 106.707 107.823 106.803 108.558 106.93C109.312 107.038 110.048 107.242 110.75 107.538C111.447 107.834 112.051 108.316 112.495 108.931C113.014 109.712 113.27 110.64 113.226 111.577C113.249 112.293 113.094 113.002 112.775 113.642C112.457 114.282 111.984 114.832 111.4 115.243C109.956 116.194 108.244 116.649 106.52 116.54V116.54Z" fill="#42D3AD"/>
<path d="M123.941 112.427C124.416 112.447 124.888 112.358 125.324 112.167C125.759 111.977 126.145 111.69 126.454 111.328C127.095 110.567 127.433 109.596 127.404 108.601C127.447 107.614 127.107 106.65 126.454 105.91C126.133 105.569 125.742 105.301 125.309 105.126C124.875 104.95 124.409 104.87 123.941 104.891C123.483 104.873 123.027 104.955 122.603 105.131C122.179 105.307 121.799 105.573 121.487 105.91C120.843 106.653 120.508 107.617 120.552 108.601C120.522 109.594 120.854 110.564 121.487 111.328C121.787 111.686 122.163 111.97 122.588 112.161C123.013 112.351 123.476 112.443 123.941 112.427V112.427ZM124.299 116.54C122.921 116.579 121.58 116.085 120.552 115.162V121.385C120.559 121.662 120.506 121.936 120.396 122.189C120.287 122.443 120.123 122.669 119.917 122.852C119.497 123.238 118.945 123.446 118.375 123.431C117.781 123.448 117.2 123.25 116.739 122.874C116.531 122.701 116.365 122.483 116.253 122.237C116.14 121.991 116.084 121.722 116.089 121.451V103.029C116.089 102.766 116.145 102.505 116.253 102.265C116.361 102.024 116.52 101.81 116.717 101.637C117.172 101.229 117.767 101.016 118.375 101.043C118.845 101.03 119.305 101.174 119.683 101.453C120.042 101.701 120.311 102.058 120.45 102.472C120.972 101.936 121.596 101.51 122.284 101.221C122.973 100.931 123.713 100.783 124.46 100.786C125.448 100.742 126.435 100.908 127.355 101.273C128.275 101.638 129.108 102.194 129.8 102.905C131.196 104.469 131.918 106.525 131.808 108.623C131.912 110.743 131.183 112.82 129.778 114.407C129.066 115.13 128.21 115.694 127.266 116.062C126.322 116.43 125.311 116.593 124.299 116.54V116.54Z" fill="#42D3AD"/>
<path d="M142.443 112.427C142.929 112.45 143.413 112.363 143.861 112.172C144.308 111.982 144.707 111.693 145.029 111.328C145.68 110.572 146.024 109.599 145.993 108.601C146.038 107.611 145.691 106.644 145.029 105.91C144.334 105.264 143.42 104.904 142.472 104.904C141.524 104.904 140.611 105.264 139.916 105.91C139.579 106.269 139.317 106.692 139.146 107.154C138.975 107.616 138.899 108.108 138.923 108.601C138.892 109.604 139.247 110.581 139.916 111.328C140.233 111.684 140.623 111.966 141.059 112.156C141.496 112.346 141.968 112.438 142.443 112.427V112.427ZM142.085 116.54C141.07 116.58 140.057 116.409 139.111 116.038C138.165 115.668 137.305 115.105 136.585 114.385C135.869 113.61 135.315 112.699 134.955 111.705C134.595 110.712 134.436 109.656 134.489 108.601C134.433 107.558 134.586 106.515 134.938 105.533C135.291 104.551 135.836 103.65 136.541 102.883C137.245 102.173 138.089 101.619 139.018 101.254C139.948 100.889 140.942 100.722 141.939 100.764C142.708 100.757 143.472 100.902 144.185 101.191C144.898 101.481 145.547 101.908 146.095 102.45C146.222 102.04 146.478 101.682 146.826 101.431C147.207 101.152 147.669 101.008 148.141 101.021C148.745 100.993 149.336 101.207 149.784 101.614C149.985 101.787 150.146 102 150.257 102.24C150.368 102.481 150.426 102.742 150.427 103.007V114.553C150.437 114.83 150.385 115.106 150.274 115.36C150.162 115.614 149.995 115.84 149.784 116.019C149.323 116.401 148.738 116.597 148.141 116.569C147.676 116.621 147.209 116.501 146.827 116.231C146.444 115.961 146.174 115.559 146.066 115.103C144.968 116.069 143.545 116.582 142.085 116.54V116.54Z" fill="#42D3AD"/>
<path d="M160.734 116.54C159.416 116.588 158.128 116.132 157.133 115.264C156.183 114.421 155.716 113.116 155.716 111.35V105.852C155.725 105.783 155.719 105.713 155.697 105.647C155.675 105.581 155.638 105.522 155.59 105.472C155.541 105.423 155.481 105.386 155.415 105.364C155.35 105.342 155.28 105.336 155.212 105.346H154.481C154.226 105.366 153.97 105.326 153.733 105.229C153.496 105.132 153.284 104.982 153.115 104.789C152.801 104.383 152.638 103.88 152.655 103.367C152.641 102.84 152.803 102.324 153.115 101.901C153.281 101.702 153.491 101.546 153.728 101.445C153.966 101.344 154.224 101.302 154.481 101.321H155.212C155.281 101.33 155.352 101.323 155.418 101.299C155.484 101.276 155.544 101.238 155.593 101.187C155.642 101.137 155.678 101.076 155.699 101.009C155.721 100.941 155.726 100.87 155.716 100.801V97.0329C155.71 96.7598 155.761 96.4886 155.866 96.2362C155.97 95.9839 156.125 95.7559 156.322 95.5668C156.528 95.3624 156.774 95.2024 157.044 95.0965C157.314 94.9907 157.603 94.9412 157.892 94.951C158.48 94.9274 159.054 95.1352 159.492 95.5302C159.696 95.7156 159.858 95.9419 159.969 96.1945C160.08 96.4471 160.136 96.7203 160.135 96.9963V100.764C160.135 101.109 160.295 101.285 160.631 101.285H162.516C162.788 101.275 163.059 101.324 163.311 101.428C163.563 101.531 163.79 101.687 163.977 101.886C164.357 102.278 164.567 102.805 164.561 103.352C164.568 103.617 164.52 103.88 164.419 104.125C164.318 104.37 164.168 104.591 163.977 104.774C163.777 104.962 163.541 105.108 163.284 105.204C163.027 105.299 162.753 105.343 162.479 105.331H160.668C160.6 105.321 160.53 105.327 160.465 105.349C160.399 105.371 160.34 105.408 160.292 105.458C160.243 105.507 160.207 105.567 160.186 105.633C160.165 105.699 160.16 105.769 160.171 105.837V110.624C160.122 111.075 160.238 111.529 160.5 111.9C160.606 112.014 160.735 112.105 160.878 112.166C161.022 112.226 161.177 112.256 161.333 112.251C161.606 112.23 161.877 112.189 162.143 112.127C162.383 112.066 162.627 112.024 162.874 112.002C163.132 111.999 163.388 112.053 163.624 112.159C163.86 112.266 164.07 112.422 164.24 112.618C164.571 112.979 164.768 113.444 164.799 113.933C164.829 114.423 164.691 114.909 164.408 115.308C164.12 115.71 163.701 115.998 163.224 116.122C162.806 116.253 162.379 116.353 161.946 116.423C161.546 116.494 161.14 116.534 160.734 116.54V116.54Z" fill="#42D3AD"/>
<path d="M174.546 116.539C173.159 116.545 171.791 116.216 170.558 115.579C169.331 114.938 168.305 113.969 167.592 112.779C166.823 111.445 166.441 109.921 166.49 108.38C166.453 107.342 166.636 106.308 167.028 105.346C167.419 104.384 168.01 103.517 168.761 102.802C170.351 101.39 172.425 100.651 174.546 100.742C175.449 100.741 176.348 100.844 177.227 101.05C178.071 101.235 178.858 101.623 179.521 102.179C179.757 102.364 179.947 102.602 180.074 102.875C180.201 103.148 180.261 103.447 180.251 103.747C180.244 104.292 180.036 104.814 179.667 105.214C179.49 105.429 179.267 105.602 179.013 105.718C178.76 105.833 178.484 105.889 178.206 105.881C177.846 105.885 177.494 105.777 177.198 105.573C176.771 105.336 176.317 105.151 175.846 105.023C175.427 104.91 174.995 104.856 174.561 104.862C173.556 104.817 172.574 105.166 171.822 105.837C171.466 106.163 171.186 106.564 171.002 107.012C170.818 107.459 170.734 107.941 170.755 108.424C170.725 108.969 170.813 109.514 171.015 110.021C171.217 110.527 171.527 110.983 171.924 111.357C172.673 112.038 173.652 112.41 174.663 112.398C175.899 112.375 177.085 111.903 178.001 111.071C178.329 110.792 178.74 110.629 179.17 110.609C179.436 110.608 179.699 110.668 179.94 110.784C180.18 110.899 180.391 111.067 180.558 111.276C180.94 111.69 181.15 112.236 181.142 112.801C181.135 113.068 181.086 113.333 180.996 113.585C180.879 113.905 180.686 114.192 180.434 114.421C179.574 115.143 178.581 115.689 177.512 116.026C176.555 116.346 175.555 116.519 174.546 116.539V116.539Z" fill="#42D3AD"/>
<path d="M186.38 116.54C185.786 116.559 185.205 116.364 184.743 115.99C184.53 115.812 184.36 115.587 184.248 115.333C184.135 115.079 184.082 114.802 184.093 114.524V95.5961C184.09 95.3309 184.145 95.0683 184.253 94.8265C184.362 94.5847 184.522 94.3695 184.721 94.1959C185.179 93.794 185.772 93.5841 186.38 93.6095C186.957 93.5904 187.519 93.8011 187.943 94.1959C188.144 94.3818 188.303 94.609 188.408 94.8619C188.514 95.1149 188.565 95.3878 188.556 95.662V102.458C189.035 101.909 189.643 101.488 190.324 101.233C191.082 100.923 191.894 100.766 192.712 100.771C193.55 100.735 194.386 100.866 195.174 101.155C195.961 101.444 196.683 101.887 197.3 102.458C198.463 103.572 199.045 105.351 199.045 107.794V114.671C199.049 114.93 198.993 115.187 198.882 115.421C198.77 115.655 198.606 115.86 198.403 116.019C197.954 116.379 197.392 116.566 196.818 116.547C196.233 116.57 195.66 116.374 195.211 115.997C195.003 115.816 194.839 115.59 194.73 115.336C194.621 115.082 194.571 114.807 194.582 114.531V108.322C194.628 107.84 194.578 107.353 194.435 106.89C194.292 106.426 194.059 105.996 193.75 105.624C193.479 105.358 193.158 105.149 192.806 105.009C192.453 104.869 192.076 104.802 191.697 104.811C191.311 104.798 190.926 104.867 190.568 105.012C190.209 105.157 189.885 105.376 189.615 105.654C189.102 106.164 188.736 106.805 188.556 107.508V114.48C188.565 114.757 188.511 115.032 188.4 115.286C188.289 115.54 188.123 115.765 187.913 115.946C187.498 116.336 186.948 116.549 186.38 116.54Z" fill="#42D3AD"/>
<path d="M212.777 106.725C212.872 106.721 212.965 106.704 213.055 106.673C213.172 106.673 213.237 106.519 213.237 106.307C213.207 106.016 213.105 105.736 212.941 105.495C212.776 105.253 212.554 105.056 212.295 104.921C211.577 104.469 210.739 104.247 209.892 104.284C208.985 104.24 208.086 104.481 207.321 104.973C207.057 105.108 206.831 105.305 206.66 105.548C206.49 105.79 206.381 106.071 206.342 106.365C206.342 106.607 206.481 106.725 206.751 106.725H212.777ZM210.14 116.54C208.005 116.615 205.92 115.882 204.297 114.488C203.508 113.777 202.887 112.897 202.48 111.914C202.073 110.931 201.89 109.87 201.945 108.807C201.884 107.714 202.059 106.622 202.457 105.603C202.856 104.585 203.468 103.665 204.253 102.905C205.613 101.769 207.27 101.05 209.026 100.833C210.782 100.616 212.564 100.91 214.158 101.681C215.173 102.223 216.018 103.038 216.597 104.034C217.128 104.944 217.408 105.979 217.408 107.033C217.408 108.802 216.632 109.684 215.078 109.679H206.685C206.422 109.679 206.291 109.848 206.291 110.185C206.303 110.586 206.431 110.975 206.659 111.304C206.887 111.633 207.206 111.889 207.576 112.039C208.479 112.505 209.483 112.739 210.498 112.721C211.184 112.721 211.867 112.629 212.529 112.45C213.166 112.275 213.767 111.987 214.304 111.6C214.614 111.374 214.987 111.251 215.37 111.248C215.611 111.246 215.85 111.295 216.071 111.391C216.292 111.487 216.492 111.628 216.656 111.805C216.829 111.981 216.966 112.189 217.059 112.418C217.151 112.647 217.198 112.892 217.196 113.139C217.173 113.482 217.074 113.815 216.906 114.115C216.738 114.414 216.505 114.672 216.225 114.869C215.433 115.455 214.527 115.867 213.566 116.079C212.449 116.38 211.297 116.535 210.14 116.54V116.54Z" fill="#42D3AD"/>
<path d="M222.916 116.385C222.321 116.406 221.739 116.208 221.28 115.828C221.072 115.655 220.906 115.438 220.793 115.192C220.681 114.945 220.625 114.677 220.63 114.406V103.007C220.629 102.743 220.685 102.482 220.793 102.242C220.902 102.002 221.06 101.788 221.258 101.614C221.712 101.206 222.307 100.993 222.916 101.02C223.453 101.005 223.976 101.196 224.377 101.555C224.751 101.893 224.994 102.353 225.063 102.853C225.455 102.257 225.974 101.756 226.583 101.387C227.183 100.982 227.89 100.765 228.613 100.764C229.039 100.763 229.464 100.815 229.877 100.918C230.342 101.043 230.753 101.319 231.046 101.702C231.343 102.091 231.502 102.568 231.499 103.058C231.51 103.382 231.455 103.705 231.337 104.006C231.219 104.307 231.04 104.581 230.812 104.81C230.614 105.027 230.362 105.187 230.082 105.273C229.802 105.36 229.505 105.369 229.22 105.301C228.789 105.195 228.348 105.14 227.905 105.14C227.542 105.13 227.181 105.197 226.846 105.338C226.511 105.478 226.21 105.688 225.962 105.954C225.465 106.496 225.158 107.603 225.063 109.267V114.347C225.071 114.624 225.018 114.9 224.906 115.153C224.795 115.407 224.629 115.632 224.421 115.814C224.01 116.189 223.472 116.393 222.916 116.385V116.385Z" fill="#42D3AD"/>
</svg>
