<svg width="94" height="85" viewBox="0 0 94 85" fill="none" xmlns="http://www.w3.org/2000/svg">
<path d="M0.244141 15.6058C0.480071 14.6829 0.674366 13.7462 0.938053 12.8302C3.08918 6.23802 7.55104 2.02598 14.3444 0.735307C21.1378 -0.555369 26.8348 1.68596 31.1857 7.02908C31.7824 7.72299 32.3237 8.22955 33.2674 8.0422C34.003 7.90342 34.2458 8.23649 34.1279 8.9304C34.114 9.05028 34.114 9.17136 34.1279 9.29124C34.1973 9.89495 34.1279 10.3876 33.2397 10.2141C33.7633 11.3781 34.1768 12.5884 34.4748 13.8294C34.5859 14.3568 34.9744 14.1764 35.2659 14.1764C38.5481 14.1764 41.8303 14.1764 45.1125 14.1764H60.5104C63.3346 14.1764 64.7155 15.5642 64.7225 18.3398C64.7225 20.7755 64.7225 23.1972 64.7225 25.6329C64.6994 25.8668 64.7552 26.1017 64.8809 26.3004C65.0066 26.499 65.1951 26.65 65.4164 26.7292C67.0444 27.5012 68.4407 28.688 69.4651 30.1703C70.4894 31.6526 71.1057 33.3783 71.2522 35.1741C71.3216 35.8056 71.4464 36.0485 72.1473 36.0346C74.3678 35.9791 76.5883 36.0346 78.8019 36.0346C79.1419 36.0346 79.4958 36.0901 79.4334 35.5558C79.3709 35.0215 79.6415 34.8966 80.1273 34.9313C80.4901 34.9521 80.8539 34.9521 81.2167 34.9313C81.4527 34.9313 81.6816 34.9729 81.6261 35.2644C81.4457 36.2011 82.0911 36.0277 82.6115 36.0277H85.6231C86.1034 35.9996 86.5844 36.0675 87.0382 36.2275C87.492 36.3874 87.9093 36.6361 88.2659 36.9591C88.6225 37.2821 88.9112 37.6729 89.1151 38.1087C89.319 38.5445 89.434 39.0165 89.4535 39.4972C89.4822 39.7993 89.4938 40.1028 89.4882 40.4062V68.7664C89.4882 71.4033 88.024 72.8605 85.3733 72.8674H77.8582C76.63 72.8674 76.1373 73.3462 76.1373 74.5536C76.1373 77.2321 76.1373 79.9037 76.1373 82.5822C76.1725 83.0171 76.0701 83.452 75.8448 83.8255C75.6194 84.199 75.2824 84.4923 74.8813 84.6639C74.4519 84.8345 73.9762 84.8487 73.5373 84.7041C73.0984 84.5595 72.7243 84.2653 72.4804 83.8729C69.7602 80.4912 67.0563 77.0957 64.3685 73.6863C64.155 73.3964 63.8724 73.1646 63.5464 73.0118C63.2203 72.8591 62.8613 72.7904 62.5019 72.8119C53.2313 72.8119 43.9606 72.8119 34.6899 72.8119C31.6506 72.8119 30.346 71.5004 30.346 68.4333V52.3207L26.9251 56.5952L22.7269 61.8689C21.9219 62.8751 21.235 63.1457 20.3051 62.8474C19.3753 62.549 18.9659 61.862 18.9659 60.5297C18.9659 58.0039 18.9659 55.485 18.9659 52.9591C18.9659 51.3909 18.5426 50.9815 16.9466 50.9815H9.53563C7.1347 50.9815 5.66361 49.5381 5.65667 47.1372C5.65667 41.8172 5.65667 36.4972 5.65667 31.1772C5.68154 30.939 5.65406 30.6981 5.57615 30.4716C5.49824 30.2451 5.37177 30.0383 5.20561 29.8657C2.67229 27.2962 1.00552 23.999 0.438435 20.4355C0.438435 20.2689 0.480071 20.0538 0.244141 19.9775V15.6058Z" fill="#122436"/>
<path d="M79.2949 27.6653C78.934 28.1233 78.6495 28.5119 78.3442 28.8797C78.0551 29.2975 77.6232 29.5952 77.1298 29.7166C76.6364 29.838 76.1157 29.7748 75.6657 29.5389C74.8954 29.185 74.1391 28.7964 73.4035 28.3801C72.9593 28.1638 72.6064 27.7965 72.4081 27.3439C72.2098 26.8914 72.1789 26.383 72.321 25.9097C72.3829 25.5205 72.4997 25.142 72.668 24.7856C73.2717 23.6754 72.8276 22.7941 72.1684 21.8989C72.0765 21.782 71.9596 21.6871 71.8264 21.6211C71.6931 21.555 71.5468 21.5196 71.3981 21.5173C70.7042 21.4132 70.0103 21.3577 69.3164 21.2467C68.8425 21.1955 68.4019 20.9789 68.0719 20.6349C67.7419 20.291 67.5437 19.8417 67.5122 19.3662C67.422 18.4918 67.3734 17.6106 67.3596 16.7293C67.3226 16.2237 67.4713 15.722 67.7779 15.3182C68.0846 14.9145 68.528 14.6366 69.0249 14.5365C69.3714 14.4202 69.7299 14.3434 70.0936 14.3075C71.3843 14.259 71.9879 13.4124 72.3627 12.3507C72.6333 11.6152 72.1267 10.9629 71.7937 10.4355C71.0998 9.30444 71.0998 7.97906 72.099 7.20188C72.9145 6.571 73.7828 6.0115 74.6942 5.52956C75.0607 5.33119 75.4807 5.25452 75.8936 5.31066C76.3065 5.36679 76.6909 5.55281 76.9911 5.84182C77.3552 6.11894 77.6736 6.45143 77.9348 6.82717C78.6287 7.99294 79.6696 7.90274 80.7729 7.79171C80.8906 7.77329 81.0025 7.72804 81.1 7.65945C81.1975 7.59087 81.2779 7.50078 81.335 7.39617C81.7791 6.82023 82.2023 6.22347 82.6742 5.66834C82.9679 5.274 83.3917 4.99635 83.8705 4.88458C84.3494 4.77281 84.8523 4.83413 85.2902 5.05769C86.0605 5.41159 86.8169 5.80713 87.5524 6.22347C88.011 6.444 88.3729 6.82485 88.5698 7.29407C88.7667 7.7633 88.7849 8.28839 88.621 8.77013C88.5445 9.15726 88.4307 9.53606 88.281 9.9012C88.0651 10.2979 87.9791 10.7523 88.0351 11.2005C88.0912 11.6486 88.2864 12.0679 88.5933 12.3993C88.7137 12.5975 88.8798 12.764 89.0778 12.8847C89.2758 13.0055 89.4999 13.077 89.7313 13.0932C90.3967 13.1422 91.0577 13.2396 91.7089 13.3846C92.1805 13.4438 92.6156 13.6691 92.9361 14.0201C93.2566 14.3711 93.4415 14.8248 93.4576 15.2998C93.5339 16.1464 93.5964 16.9999 93.6103 17.8465C93.6436 18.3369 93.5024 18.8233 93.2115 19.2195C92.9207 19.6157 92.499 19.8963 92.0212 20.0115C91.6206 20.1539 91.2068 20.2562 90.786 20.3168C90.3382 20.3336 89.9061 20.4868 89.5477 20.7559C89.1893 21.025 88.9217 21.3972 88.7806 21.8226C88.6623 22.0421 88.5964 22.2859 88.588 22.5351C88.5795 22.7843 88.6289 23.032 88.7321 23.259C88.9888 23.8072 89.2178 24.3693 89.426 24.9383C89.639 25.4003 89.6755 25.9244 89.5285 26.4115C89.3814 26.8987 89.0611 27.3151 88.628 27.5821C87.934 28.0748 87.2401 28.5327 86.4907 28.9699C86.0779 29.237 85.5839 29.3494 85.0962 29.2872C84.6085 29.2249 84.1586 28.9921 83.8261 28.6299C83.3195 28.1441 82.8616 27.6168 82.3758 27.1102C82.1954 26.9229 82.0427 26.6106 81.7166 26.7563C81.3905 26.902 81.6264 27.1865 81.5639 27.4017C81.4737 27.7209 81.7929 28.2552 81.335 28.3384C80.7066 28.4043 80.0724 28.3903 79.4475 28.2968C79.392 28.2968 79.3642 27.9568 79.2949 27.6653Z" fill="#122436"/>
<path d="M81.5431 31.7612C81.897 32.8784 81.1199 32.6841 80.4051 32.7882C79.281 32.9547 79.4545 32.2886 79.3573 31.5808C79.1908 30.422 79.8916 30.6301 80.5925 30.5538C81.6125 30.4428 81.6819 30.9701 81.5431 31.7612Z" fill="#142638"/>
<path d="M69.1146 9.05558C69.3436 9.97154 69.0383 10.2907 68.0668 10.2491C67.2758 10.2144 66.8802 10.1589 66.9288 9.19437C66.9774 8.38249 67.0051 7.90369 68.0321 8.02166C68.7538 8.10493 69.4546 7.98002 69.1146 9.05558Z" fill="#142637"/>
<path d="M63.8407 8.07607C65.0412 7.71524 64.6942 8.62426 64.7983 9.28347C64.9718 10.4284 64.1946 10.1301 63.5701 10.2341C62.3904 10.4354 62.6611 9.65125 62.5778 8.9851C62.4251 7.90953 63.1051 7.99974 63.8407 8.07607Z" fill="#142537"/>
<path d="M58.2619 9.01931C57.915 7.95763 58.6228 8.09641 59.3236 8.02008C60.2951 7.92293 60.3922 8.3254 60.4547 9.17197C60.5241 10.2475 59.9967 10.1712 59.2403 10.2475C58.1856 10.3447 58.0746 9.85201 58.2619 9.01931Z" fill="#132537"/>
<path d="M54.9597 8.08375C55.9589 7.79925 55.9936 8.34744 56.063 9.1732C56.1462 10.2488 55.605 10.1585 54.8556 10.2488C53.7523 10.3806 53.8772 9.76996 53.8147 9.04135C53.7453 8.09069 54.1547 7.91027 54.9597 8.08375Z" fill="#132537"/>
<path d="M50.5809 10.1644C49.5678 10.4628 49.4915 9.94928 49.436 9.10271C49.3735 8.08959 49.8176 8.07571 50.6156 8.01326C51.6565 7.92999 51.6634 8.40879 51.6912 9.20679C51.7259 10.1158 51.4344 10.435 50.5809 10.1644Z" fill="#132537"/>
<path d="M46.1743 10.1794C45.1889 10.4639 45.1195 9.94347 45.064 9.10384C44.9946 8.07685 45.4526 8.08379 46.2437 8.01439C47.2915 7.92419 47.2776 8.4238 47.3192 9.20792C47.3678 10.1447 47.0139 10.3806 46.1743 10.1794Z" fill="#132536"/>
<path d="M41.7747 10.1669C40.6228 10.5346 40.8032 9.77132 40.7061 9.05659C40.5395 7.91163 41.2196 8.11981 41.9204 8.02267C43.0793 7.85613 42.8642 8.56392 42.9405 9.25783C43.0515 10.2848 42.5311 10.3611 41.7747 10.1669Z" fill="#122436"/>
<path d="M37.4374 10.1726C36.459 10.4571 36.3688 9.97135 36.3133 9.1109C36.2578 8.09085 36.6949 8.08391 37.4929 8.01452C38.5408 7.92431 38.5338 8.41699 38.5755 9.20111C38.6171 10.124 38.3048 10.3946 37.4374 10.1726Z" fill="#122436"/>
<path d="M7.85612 32.1278C9.89724 33.4863 12.1951 34.4121 14.6079 34.848C14.7259 34.848 14.8438 34.9035 14.9618 34.9174C16.4329 35.1325 16.4606 35.1325 16.4676 36.5689C16.4676 37.0754 16.6064 37.3114 17.1615 37.2628C17.3132 37.2385 17.4678 37.2385 17.6195 37.2628C18.5216 37.4224 18.924 37.0963 18.7505 36.1525C18.6048 35.3823 18.8893 35.07 19.7151 34.9729C23.9865 34.4856 27.9213 32.4184 30.7462 29.1776C33.571 25.9367 35.0816 21.7565 34.9811 17.4586C34.9811 16.5634 35.1754 16.3761 36.0498 16.383C44.1616 16.383 52.2804 16.383 60.3922 16.383C62.2172 16.383 62.5641 16.7369 62.5641 18.5757C62.5641 20.7616 62.5641 22.9543 62.5641 25.1402C62.5641 25.6259 62.5225 25.8341 61.9188 25.73C60.5282 25.5776 59.1212 25.704 57.7799 26.1017C56.4387 26.4994 55.1902 27.1604 54.1074 28.0462C53.0246 28.932 52.1292 30.0247 51.4736 31.2604C50.8179 32.4962 50.4152 33.8503 50.2888 35.2435C50.2333 35.9374 50.0043 36.0554 49.3729 36.0554C44.4184 36.0554 39.4638 36.0554 34.5093 36.0554C31.7683 36.0554 30.3805 37.4432 30.3805 40.2189C30.3805 42.9945 30.3805 45.8118 30.3805 48.6083C30.3889 48.7975 30.3525 48.9861 30.2741 49.1585C30.1957 49.331 30.0776 49.4825 29.9295 49.6006C28.5499 51.0548 27.268 52.5986 26.0921 54.222C24.628 56.0054 23.2193 57.8303 21.776 59.6345C21.6303 59.808 21.547 60.0648 21.1723 60.1203V55.2074C21.1723 54.2983 21.1723 53.3824 21.1723 52.4734C21.1834 51.9845 21.0936 51.4987 20.9086 51.0461C20.7237 50.5934 20.4474 50.1838 20.0972 49.8426C19.7469 49.5015 19.3301 49.2362 18.8728 49.0632C18.4155 48.8902 17.9274 48.8133 17.439 48.8372C14.7952 48.8372 12.1514 48.8372 9.50763 48.8372C8.48065 48.8372 7.93246 48.3515 7.92552 47.38C7.84919 42.3284 7.85612 37.3114 7.85612 32.1278Z" fill="#FEFEFE"/>
<path d="M32.525 54.2722V40.047C32.525 38.7008 32.983 38.2359 34.3153 38.2359C39.4225 38.2359 44.5297 38.2359 49.6369 38.2359C50.1989 38.2359 50.4002 38.4232 50.539 38.9298C51.1261 41.1826 52.4439 43.1771 54.2861 44.6007C56.1282 46.0243 58.3905 46.7965 60.7186 46.7965C63.0467 46.7965 65.3091 46.0243 67.1512 44.6007C68.9933 43.1771 70.3112 41.1826 70.8983 38.9298C71.0649 38.333 71.3147 38.2012 71.8837 38.2012C76.3872 38.2012 80.9045 38.2012 85.3803 38.2012C86.7195 38.2012 87.1775 38.68 87.1775 40.0053V68.3655C87.1775 70.2738 86.8722 70.5791 84.9362 70.5791C83.8676 70.5791 82.8059 70.5375 81.7442 70.5791C81.1197 70.5791 81.0017 70.3779 80.9947 69.8019C80.9947 66.943 81.1405 64.0841 80.8768 61.2321C80.5296 57.8449 78.9667 54.6983 76.4776 52.375C73.9884 50.0517 70.7416 48.7091 67.3386 48.596C63.1751 48.5266 58.9492 48.596 54.7579 48.596C52.8768 48.5672 51.0089 48.915 49.2641 49.6189C47.5194 50.3228 45.933 51.3686 44.5985 52.6948C43.264 54.0209 42.2082 55.6006 41.4932 57.3409C40.7783 59.0811 40.4187 60.9468 40.4356 62.8281C40.4356 65.1666 40.4356 67.5051 40.4356 69.8505C40.4356 70.4473 40.2829 70.6346 39.6723 70.6207C37.9098 70.5791 36.1472 70.6207 34.3847 70.6207C32.9969 70.6207 32.5181 70.1211 32.5181 68.7611L32.525 54.2722Z" fill="#FEFEFE"/>
<path d="M69.8851 51.1958C74.6939 52.5837 77.5181 55.8034 78.6006 60.5983C78.7594 61.3676 78.8385 62.1513 78.8366 62.9368C78.8366 65.1226 78.8366 67.3015 78.8366 69.4873C78.8366 70.6739 78.8365 70.7086 77.6777 70.667C76.9142 70.6204 76.156 70.8214 75.5159 71.2402C74.8758 71.659 74.3879 72.2733 74.1249 72.9916C73.9629 73.3847 73.8917 73.8093 73.9167 74.2337V81.9916C73.4803 81.7024 73.1149 81.318 72.8481 80.8675C72.7488 80.2714 72.7046 79.6675 72.7162 79.0633C72.7162 74.997 72.7162 70.9376 72.7162 66.8713C72.7162 66.4549 72.8759 65.9206 72.2513 65.7333C71.6268 65.5459 71.1341 65.8374 71.1272 66.677C71.1272 69.4041 71.1272 72.1381 71.1272 74.8652C71.1272 75.6562 71.1272 76.4403 71.1272 77.2314C71.158 77.4266 71.148 77.626 71.0978 77.8171C71.0476 78.0082 70.9584 78.1868 70.8358 78.3417C69.1704 76.2252 67.5119 74.1019 65.8188 72.0132C65.4685 71.5722 65.0185 71.2208 64.5057 70.9879C63.9929 70.7551 63.4322 70.6475 62.8696 70.6739C56.4648 70.6739 50.06 70.6739 43.6622 70.6739C42.767 70.6739 42.538 70.4172 42.5658 69.5498C42.6282 67.5236 42.6005 65.4835 42.5658 63.4503C42.44 60.1722 43.6148 56.9772 45.8341 54.5613C47.3634 52.9005 49.3468 51.7255 51.5381 51.1819C51.7993 51.3439 51.9995 51.5879 52.1071 51.8759C54.0362 55.7687 55.9999 59.6338 57.922 63.5266C58.0295 63.6764 58.0877 63.8558 58.0886 64.0401C58.4147 62.1805 58.7131 60.3138 59.0393 58.4888C59.0923 58.2395 59.0799 57.9806 59.0033 57.7374C58.9267 57.4942 58.7885 57.275 58.6021 57.101C58.0886 56.5875 57.5682 56.074 57.0616 55.5466C56.9709 55.4766 56.8974 55.3867 56.8469 55.2839C56.7963 55.181 56.77 55.068 56.77 54.9534C56.77 54.8388 56.7963 54.7257 56.8469 54.6228C56.8974 54.52 56.9709 54.4301 57.0616 54.3601C58.0816 53.3192 59.1433 52.2783 60.1564 51.2722C60.2555 51.1553 60.3826 51.0654 60.5257 51.0108C60.6689 50.9563 60.8235 50.9387 60.9753 50.9599C62.2442 51.9941 63.4255 53.1314 64.5073 54.3601C64.8889 54.7417 64.7293 55.1372 64.4032 55.4842C63.9036 56.0185 63.3901 56.532 62.8627 57.0386C62.6592 57.2215 62.5091 57.4562 62.4284 57.7178C62.3478 57.9793 62.3396 58.2577 62.4047 58.5235C62.7239 60.3763 63.0501 62.229 63.3276 64.1581C63.3853 63.7754 63.5224 63.4091 63.7301 63.0825C65.5343 59.4673 67.3523 55.852 69.1496 52.2367C69.2672 51.8152 69.5271 51.4474 69.8851 51.1958Z" fill="#564079"/>
<path d="M16.4742 27.4578V30.5527C16.1689 30.851 15.7803 30.7539 15.4403 30.6914C12.1789 30.168 9.23454 28.4351 7.19366 25.8379C5.15279 23.2408 4.16526 19.9701 4.42782 16.6775C4.69039 13.3849 6.18376 10.3121 8.61044 8.0712C11.0371 5.83033 14.2189 4.58594 17.522 4.58594C20.8251 4.58594 24.0069 5.83033 26.4336 8.0712C28.8603 10.3121 30.3536 13.3849 30.6162 16.6775C30.8788 19.9701 29.8912 23.2408 27.8504 25.8379C25.8095 28.4351 22.8651 30.168 19.6037 30.6914C19.2776 30.74 18.9098 30.8233 18.6808 30.511V27.4717C18.9006 27.2168 19.2126 27.0595 19.5482 27.0345C21.6939 26.5841 23.618 25.4058 24.9944 23.6993C26.3709 21.9928 27.1153 19.863 27.1014 17.6706C27.0875 15.4781 26.3163 13.3579 24.9183 11.669C23.5203 9.98005 21.5815 8.82625 19.4303 8.40299C16.982 7.86848 14.4217 8.32296 12.3071 9.66748C10.1924 11.012 8.69459 13.1376 8.13994 15.5814C7.58528 18.0252 8.01868 20.5891 9.34575 22.7148C10.6728 24.8405 12.786 26.3557 15.2252 26.9304C15.6762 27.0553 16.1619 27.0553 16.4742 27.4578Z" fill="#FEFEFE"/>
<path d="M18.6956 30.5314C20.9119 30.4161 23.0541 29.6952 24.8893 28.4473C26.7245 27.1994 28.1823 25.4722 29.1043 23.4535C31.5191 18.5198 30.964 13.7387 27.432 9.49894C23.9 5.25913 19.23 3.89213 13.9701 5.44649C8.71025 7.00086 5.64317 10.6925 4.86599 16.0842C3.81818 23.3217 9.3556 30.1151 16.4751 30.5522C16.5376 33.085 16.5376 33.085 14.0811 32.5299C11.1228 31.7882 8.45128 30.1847 6.40548 27.9227C4.35967 25.6607 3.03169 22.8421 2.58996 19.8243C2.05983 16.059 2.96922 12.2322 5.13658 9.10786C7.30394 5.98352 10.5698 3.79145 14.2824 2.96923C16.6493 2.44157 19.1082 2.48857 21.4533 3.10629C23.7984 3.724 25.9614 4.89446 27.7612 6.51971C29.5611 8.14495 30.9455 10.1777 31.7985 12.4478C32.6515 14.7179 32.9483 17.1593 32.6641 19.5676C32.2801 22.962 30.7512 26.1243 28.3294 28.5335C25.9076 30.9427 22.7373 32.455 19.341 32.8213C18.7997 32.8838 18.6887 32.7034 18.6887 32.2593C18.6818 31.6833 18.6887 31.1074 18.6956 30.5314Z" fill="#564079"/>
<path d="M68.9555 35.1061C69.2694 36.7859 68.9975 38.5225 68.1853 40.026C67.5757 41.2155 66.6907 42.2422 65.604 43.0205C64.5172 43.7988 63.2603 44.3061 61.9378 44.5003C60.6153 44.6945 59.2656 44.5698 58.001 44.1367C56.7365 43.7037 55.5937 42.9747 54.6679 42.0106C53.7869 41.1038 53.1275 40.0057 52.7411 38.802C52.3547 37.5983 52.2518 36.3215 52.4404 35.0714C53.7797 32.0946 56.2986 30.6998 59.324 30.2141C60.8742 29.9607 62.4631 30.0963 63.948 30.6086C65.4328 31.1209 66.7672 31.9939 67.8314 33.1493C68.3951 33.6731 68.7871 34.3553 68.9555 35.1061Z" fill="#564079"/>
<path d="M16.4748 27.4585C14.3815 27.1944 12.4277 26.2671 10.8994 24.8125C9.37107 23.3578 8.34848 21.4522 7.98133 19.3744C7.05842 14.2048 10.7917 8.89636 15.9613 8.13999C21.5473 7.32118 26.6337 11.0544 27.2513 16.4669C27.5996 18.9555 26.9658 21.4819 25.4842 23.5114C24.0025 25.5409 21.7893 26.9141 19.3129 27.3405L18.6953 27.4932C18.6121 25.2796 18.6121 25.2796 20.7771 25.2796H21.8735L20.8256 23.2742C20.902 22.8648 21.2697 22.7121 21.5196 22.4762C22.3383 21.7991 22.9669 20.9208 23.3437 19.9274C23.7205 18.934 23.8326 17.8597 23.6688 16.8099C23.505 15.7602 23.0711 14.771 22.4097 13.9396C21.7482 13.1082 20.8819 12.4631 19.8958 12.0675C18.5714 11.476 17.0762 11.3901 15.6928 11.8261C14.3093 12.262 13.1336 13.1897 12.3877 14.4338C11.5757 15.6978 11.2564 17.2161 11.4905 18.7002C11.7246 20.1842 12.4958 21.5305 13.6575 22.4832C13.9719 22.6704 14.2418 22.9238 14.4486 23.2256C14.171 23.6906 13.8935 24.1624 13.609 24.6135C13.3245 25.0645 13.3661 25.3074 13.9559 25.2588C14.5457 25.2102 15.0523 25.3004 15.5935 25.2588C16.3291 25.1825 16.572 25.4809 16.4956 26.1817C16.4471 26.6466 16.4818 27.0352 16.4748 27.4585Z" fill="#564079"/>
<path d="M14.4486 23.2447C13.5052 22.7782 12.7068 22.0632 12.1395 21.1768C11.5722 20.2903 11.2573 19.266 11.2288 18.2139C11.1077 17.0568 11.3212 15.8892 11.844 14.8499C12.3667 13.8105 13.1768 12.943 14.1779 12.3503C14.8882 11.8936 15.682 11.5823 16.5134 11.4345C17.3448 11.2867 18.1973 11.3053 19.0214 11.4892C19.8456 11.6732 20.6251 12.0188 21.3147 12.5061C22.0044 12.9933 22.5905 13.6126 23.0392 14.328C24.9683 17.3881 24.0384 21.2116 20.8672 23.2725C20.2191 22.3646 19.6744 21.387 19.2435 20.3581C19.9374 19.5393 20.5619 18.7204 20.4578 17.5408C20.4145 16.9832 20.2125 16.4497 19.8756 16.0033C19.5386 15.5569 19.0809 15.2163 18.5565 15.0219C17.9743 14.8407 17.3507 14.8405 16.7683 15.0215C16.186 15.2024 15.6723 15.5558 15.2951 16.035C14.9348 16.5273 14.7406 17.1215 14.7406 17.7316C14.7406 18.3417 14.9348 18.9359 15.2951 19.4282C15.5796 19.8099 16.1695 20.0527 15.9544 20.6981L14.4486 23.2447Z" fill="#FEFEFE"/>
<path d="M60.9062 51.015C60.5245 50.9317 60.3858 51.2648 60.2123 51.466C59.22 52.4444 58.2624 53.4575 57.2423 54.4082C56.8052 54.8107 56.8676 55.0327 57.2423 55.3866C57.853 55.9279 58.4012 56.5454 58.991 57.1144C59.1265 57.2099 59.2336 57.3404 59.3008 57.4919C59.368 57.6434 59.3928 57.8104 59.3726 57.9749C59.0049 60.0566 58.6787 62.2008 58.1166 64.3658C55.9285 59.9803 53.7404 55.5855 51.5522 51.1815C52.4564 50.93 53.3894 50.797 54.3279 50.786H67.1653C67.5576 50.7332 67.957 50.7835 68.3241 50.9317C68.1772 51.0638 68.002 51.1605 67.812 51.2147C67.622 51.2688 67.4222 51.2788 67.2277 51.2439C65.5276 51.2439 63.8345 51.2439 62.1344 51.2439C61.7145 51.2426 61.2984 51.165 60.9062 51.015Z" fill="#FEFEFE"/>
<path d="M60.9058 51.0151L68.3306 50.9666C68.8581 50.9521 69.3841 51.0296 69.885 51.1955L63.2165 64.6297C62.8071 62.2704 62.4462 60.1539 62.0785 58.0445C62.0466 57.8824 62.0595 57.7148 62.1157 57.5595C62.172 57.4042 62.2694 57.2672 62.3977 57.1632C63.0361 56.5525 63.6328 55.9003 64.2782 55.3104C64.6321 54.9843 64.6182 54.7831 64.2782 54.45C63.1401 53.3189 62.0299 52.1601 60.9058 51.0151Z" fill="#FEFEFE"/>
<path d="M68.9551 35.1043C65.0136 28.8938 57.11 28.6787 52.78 34.6533C52.6689 34.799 52.551 34.9378 52.4399 35.0766C52.7017 33.1206 53.6469 31.3203 55.1082 29.994C56.5695 28.6678 58.4529 27.9011 60.425 27.8297C62.3971 27.7583 64.3309 28.3866 65.8844 29.6036C67.4378 30.8207 68.5108 32.5479 68.9134 34.4798C68.9413 34.6868 68.9552 34.8954 68.9551 35.1043Z" fill="#FEFEFE"/>
<path d="M70.8223 78.342C70.8223 74.2063 70.8107 70.0752 70.7876 65.9487C70.7876 65.5324 70.8847 65.3103 71.3427 65.3658C71.4629 65.3728 71.5834 65.3728 71.7036 65.3658C73.1885 65.3658 72.9734 65.1993 72.9734 66.601C72.9734 71.0328 72.9734 75.4669 72.9734 79.9033C72.9734 80.2294 73.0983 80.5972 72.8555 80.8678L70.8223 78.342Z" fill="#FDFDFD"/>
<path d="M15.9334 20.7006C15.9751 20.2426 15.5379 20.1316 15.3089 19.8818C15.0148 19.5677 14.7886 19.1963 14.6445 18.7908C14.5004 18.3853 14.4415 17.9545 14.4714 17.5252C14.5014 17.0959 14.6195 16.6774 14.8185 16.2958C15.0174 15.9143 15.293 15.5779 15.6278 15.3076C15.9627 15.0373 16.3497 14.839 16.7646 14.725C17.1796 14.6111 17.6136 14.5839 18.0395 14.6452C18.4654 14.7066 18.8741 14.8551 19.2401 15.0815C19.606 15.3079 19.9213 15.6074 20.1663 15.9612C20.4132 16.3055 20.5854 16.6976 20.6718 17.1124C20.7582 17.5272 20.7569 17.9555 20.6681 18.3697C20.5792 18.784 20.4047 19.1751 20.1558 19.518C19.9068 19.8608 19.589 20.1478 19.2226 20.3606C18.5287 19.6667 18.2789 18.6883 17.6127 17.8694C16.9877 18.7729 16.4266 19.7189 15.9334 20.7006Z" fill="#564079"/>
<path d="M82.4453 24.3755C81.3929 24.5868 80.3162 24.6498 79.2464 24.5629C78.8925 24.5629 78.719 24.8127 78.5525 25.0625C78.1222 25.6454 77.6712 26.2213 77.2549 26.8111C77.1887 26.9542 77.0904 27.0799 76.9675 27.1786C76.8446 27.2772 76.7005 27.346 76.5466 27.3796C76.3926 27.4132 76.233 27.4107 76.0802 27.3723C75.9274 27.3338 75.7855 27.2605 75.6658 27.1581C74.5208 26.4642 74.4931 26.5474 74.84 25.2707C74.8448 25.2094 74.8565 25.1489 74.8747 25.0902C75.5687 23.633 75.2911 22.4534 74.3127 21.1002C73.5563 20.0663 72.9248 19.2961 71.6064 19.4071C71.424 19.3904 71.2445 19.3507 71.0721 19.2891C69.5871 19.0879 69.6149 19.0948 69.5732 17.6237C69.5732 16.9298 69.6357 16.4857 70.4545 16.4927C70.7523 16.4447 71.0467 16.3775 71.3358 16.2914C72.6542 16.1318 73.7159 15.6808 73.8963 14.1542C73.9102 14.0308 73.9696 13.917 74.0629 13.835C75.2286 12.7802 74.8608 11.6561 74.2294 10.5111C74.1947 10.4556 74.1739 10.4001 74.1461 10.3446C73.4938 8.88045 73.7783 8.26287 75.298 7.67998C75.645 7.54814 75.8184 7.73549 75.9919 7.92979C76.6164 8.6237 77.234 9.2621 77.8447 9.93519C77.9421 10.0661 78.0789 10.1623 78.235 10.2098C78.3911 10.2572 78.5583 10.2534 78.7121 10.1989C79.6486 9.93096 80.6347 9.88581 81.5918 10.067C82.029 10.1711 82.1955 9.85886 82.3967 9.60906C82.8894 8.99841 83.3682 8.3739 83.8193 7.72856C84.1593 7.24976 84.4507 7.03464 85.0683 7.38854C86.4561 8.15878 86.5741 8.1449 86.0259 9.69927C85.5471 11.0871 85.332 12.2806 86.6296 13.3145C86.7426 13.4176 86.8202 13.5535 86.8516 13.7031C87.157 15.0493 88.184 15.2297 89.322 15.2714C89.8355 15.2714 90.342 15.4032 90.8486 15.4518C90.9093 15.4483 90.9701 15.4582 91.0266 15.4808C91.0831 15.5033 91.134 15.5379 91.1756 15.5823C91.2173 15.6266 91.2488 15.6795 91.2678 15.7373C91.2868 15.7951 91.2929 15.8563 91.2857 15.9167V16.0069C91.5425 17.9221 91.5425 17.9221 89.6273 18.394C89.4572 18.4582 89.2802 18.5024 89.0999 18.5258C88.6606 18.4931 88.2251 18.6281 87.8813 18.9037C87.5375 19.1792 87.3109 19.5748 87.2472 20.0108C87.1602 20.4278 86.9665 20.8151 86.6851 21.1349C86.3533 21.4447 86.1504 21.8682 86.1169 22.3209C86.0835 22.7736 86.2219 23.2223 86.5047 23.5775C86.5949 23.7349 86.6716 23.8997 86.7337 24.0702C87.5109 25.8327 87.497 25.8119 85.8871 26.8458C85.4916 27.0956 85.2626 27.0818 84.9711 26.7417C84.3952 26.0478 83.7915 25.4441 83.1878 24.7988C82.9866 24.5629 82.8131 24.3408 82.4453 24.3755Z" fill="#564079"/>
<path d="M24.052 44.3253C24.3295 45.2551 23.8715 45.38 23.0389 45.4356C22.0049 45.5119 21.9772 45.0539 21.9355 44.242C21.887 43.3052 22.2409 43.1803 23.0666 43.1665C23.8924 43.1526 24.2809 43.4648 24.052 44.3253Z" fill="#192B3C"/>
<path d="M19.9161 44.3824C19.701 44.6391 20.3463 45.3677 19.4304 45.3608C18.7365 45.3608 17.3903 44.5003 17.3486 44.0701C17.8082 43.5725 18.3419 43.1488 18.9308 42.8141C19.4234 42.7725 19.9161 43.5358 19.9161 44.3824Z" fill="#162739"/>
<path d="M17.5361 41.3356C16.6201 41.6132 16.5368 41.1344 16.4605 40.3225C16.3495 39.1914 16.9809 39.3649 17.6818 39.2886C18.6394 39.1775 18.681 39.6147 18.7227 40.3988C18.7782 41.3981 18.3133 41.4813 17.5361 41.3356Z" fill="#132537"/>
<path d="M26.1826 44.3054C25.9605 43.4519 26.2589 43.1952 27.161 43.1674C28.0631 43.1397 28.2435 43.5213 28.2713 44.354C28.299 45.1867 27.9937 45.4226 27.154 45.4296C26.3144 45.4365 25.9536 45.159 26.1826 44.3054Z" fill="#152739"/>
<path d="M48.471 67.9403C48.5057 67.4551 48.5057 66.9682 48.471 66.4831C48.3391 65.5463 48.693 65.3242 49.609 65.3242C50.525 65.3242 50.754 65.5671 50.6915 66.4414C50.6325 67.5648 50.6325 68.6905 50.6915 69.8138C50.6915 70.3828 50.525 70.5077 49.9976 70.5077C48.5196 70.5077 48.5196 70.5077 48.5196 69.0158L48.471 67.9403Z" fill="#FCFCFD"/>
<path d="M80.5021 22.5509C79.8107 22.5743 79.1217 22.4576 78.4766 22.2078C77.8315 21.958 77.2436 21.5802 76.7483 21.0972C76.253 20.6143 75.8606 20.0361 75.5946 19.3975C75.3286 18.7589 75.1946 18.073 75.2006 17.3813C75.1915 16.6761 75.322 15.9761 75.5847 15.3216C75.8473 14.6672 76.237 14.0712 76.7311 13.568C77.2252 13.0649 77.8141 12.6645 78.4637 12.39C79.1133 12.1155 79.8108 11.9724 80.516 11.9688C81.9117 12.008 83.2383 12.5851 84.2185 13.5796C85.1987 14.574 85.7567 15.9087 85.7759 17.3049C85.7759 17.9962 85.6393 18.6806 85.3739 19.3189C85.1085 19.9572 84.7196 20.5367 84.2295 21.0242C83.7395 21.5117 83.1579 21.8976 82.5182 22.1596C81.8785 22.4216 81.1934 22.5546 80.5021 22.5509Z" fill="#122436"/>
<path d="M80.5017 20.4004C80.0917 20.4087 79.6841 20.3349 79.3029 20.1833C78.9218 20.0317 78.5749 19.8053 78.2826 19.5176C77.9903 19.2298 77.7586 18.8864 77.6011 18.5077C77.4435 18.129 77.3633 17.7226 77.3653 17.3125C77.3612 16.4996 77.6743 15.7172 78.2379 15.1316C78.8016 14.5459 79.5714 14.2031 80.3838 14.176C81.2124 14.1665 82.0117 14.4825 82.6098 15.056C83.208 15.6295 83.5573 16.4148 83.5827 17.2431C83.591 17.6536 83.5175 18.0616 83.3666 18.4434C83.2156 18.8252 82.9902 19.1732 82.7035 19.467C82.4168 19.7609 82.0744 19.9947 81.6964 20.155C81.3184 20.3152 80.9123 20.3986 80.5017 20.4004Z" fill="#FEFEFE"/>
</svg>
