<svg width="91" height="91" viewBox="0 0 91 91" fill="none" xmlns="http://www.w3.org/2000/svg">
<path d="M41.9299 90.4867C41.0857 90.0235 40.1293 90.1505 39.2328 90.0011C24.1056 87.4459 12.9408 79.3991 5.73829 65.8609C2.15567 59.0656 0.463012 51.4331 0.837031 43.7604C1.13516 35.1764 3.93459 26.8664 8.89126 19.8518C9.52331 19.0589 9.84468 18.0628 9.79528 17.05C9.60102 14.3453 10.1465 13.3516 13.2322 13.5758C13.5521 13.5893 13.8708 13.5289 14.1637 13.3993C14.4565 13.2698 14.7155 13.0745 14.9207 12.8286C22.423 5.62601 32.2373 1.31853 42.6173 0.672591C52.7759 -0.065498 62.8831 2.67785 71.2744 8.45089C79.6658 14.2239 85.8411 22.6825 88.7833 32.4337C90.0503 36.7894 90.6647 41.309 90.6064 45.8449C90.6957 51.7145 89.529 57.5354 87.1844 62.9171C80.9906 76.9634 70.3737 85.8096 55.4383 89.4183C53.6398 89.8191 51.8183 90.1086 49.9842 90.285C49.7974 90.285 49.5583 90.2028 49.4612 90.4793H48.9307C48.7738 90.3224 48.5795 90.4045 48.4002 90.3821C48.2209 90.3597 48.0341 90.3224 47.8772 90.4793H46.9956C46.8615 90.406 46.7112 90.3676 46.5585 90.3676C46.4058 90.3676 46.2554 90.406 46.1214 90.4793H45.4191C45.2533 90.4053 45.0739 90.3671 44.8924 90.3671C44.7109 90.3671 44.5314 90.4053 44.3656 90.4793H43.6633C43.5064 90.3224 43.3121 90.4045 43.1328 90.3821C42.9535 90.3597 42.7592 90.3224 42.6098 90.4793L41.9299 90.4867Z" fill="#564079"/>
<path d="M44.3506 90.4877C44.4956 90.3585 44.6831 90.2871 44.8773 90.2871C45.0716 90.2871 45.259 90.3585 45.4041 90.4877H44.3506Z" fill="#614D82"/>
<path d="M46.1064 90.4864C46.1611 90.4243 46.2284 90.3747 46.3037 90.3407C46.3791 90.3067 46.4608 90.2891 46.5435 90.2891C46.6262 90.2891 46.7079 90.3067 46.7833 90.3407C46.8586 90.3747 46.9259 90.4243 46.9806 90.4864H46.1064Z" fill="#614D82"/>
<path d="M42.5947 90.4864C42.6993 90.2175 42.9235 90.337 43.1028 90.337C43.17 90.337 43.1924 90.3968 43.1775 90.4267C43.1625 90.4566 43.1775 90.4864 43.1177 90.4864H42.5947Z" fill="#B3A9C3"/>
<path d="M43.1182 90.4876C43.1222 90.4378 43.1222 90.3879 43.1182 90.3381C43.3199 90.3381 43.5291 90.2634 43.6636 90.4876H43.1182Z" fill="#9588AB"/>
<path d="M47.8623 90.4869C47.9968 90.2627 48.1985 90.3076 48.4002 90.3375C48.4451 90.3748 48.46 90.4047 48.4451 90.4421C48.4301 90.4794 48.4077 90.4869 48.3853 90.4869H47.8623Z" fill="#9588AB"/>
<path d="M48.3848 90.4864C48.3848 90.4341 48.3848 90.3818 48.3848 90.337C48.5716 90.337 48.7882 90.2175 48.9003 90.4864H48.3848Z" fill="#B3A9C3"/>
<path d="M11.7969 43.768C11.7969 34.6628 11.7969 25.5576 11.7969 16.4524C11.7969 15.7053 12.0135 15.4961 12.7756 15.4961C29.1082 15.4961 45.4408 15.4961 61.7733 15.4961C62.5205 15.4961 62.8119 15.6605 62.8044 16.4973C62.7596 20.9801 62.8044 25.5078 62.8044 30.0206C62.8044 31.8361 63.4768 32.516 65.2849 32.516C69.8201 32.516 74.3552 32.516 78.8904 32.516C79.5628 32.516 79.7795 32.6655 79.7795 33.3752C79.7795 45.9671 79.7795 58.554 79.7795 71.1359C79.7851 71.6007 79.6174 72.0509 79.3088 72.3986C72.2931 80.9832 63.3424 86.415 52.4116 87.9466C36.2883 90.188 22.9069 84.8609 12.3647 72.4359C12.0207 72.0393 11.8416 71.526 11.8641 71.0014C11.8243 61.9211 11.8019 52.8433 11.7969 43.768Z" fill="#FEFEFE"/>
<path d="M81.7445 68.8261V67.653C81.7445 55.8581 81.7445 44.0632 81.7445 32.2683C81.7608 31.9076 81.6984 31.5477 81.5616 31.2135C81.4249 30.8794 81.217 30.579 80.9525 30.3332C75.578 24.9886 70.2185 19.6291 64.874 14.2547C64.6527 14.0066 64.379 13.8109 64.0728 13.6817C63.7665 13.5525 63.4353 13.493 63.1033 13.5075C48.1604 13.5075 33.205 13.5075 18.2372 13.5075H17.2734C29.0335 2.01647 52.5013 -2.97445 71.2994 10.9374C80.1096 17.4231 86.1014 27.0366 88.044 37.8027C89.9866 48.5689 87.7323 59.6702 81.7445 68.8261Z" fill="#FEFEFE"/>
<path d="M9.675 22.2129C9.78707 23.0497 9.80201 67.6392 9.675 68.603C1.82999 57.5677 -0.72524 38.0972 9.675 22.2129Z" fill="#FEFEFE"/>
<path d="M64.7692 17.2363L78.0759 30.543H77.1868C73.3016 30.543 69.409 30.543 65.5164 30.543C65.0233 30.543 64.7095 30.543 64.7169 29.8631C64.7169 25.7089 64.7169 21.5548 64.7169 17.4007C64.7292 17.3444 64.7467 17.2894 64.7692 17.2363Z" fill="#DAD3E4"/>
<path d="M34.7876 33.5332H50.3282C52.5696 33.5332 53.7576 34.6539 53.7576 36.9103C53.7576 46.6331 53.7576 56.346 53.7576 66.0489C53.7576 68.3352 52.5771 69.4932 50.2684 69.4932C39.9429 69.4932 29.6149 69.4932 19.2844 69.4932C16.901 69.4932 15.7578 68.3202 15.7578 65.9069V37.127C15.7578 34.6315 16.8561 33.5407 19.3367 33.5332H34.7876Z" fill="#564079"/>
<path d="M45.6648 75.5142C38.6716 75.5142 31.6783 75.5142 24.6925 75.5142C23.7212 75.5142 23.796 75.0734 23.7661 74.4159C23.7362 73.7584 23.8931 73.4297 24.7075 73.4297C38.7538 73.4596 52.7951 73.4596 66.8314 73.4297C67.8027 73.4297 67.728 73.8705 67.7579 74.528C67.7878 75.1855 67.6309 75.5217 66.8165 75.5142C59.756 75.4918 52.7029 75.5142 45.6648 75.5142Z" fill="#574179"/>
<path d="M45.8448 78.5099C51.2018 78.5099 56.5514 78.5099 61.9084 78.5099C62.8349 78.5099 62.7452 78.9656 62.7751 79.5708C62.805 80.176 62.7004 80.5346 61.9009 80.5346C51.1321 80.5047 40.3658 80.5047 29.6019 80.5346C28.795 80.5346 28.7054 80.2283 28.7353 79.5708C28.7651 78.9133 28.6829 78.5024 29.6094 78.5099C35.0187 78.5323 40.4355 78.5099 45.8448 78.5099Z" fill="#564079"/>
<path d="M21.757 29.5202C20.7665 29.5202 19.7984 29.2259 18.9754 28.6746C18.1525 28.1234 17.5119 27.3401 17.1349 26.4241C16.758 25.5082 16.6616 24.5009 16.8582 23.5301C17.0547 22.5593 17.5352 21.6688 18.2387 20.9716C18.9423 20.2743 19.8371 19.8019 20.8096 19.6141C21.7821 19.4263 22.7885 19.5317 23.701 19.9169C24.6135 20.3021 25.391 20.9497 25.9348 21.7776C26.4786 22.6054 26.7642 23.5762 26.7554 24.5667C26.7377 25.8827 26.2041 27.1392 25.2692 28.0657C24.3344 28.9921 23.0731 29.5145 21.757 29.5202Z" fill="#564079"/>
<path d="M37.2154 23.5415C35.3177 23.5415 33.4125 23.5415 31.5147 23.5415C30.9544 23.5415 30.7676 23.4145 30.7676 22.7944C30.8273 21.2179 30.6256 21.4944 32.0676 21.4869C35.6912 21.4869 39.3224 21.4869 42.946 21.4869C43.9098 21.4869 43.7529 22.0024 43.7828 22.5927C43.8127 23.1829 43.738 23.5864 42.9236 23.564C41.0184 23.4892 39.1206 23.5415 37.2154 23.5415Z" fill="#57417A"/>
<path d="M45.8439 83.4774C47.5698 83.4774 49.2957 83.4774 51.0216 83.4774C51.5969 83.4774 51.8211 83.6343 51.7688 84.2246C51.7417 84.4729 51.7417 84.7234 51.7688 84.9717C51.7688 85.3528 51.6343 85.4872 51.2607 85.4872H40.2703C39.8892 85.4872 39.7397 85.3453 39.7622 84.9717C39.7883 84.6784 39.7883 84.3834 39.7622 84.0901C39.7099 83.5895 39.9041 83.4401 40.4047 83.4475C42.2128 83.4924 44.0284 83.4774 45.8439 83.4774Z" fill="#57427A"/>
<path d="M43.2301 27.539C41.6536 27.539 40.0697 27.539 38.4932 27.539C37.9254 27.539 37.7461 27.3896 37.7461 26.7919C37.7461 25.4844 37.7461 25.4844 39.0461 25.4844C42.0347 25.4844 45.0233 25.4844 48.0118 25.4844C48.9607 25.4844 48.759 26.0074 48.759 26.5304C48.759 27.0534 48.9084 27.6212 48.0118 27.5689C46.413 27.4793 44.8066 27.539 43.2301 27.539Z" fill="#57417A"/>
<path d="M59.7424 44.4858C59.6007 44.4843 59.4609 44.4528 59.3322 44.3936C59.2034 44.3344 59.0886 44.2487 58.9952 44.1422C58.6249 43.7257 58.2254 43.3362 57.7998 42.9766C57.0526 42.4163 57.2244 42.0277 57.7998 41.43C58.3751 40.8323 58.7187 40.8547 59.1446 41.4749C59.5705 42.095 59.8918 42.0053 60.4148 41.4749C61.7671 40.0478 63.1942 38.7029 64.554 37.2908C64.9649 36.8575 65.1965 36.9023 65.5775 37.2908C66.4666 38.2098 66.4816 38.1874 65.5775 39.0989L60.7958 43.8807C60.482 44.1945 60.2131 44.5157 59.7424 44.4858Z" fill="#564079"/>
<path d="M59.7267 66.4887C59.566 66.4797 59.4089 66.4379 59.265 66.3659C59.1211 66.294 58.9935 66.1934 58.8899 66.0703C58.5465 65.6746 58.1717 65.3073 57.7692 64.972C57.022 64.4116 57.1864 64.0306 57.7692 63.4329C58.3519 62.8352 58.6807 62.8576 59.1065 63.4777C59.5324 64.0978 59.8537 64.0156 60.3767 63.4777C61.7215 62.0581 63.1486 60.7207 64.5009 59.3086C64.9417 58.8454 65.248 58.8604 65.5843 59.3086C65.7435 59.5164 65.9295 59.7022 66.1372 59.8615C66.3987 60.0857 66.3837 60.2575 66.1372 60.4966C64.2544 62.3645 62.4014 64.2323 60.5037 66.1226C60.4075 66.2351 60.2885 66.326 60.1545 66.3891C60.0206 66.4522 59.8747 66.4861 59.7267 66.4887Z" fill="#564079"/>
<path d="M66.4886 49.0279C66.3963 49.258 66.2441 49.4592 66.0478 49.6106C64.2323 51.4262 62.4242 53.2492 60.5937 55.0573C59.9511 55.6924 59.5327 55.67 58.8752 55.0573C58.4269 54.6314 58.031 54.1533 57.5603 53.7648C57.0896 53.3763 57.1194 53.0176 57.5976 52.6814C57.7159 52.5968 57.8194 52.4933 57.904 52.3751C58.285 51.8147 58.6511 51.8371 59.0172 52.3751C59.5327 53.1671 59.9511 52.9579 60.5115 52.3751C61.7891 51.0153 63.1639 49.7451 64.4489 48.3928C64.8823 47.937 65.1961 47.825 65.5921 48.3928C65.8631 48.6412 66.1643 48.8546 66.4886 49.0279Z" fill="#564079"/>
<path d="M71.666 55.5146C70.5826 55.5146 69.4993 55.5146 68.4159 55.5146C67.8929 55.5146 67.6688 55.4025 67.7136 54.8422C67.7659 53.2433 67.5716 53.5347 68.9987 53.5197C71.0159 53.5197 73.0407 53.5197 75.058 53.5197C75.977 53.5197 75.7379 54.095 75.7454 54.5732C75.7529 55.0514 75.9471 55.5893 75.0804 55.5445C73.9448 55.4698 72.8016 55.5146 71.666 55.5146Z" fill="#564079"/>
<path d="M71.7179 44.5011C70.7765 44.5011 69.8426 44.5011 68.9086 44.5011C67.5862 44.5011 67.7506 44.7999 67.7207 43.1861C67.7207 42.8125 67.7207 42.5137 68.2437 42.5137C70.5822 42.5137 72.9283 42.5137 75.2668 42.5137C75.6628 42.5137 75.7824 42.678 75.7525 43.0441C75.7288 43.2926 75.7288 43.5428 75.7525 43.7913C75.8197 44.3591 75.5582 44.4861 75.0427 44.4712C73.9369 44.4787 72.8237 44.5011 71.7179 44.5011Z" fill="#564079"/>
<path d="M71.7557 66.4883C70.7321 66.4883 69.7085 66.4285 68.6924 66.4883C67.8482 66.5555 67.6016 66.2268 67.7286 65.4647C67.7959 65.0463 67.4522 64.4411 68.3487 64.4635C70.5902 64.5009 72.8988 64.4635 75.1702 64.4635C75.6409 64.4635 75.8052 64.6279 75.7529 65.0762C75.7305 65.3072 75.7305 65.5399 75.7529 65.771C75.8127 66.294 75.6259 66.5182 75.0805 66.4808C73.9673 66.4883 72.8615 66.4883 71.7557 66.4883Z" fill="#564079"/>
<path d="M73.7727 62.5213C73.422 62.4951 73.0699 62.4951 72.7192 62.5213C71.9049 62.6483 71.7404 62.3046 71.7031 61.5276C71.6657 60.5937 71.987 60.3845 72.8388 60.4592C73.585 60.5102 74.3339 60.5102 75.0802 60.4592C75.5808 60.4592 75.775 60.6161 75.7302 61.1167C75.7065 61.3652 75.7065 61.6153 75.7302 61.8638C75.7676 62.3046 75.6182 62.5138 75.14 62.4765C74.6618 62.4391 74.2359 62.5213 73.7727 62.5213Z" fill="#59437B"/>
<path d="M73.6765 40.5253C73.388 40.5029 73.0983 40.5029 72.8098 40.5253C71.9132 40.6822 71.6816 40.3161 71.7115 39.4419C71.7115 38.6948 71.8684 38.381 72.6678 38.4781C73.2773 38.5192 73.8889 38.5192 74.4984 38.4781C75.7386 38.4781 76.0524 38.9189 75.7535 40.1592C75.6788 40.473 75.492 40.5029 75.2529 40.5029L73.6765 40.5253Z" fill="#59437B"/>
<path d="M32.7167 27.5402C32.3985 27.514 32.0786 27.514 31.7604 27.5402C30.9236 27.6747 30.7667 27.3086 30.7517 26.5316C30.7368 25.7546 30.9385 25.3885 31.8052 25.4781C32.5511 25.54 33.3008 25.54 34.0467 25.4781C34.5921 25.4781 34.7938 25.65 34.7265 26.1804C34.7004 26.4113 34.7004 26.6444 34.7265 26.8753C34.7714 27.3609 34.5921 27.5701 34.084 27.5328C33.576 27.4954 33.18 27.5402 32.7167 27.5402Z" fill="#58427A"/>
<path d="M73.721 51.5009C73.4303 51.4747 73.1377 51.4747 72.8469 51.5009C71.9354 51.6503 71.6589 51.2917 71.7187 50.3802C71.7187 49.7377 71.8383 49.4239 72.5705 49.4986C73.2685 49.5695 73.9719 49.5695 74.6699 49.4986C75.559 49.4014 75.828 49.6854 75.7832 50.5894C75.7832 51.3365 75.5964 51.598 74.8642 51.5009C74.4836 51.4747 74.1016 51.4747 73.721 51.5009Z" fill="#564079"/>
<path d="M22.7347 39.5918C24.5204 39.5918 26.306 39.5918 28.0917 39.5918C28.667 39.5918 28.7567 39.8159 28.7567 40.3389C28.7567 42.9091 28.7567 45.4868 28.7567 48.0644C28.7567 49.3121 29.063 49.6185 30.3033 49.6185C33.2918 49.6185 36.2804 49.6185 39.269 49.6185C40.4569 49.6185 40.7633 49.2897 40.7633 48.1242C40.7633 45.5764 40.7633 43.0287 40.7633 40.4809C40.7633 39.8682 40.8604 39.6142 41.5627 39.6217C44.6932 39.659 47.8313 39.6217 50.9618 39.6217C51.5745 39.6217 51.7089 39.7861 51.7089 40.4062C51.7089 49.0432 51.7089 57.6777 51.7089 66.3097C51.7089 67.266 51.3876 67.5947 50.4537 67.5947H22.9962C22.914 67.5947 22.8243 67.5947 22.7347 67.5947C22.3439 66.6406 22.3226 65.5751 22.6749 64.6062C23.0196 64.3825 23.434 64.2922 23.8404 64.3521C24.9836 64.3521 26.1267 64.3521 27.2699 64.3521C28.1664 64.3521 28.413 64.0682 28.4279 63.1716C28.4279 61.4756 28.4279 59.7722 28.4279 58.0761C28.4279 57.2169 28.2412 57.0451 27.3819 57.0227C25.8354 56.9853 24.2813 57.0227 22.7272 57.0227C22.5119 57.065 22.2902 57.063 22.0756 57.0168C21.8611 56.9705 21.6583 56.881 21.4795 56.7537C21.4795 56.7537 21.4795 56.679 21.4795 56.6715C22.6525 56.1933 22.4358 55.1772 22.4358 54.2433C22.4358 49.8874 22.4358 45.5241 22.4358 41.1608C22.3753 40.8928 22.3706 40.6151 22.422 40.3452C22.4735 40.0753 22.5799 39.8188 22.7347 39.5918Z" fill="#DAD3E4"/>
<path d="M22.7355 64.5158V67.4521C21.5102 67.4521 20.2774 67.4521 19.0521 67.4521C18.1032 67.4521 17.7969 67.1458 17.7969 66.1894C17.7969 63.7836 17.7969 61.3853 17.7969 58.987C17.7969 52.8156 17.7969 46.6367 17.7969 40.4653C17.7969 39.6285 18.0509 39.4417 18.8205 39.4791C20.1354 39.5463 21.4504 39.5164 22.7654 39.5239C22.7654 44.8137 22.7654 50.096 22.7654 55.3857C22.7654 56.1329 22.6085 56.4915 21.809 56.3794C21.7194 56.3794 21.6073 56.4616 21.5027 56.5065C21.1569 57.1816 21.0043 57.9392 21.0619 58.6956C21.0619 60.0405 21.0619 61.3778 21.0619 62.7227C21.0619 63.8584 21.1516 63.948 22.2872 64.217C22.3791 64.2314 22.4668 64.2656 22.5442 64.3172C22.6216 64.3687 22.6868 64.4365 22.7355 64.5158Z" fill="#FEFEFE"/>
<path d="M38.7472 39.5026C38.7472 40.6458 38.7472 41.7889 38.7472 42.9246C38.7472 43.3728 38.6127 43.5447 38.1495 43.5372C35.9031 43.5372 33.6616 43.5372 31.4252 43.5372C30.9022 43.5372 30.7976 43.3131 30.8051 42.8498C30.8051 40.6084 30.8051 38.4118 30.8051 36.1853C30.8051 35.6548 30.9619 35.483 31.4999 35.4905C33.6965 35.4905 35.8857 35.4905 38.0748 35.4905C38.6949 35.4905 38.8219 35.7146 38.8219 36.2376C38.7248 37.3509 38.7472 38.4267 38.7472 39.5026Z" fill="#DAD3E4"/>
<path d="M23.2508 37.4994C21.7565 37.4994 20.2174 37.4994 18.6932 37.4994C18.3645 37.4994 17.8116 37.7908 17.7892 37.0586C17.7667 36.3264 17.7892 35.8034 18.5363 35.5643C18.7372 35.5192 18.9437 35.5041 19.149 35.5195C22.1375 35.5195 25.0514 35.5569 27.9951 35.5195C28.8767 35.5195 28.7423 35.9678 28.7423 36.4983C28.7423 37.0287 28.9365 37.604 27.9951 37.5517C26.4112 37.4397 24.8347 37.4994 23.2508 37.4994Z" fill="#FEFEFE"/>
<path d="M46.2705 37.4994C44.6566 37.4994 43.0502 37.4994 41.4439 37.4994C40.5025 37.4994 40.8014 36.8943 40.779 36.4385C40.7566 35.9827 40.6071 35.4672 41.4514 35.4747C44.4399 35.527 47.4734 35.4747 50.4844 35.4747C51.4855 35.4747 51.9189 36.1023 51.747 37.1109C51.6648 37.5891 51.3436 37.4546 51.0895 37.4546C49.4832 37.5069 47.9067 37.4994 46.2705 37.4994Z" fill="#FEFEFE"/>
<path d="M34.7416 47.4962C33.6657 47.4962 32.5823 47.4962 31.5065 47.4962C30.9312 47.4962 30.707 47.3393 30.7593 46.7491C30.7892 46.4884 30.7892 46.2252 30.7593 45.9646C30.722 45.5611 30.9087 45.4715 31.2748 45.4789C33.576 45.4789 35.8772 45.4789 38.1784 45.4789C38.5894 45.4789 38.7687 45.5985 38.7313 46.0243C38.6977 46.2848 38.6977 46.5484 38.7313 46.8088C38.806 47.3617 38.567 47.5037 38.044 47.4888C36.9531 47.4738 35.8474 47.4962 34.7416 47.4962Z" fill="#FEFEFE"/>
<path d="M21.8989 21.5406C22.6878 21.5775 23.43 21.9251 23.9634 22.5075C24.4968 23.0899 24.778 23.8597 24.7455 24.6488C24.7106 25.4309 24.37 26.1681 23.7972 26.7019C23.2243 27.2356 22.465 27.5232 21.6823 27.5029C20.8856 27.4679 20.1343 27.1221 19.5895 26.5397C19.0448 25.9572 18.75 25.1845 18.7684 24.3873C18.7866 23.9946 18.8821 23.6095 19.0493 23.2538C19.2166 22.8982 19.4524 22.579 19.7432 22.3146C20.034 22.0501 20.374 21.8457 20.744 21.7129C21.1139 21.5801 21.5064 21.5215 21.8989 21.5406Z" fill="#DAD3E4"/>
<path d="M22.7351 64.5166H21.8609C21.2034 64.5166 20.7999 64.1804 20.7999 63.508C20.7999 61.5206 20.7999 59.5406 20.7999 57.5308C20.7894 57.3095 20.8538 57.0912 20.9826 56.9109C21.1113 56.7306 21.297 56.599 21.5097 56.5371C23.4897 56.5371 25.4771 56.5371 27.4869 56.5371C28.5329 56.5371 28.772 56.7837 28.7795 57.8297C28.7795 59.6079 28.7795 61.3861 28.7795 63.1643C28.7795 64.2028 28.4806 64.4793 27.4047 64.4867L22.7351 64.5166Z" fill="#564079"/>
<path d="M37.6707 59.5338C35.6235 59.5338 33.5764 59.489 31.5292 59.5338C30.5729 59.5338 30.7821 58.9511 30.7821 58.443C30.7821 57.9349 30.6551 57.4418 31.5292 57.4493C35.6833 57.4941 39.835 57.4941 43.9841 57.4493C44.9404 57.4493 44.7312 58.0321 44.7312 58.5401C44.7312 59.0482 44.8582 59.5637 43.9841 59.5338C41.8771 59.489 39.7702 59.5338 37.6707 59.5338Z" fill="#574179"/>
<path d="M33.3675 61.498H34.4584C35.8929 61.498 35.878 61.498 35.8032 62.9326C35.8032 63.3435 35.6463 63.4854 35.2354 63.4854C33.9503 63.4854 32.6578 63.4854 31.3727 63.4854C30.9468 63.4854 30.8422 63.3136 30.8198 62.9101C30.7376 61.498 30.7227 61.498 32.09 61.498H33.3675Z" fill="#564079"/>
<path d="M39.2625 63.5001H39.0906C37.5964 63.5001 37.6486 63.5001 37.7234 62.0656C37.7234 61.6546 37.8653 61.4977 38.2912 61.5127C38.9337 61.5127 39.5763 61.5127 40.2188 61.5127C40.6298 61.5127 40.7717 61.6322 40.7941 62.0581C40.8763 63.5001 40.8987 63.5001 39.2625 63.5001Z" fill="#58427A"/>
<path d="M26.7774 60.6014C26.7774 62.5216 26.7774 62.5216 24.8946 62.5216C22.7578 62.5216 22.7578 62.5216 22.7578 60.4146C22.7578 58.502 22.7578 58.502 24.6481 58.502C26.7774 58.502 26.7774 58.502 26.7774 60.6014Z" fill="#FDFDFE"/>
</svg>
