<svg width="115" height="81" viewBox="0 0 115 81" fill="none" xmlns="http://www.w3.org/2000/svg">
<path d="M23.8142 30.6108C19.656 42.6113 15.4918 54.6118 12.6777 67.2123C14.8181 67.9563 17.0516 68.3986 19.314 68.5263C20.17 65.4422 21.0241 62.3561 21.8761 59.2679C21.7912 59.2066 21.6955 59.1618 21.5941 59.1359C23.307 59.5405 24.8786 60.401 26.1423 61.626C27.4805 62.9189 28.6865 64.342 29.7424 65.8742C29.7242 66.7407 29.9745 67.5917 30.4589 68.3104C30.9434 69.029 31.6384 69.5802 32.4485 69.8884C33.2716 70.1594 34.1477 70.2283 35.0031 70.0894C35.8584 69.9505 36.6677 69.6079 37.3627 69.0903C37.2156 69.8594 37.2156 70.6494 37.3627 71.4184C37.4209 71.7527 37.5238 72.0776 37.6687 72.3845C38.0009 72.9998 38.5141 73.4983 39.1388 73.8125C40.2215 74.3756 41.463 74.5554 42.6609 74.3225C42.6372 75.0478 42.8431 75.7619 43.2494 76.3632C43.6556 76.9644 44.2413 77.422 44.923 77.6707C46.3087 78.0991 47.8037 78.003 49.1232 77.4006C49.3005 77.918 49.5846 78.3923 49.9572 78.7927C50.4215 79.1822 50.9968 79.4152 51.6013 79.4587C53.0936 79.5939 54.5875 79.2173 55.8374 78.3907C56.5697 78.7967 57.3906 79.0162 58.2278 79.0298C59.0649 79.0434 59.8926 78.8507 60.6376 78.4687C61.0361 78.2702 61.3958 78.002 61.6996 77.6767C62.2793 76.9697 62.6047 76.0886 62.6237 75.1746C62.625 74.2563 62.5729 73.3387 62.4677 72.4265C63.1611 73.3385 63.9932 74.1362 64.9338 74.7906C65.3994 75.1146 65.9275 75.3381 66.4844 75.4465C67.0413 75.555 67.6146 75.5462 68.1679 75.4206C69.0824 75.1323 69.8553 74.5113 70.334 73.6805C70.8377 72.8058 71.1199 71.8211 71.156 70.8124C71.5213 71.4349 71.922 72.0359 72.3561 72.6125C72.7429 73.1581 73.2125 73.6399 73.7481 74.0405C74.2813 74.4418 74.943 74.6339 75.6082 74.5805C76.1152 74.4782 76.5872 74.2466 76.9783 73.908C77.3694 73.5695 77.6663 73.1356 77.8403 72.6485C78.1876 71.6572 78.3661 70.6147 78.3683 69.5643C78.3683 68.9643 78.4343 68.3643 78.4103 67.7283C78.9191 68.7803 79.5216 69.7844 80.2104 70.7284C80.8876 71.6672 81.8148 72.3969 82.8865 72.8345C83.1505 72.9305 83.4265 73.0025 83.6965 73.0745C83.9074 73.1614 84.1346 73.2016 84.3624 73.1923C84.5903 73.1829 84.8135 73.1243 85.0165 73.0205C85.1573 72.8972 85.271 72.7461 85.3505 72.5768C85.43 72.4074 85.4736 72.2235 85.4786 72.0364C85.473 71.6484 85.5508 71.2638 85.7066 70.9084C89.7747 69.3243 93.7829 67.5663 97.665 65.6762C98.0348 67.1535 98.5019 68.6047 99.0631 70.0204C101.953 69.3154 104.741 68.2469 107.361 66.8402C109.665 65.9793 111.876 64.8898 113.962 63.5881C113.626 51.7137 111.67 39.6772 106.413 29.1108C106.106 28.4263 105.702 27.7897 105.213 27.2207C99.4275 29.3013 93.8106 31.8249 88.4127 34.769C88.5845 35.055 88.6854 35.378 88.7067 35.711C83.1145 36.119 77.6363 34.175 72.3501 32.2369C70.703 31.5487 68.9684 31.0924 67.1959 30.8808C65.5515 30.8643 63.9084 30.9767 62.2817 31.2169C60.3845 30.0916 58.3384 29.2392 56.2034 28.6848C54.9409 28.2734 53.6248 28.049 52.2973 28.0187C51.0721 28.0681 49.8601 28.2903 48.6971 28.6788C42.4329 30.5748 36.5707 34.079 30.0964 34.679C30.1444 34.229 30.1984 33.773 30.2464 33.3229C30.3008 33.0849 30.2733 32.8354 30.1684 32.6149C28.0983 31.7449 25.9562 30.8508 23.8142 30.6108Z" fill="white"/>
<path d="M110.44 63.1501H110.368L104.667 60.8941C104.627 60.8713 104.597 60.8348 104.581 60.7914C104.566 60.7479 104.567 60.7004 104.583 60.6574C104.6 60.6145 104.632 60.579 104.673 60.5574C104.713 60.5359 104.76 60.5297 104.805 60.5401L110.512 62.7961C110.558 62.8149 110.596 62.8511 110.616 62.8971C110.636 62.9431 110.637 62.9952 110.62 63.0421C110.604 63.0762 110.578 63.1047 110.546 63.124C110.514 63.1432 110.477 63.1524 110.44 63.1501Z" fill="black"/>
<path d="M112.366 60.9054H112.306C109.148 59.777 106.06 58.4606 103.059 56.9633C103.037 56.9522 103.018 56.937 103.002 56.9183C102.985 56.8997 102.973 56.8781 102.965 56.8547C102.957 56.8313 102.954 56.8065 102.956 56.7819C102.958 56.7573 102.964 56.7333 102.975 56.7113C102.986 56.6892 103.002 56.6695 103.02 56.6534C103.039 56.6372 103.061 56.6249 103.084 56.6171C103.107 56.6093 103.132 56.6061 103.157 56.6079C103.181 56.6096 103.205 56.6162 103.227 56.6272C106.216 58.113 109.289 59.4214 112.432 60.5454C112.474 60.561 112.509 60.591 112.532 60.63C112.554 60.669 112.562 60.7147 112.554 60.759C112.546 60.8032 112.523 60.8433 112.489 60.8723C112.454 60.9013 112.411 60.9172 112.366 60.9174V60.9054Z" fill="black"/>
<path d="M112.852 57.3729H112.792C109.3 56.1729 105.813 54.8048 102.435 53.3107C102.409 53.3026 102.386 53.2891 102.365 53.2711C102.345 53.2531 102.329 53.231 102.318 53.2063C102.307 53.1816 102.301 53.1548 102.301 53.1277C102.301 53.1006 102.306 53.0738 102.318 53.049C102.329 53.0243 102.345 53.0022 102.365 52.9841C102.385 52.9661 102.409 52.9526 102.435 52.9444C102.461 52.9363 102.488 52.9337 102.515 52.9369C102.542 52.94 102.568 52.9488 102.591 52.9627C105.957 54.4568 109.432 55.8188 112.912 57.0129C112.957 57.024 112.997 57.0519 113.023 57.091C113.048 57.1301 113.059 57.1774 113.051 57.2237C113.043 57.2699 113.019 57.3116 112.982 57.3403C112.945 57.3691 112.898 57.3829 112.852 57.3789V57.3729Z" fill="black"/>
<path d="M112.851 54.0147C112.83 54.0209 112.807 54.0209 112.785 54.0147C108.723 52.4187 105.585 51.0146 101.235 49.1185C101.194 49.0944 101.164 49.0563 101.15 49.0115C101.136 48.9666 101.139 48.9181 101.158 48.8752C101.177 48.8323 101.211 48.7979 101.254 48.7786C101.297 48.7593 101.346 48.7564 101.391 48.7705C105.723 50.6906 108.873 52.0707 112.923 53.6607C112.97 53.6807 113.008 53.718 113.028 53.765C113.048 53.812 113.049 53.8649 113.031 53.9127C113.013 53.9447 112.987 53.9711 112.955 53.9891C112.924 54.0071 112.888 54.016 112.851 54.0147Z" fill="black"/>
<path d="M111.844 50.1607H111.766L100.119 45.1745C100.073 45.1536 100.037 45.1154 100.019 45.0682C100.001 45.021 100.003 44.9687 100.023 44.9225C100.033 44.9 100.047 44.8796 100.065 44.8626C100.082 44.8456 100.103 44.8322 100.126 44.8233C100.149 44.8144 100.173 44.81 100.198 44.8106C100.222 44.8111 100.247 44.8166 100.269 44.8265L111.916 49.8127C111.939 49.8219 111.96 49.8356 111.977 49.8531C111.995 49.8705 112.009 49.8913 112.018 49.9142C112.028 49.9371 112.033 49.9617 112.033 49.9865C112.032 50.0114 112.027 50.0359 112.018 50.0587C112.001 50.0902 111.976 50.1164 111.945 50.1344C111.914 50.1524 111.879 50.1615 111.844 50.1607Z" fill="black"/>
<path d="M112.023 46.8476C111.995 46.8534 111.967 46.8534 111.939 46.8476L99.2187 41.0273C99.1959 41.0171 99.1755 41.0023 99.1586 40.9839C99.1417 40.9655 99.1286 40.944 99.1202 40.9204C99.1118 40.8969 99.1082 40.872 99.1097 40.847C99.1111 40.8221 99.1176 40.7977 99.1287 40.7753C99.139 40.7526 99.1538 40.7321 99.1721 40.7152C99.1905 40.6983 99.2121 40.6853 99.2356 40.6769C99.2591 40.6685 99.2841 40.6649 99.309 40.6663C99.334 40.6678 99.3583 40.6742 99.3807 40.6853L112.101 46.5056C112.124 46.5153 112.144 46.5295 112.161 46.5471C112.178 46.5648 112.192 46.5857 112.2 46.6086C112.209 46.6314 112.214 46.6558 112.213 46.6804C112.213 46.7049 112.207 46.7291 112.197 46.7516C112.18 46.7819 112.154 46.8069 112.124 46.8238C112.093 46.8408 112.058 46.849 112.023 46.8476Z" fill="black"/>
<path d="M110.782 42.3005C110.754 42.3062 110.725 42.3062 110.698 42.3005L97.8633 36.3423C97.8375 36.3334 97.814 36.3191 97.7942 36.3005C97.7744 36.2818 97.7587 36.2591 97.7484 36.2339C97.738 36.2088 97.7331 36.1817 97.734 36.1545C97.7349 36.1272 97.7416 36.1005 97.7536 36.0761C97.7656 36.0517 97.7826 36.0301 97.8036 36.0127C97.8246 35.9954 97.849 35.9827 97.8753 35.9755C97.9016 35.9684 97.9291 35.9669 97.9559 35.9711C97.9828 35.9754 98.0085 35.9853 98.0313 36.0002L110.866 41.9585C110.889 41.9688 110.909 41.9836 110.926 42.0019C110.943 42.0203 110.956 42.0419 110.964 42.0654C110.973 42.0889 110.976 42.1139 110.975 42.1388C110.973 42.1637 110.967 42.1881 110.956 42.2105C110.937 42.2393 110.911 42.2627 110.881 42.2785C110.85 42.2943 110.816 42.3019 110.782 42.3005Z" fill="black"/>
<path d="M107.361 35.8732H107.289C104.115 34.5892 100.881 33.3591 97.6889 32.2071C97.6655 32.199 97.6439 32.1864 97.6255 32.1699C97.6071 32.1534 97.5921 32.1334 97.5815 32.111C97.5709 32.0887 97.5648 32.0644 97.5637 32.0397C97.5625 32.015 97.5664 31.9903 97.5749 31.967C97.5913 31.9197 97.6256 31.8806 97.6704 31.8582C97.7153 31.8357 97.7671 31.8317 97.8149 31.847C101.025 32.9991 104.265 34.2471 107.415 35.5192C107.454 35.5369 107.486 35.5671 107.505 35.6049C107.525 35.6426 107.532 35.6859 107.524 35.7278C107.517 35.7697 107.495 35.8079 107.464 35.8364C107.432 35.8649 107.392 35.8821 107.349 35.8852L107.361 35.8732Z" fill="black"/>
<path d="M107.109 31.6362C107.084 31.6415 107.057 31.6415 107.031 31.6362L102.477 29.6381C102.437 29.614 102.407 29.5758 102.393 29.531C102.379 29.4861 102.381 29.4376 102.401 29.3947C102.42 29.3518 102.454 29.3174 102.497 29.2981C102.54 29.2789 102.588 29.276 102.633 29.2901L107.187 31.2881C107.21 31.2979 107.23 31.3121 107.247 31.3297C107.264 31.3474 107.278 31.3683 107.287 31.3912C107.296 31.414 107.3 31.4384 107.299 31.463C107.299 31.4875 107.293 31.5117 107.283 31.5341C107.267 31.5661 107.242 31.5927 107.212 31.6108C107.181 31.6289 107.145 31.6377 107.109 31.6362Z" fill="black"/>
<path d="M10.5353 25.6113C15.0355 27.2014 19.5897 28.6415 23.9279 30.0035C23.2198 33.1536 21.3898 35.8837 20.1597 38.8538C19.5385 40.4465 19.0017 42.0708 18.5517 43.72C16.3156 51.4243 14.1735 59.1526 12.1254 66.9049C8.40899 65.5702 4.58198 64.5663 0.688965 63.9048C4.65512 51.0103 8.23126 38.5478 10.5353 25.6113Z" fill="#ACD4F7"/>
<g opacity="0.13">
<path d="M95.5652 63.9116C94.8634 64.1313 94.1743 64.3897 93.5011 64.6857C93.3481 64.6848 93.1954 64.6988 93.0451 64.7277C92.7051 64.8037 92.375 64.9185 92.0611 65.0697C91.7071 65.1957 91.3711 65.3157 91.0231 65.4717C90.8911 65.5257 90.477 65.6937 90.315 65.7357L90.195 65.7777L89.883 65.8737H89.697L89.493 65.8197C89.3445 65.6772 89.2081 65.5227 89.085 65.3577C88.911 65.1297 89.085 65.3577 89.169 65.4777C89.0571 65.3194 88.937 65.1672 88.809 65.0217C88.7796 64.9797 88.7475 64.9396 88.713 64.9017C88.599 64.7337 88.491 64.5537 88.383 64.3737C87.9434 63.6598 87.5428 62.9227 87.1829 62.1656C86.3969 60.5575 85.6708 58.9194 84.8308 57.3654C84.3881 56.2724 83.8812 55.2065 83.3128 54.1733C81.6436 51.4129 79.5978 48.8986 77.2345 46.703C75.5844 44.9551 73.698 43.4465 71.6303 42.2208C70.2442 41.4168 68.7922 40.6187 67.1841 40.4987C67.0775 40.473 66.9668 40.4696 66.8589 40.4889C66.7509 40.5082 66.6482 40.5496 66.5571 40.6107C66.466 40.6717 66.3886 40.751 66.3298 40.8435C66.2709 40.9361 66.2319 41.0398 66.2153 41.1482C66.1986 41.2565 66.2046 41.3672 66.2329 41.4731C66.2612 41.579 66.3112 41.6779 66.3797 41.7635C66.4482 41.8491 66.5338 41.9196 66.6309 41.9704C66.7281 42.0212 66.8347 42.0513 66.9441 42.0588C68.1645 42.2164 69.3303 42.6605 70.3462 43.3548C70.2824 43.511 70.266 43.6825 70.2991 43.8479C70.3322 44.0133 70.4133 44.1653 70.5323 44.2849C71.6543 45.3109 72.9323 46.0849 74.1324 47.057C74.0784 47.021 74.7324 47.597 74.8584 47.741C74.9844 47.885 75.1284 48.023 75.2604 48.167C75.2037 48.2197 75.1589 48.2839 75.1289 48.3553C75.0989 48.4267 75.0844 48.5036 75.0864 48.581C75.1644 49.0911 75.6865 49.6911 75.9565 50.1651C77.2405 52.2232 78.7526 54.1313 79.8446 56.3093C81.4159 59.432 82.4311 62.8046 82.8447 66.2757C83.0907 67.5358 83.2348 69.8339 82.8447 70.4759C82.8139 70.5166 82.7798 70.5548 82.7427 70.5899L82.6647 70.6379L82.5147 70.6979H82.4367H82.1247H82.0107C81.5727 70.5779 81.8067 70.6979 81.1587 70.3139C80.1446 69.7139 79.2806 71.2799 80.2646 71.9099C82.7547 73.788 84.4948 73.11 84.9928 70.5779C85.185 69.0323 85.1242 67.4658 84.8128 65.9397C84.8848 66.1677 84.9628 66.4017 85.0348 66.6357C85.1788 67.5418 85.2988 68.3998 85.4128 69.1678L85.3588 69.2338C85.2389 69.4552 85.205 69.713 85.2637 69.9578C85.3224 70.2026 85.4696 70.4171 85.6768 70.5599C85.7688 70.7028 85.9038 70.8129 86.0622 70.8744C86.2207 70.9358 86.3946 70.9454 86.5589 70.9019C86.6779 70.8683 86.7867 70.8058 86.8757 70.7199C86.9647 70.6341 87.031 70.5276 87.0689 70.4099C89.818 69.3389 92.4666 68.0256 94.9832 66.4857C95.3197 66.2361 95.6817 66.0229 96.0633 65.8497C96.3438 65.7553 96.5902 65.5799 96.7713 65.3457C96.901 65.2568 97.0112 65.1425 97.0953 65.0097C97.4673 63.9896 96.3213 63.4736 95.5652 63.9116Z" fill="black"/>
</g>
<g opacity="0.13">
<path d="M112.953 60.9609C112.812 60.965 112.674 60.9977 112.545 61.0569C111.909 61.255 111.345 61.657 110.745 61.921C109.647 62.479 109.215 62.581 107.745 63.325C105.213 64.7411 100.995 66.1331 98.7449 67.1292C97.2509 67.6032 97.8509 69.9193 99.375 69.5293C101.775 68.7192 103.995 67.5552 106.293 66.5292C107.493 65.9291 109.803 65.0771 111.693 64.0871C112.581 63.601 113.692 63.019 113.806 62.731C113.928 62.5691 114.004 62.3765 114.024 62.1745C114.044 61.9724 114.008 61.7687 113.92 61.5858C113.832 61.4028 113.695 61.2477 113.525 61.1374C113.354 61.0272 113.156 60.9661 112.953 60.9609Z" fill="black"/>
</g>
<g opacity="0.13">
<path d="M28.8537 35.2843C27.8876 38.9505 26.1836 41.6566 24.9355 45.6887C24.1856 48.0463 23.5963 50.4519 23.1715 52.889C22.8954 53.9691 22.6854 55.0671 22.4754 56.1592C22.2236 57.1196 22.1343 58.1154 22.2114 59.1053C22.2639 59.3198 22.361 59.5208 22.4963 59.6953C22.6317 59.8698 22.8023 60.0139 22.997 60.118C23.1917 60.2222 23.4062 60.2842 23.6265 60.2999C23.8468 60.3156 24.0679 60.2848 24.2755 60.2093C24.7915 60.8093 25.3435 61.3253 25.8956 61.8654V61.8114C25.8596 60.7313 25.8716 59.6513 25.9316 58.5712C25.7485 57.9618 25.6338 57.3339 25.5895 56.6992C25.7996 55.4991 26.0696 54.3291 26.1896 53.099C26.7857 49.2249 27.7193 45.4102 28.9797 41.6986C29.3397 40.5945 29.6157 39.4545 30.0777 38.3865C30.4017 37.4204 30.9418 36.4424 30.9418 35.3863C30.9032 35.1442 30.7825 34.9227 30.5999 34.7591C30.4173 34.5954 30.184 34.4996 29.9391 34.4876C29.6942 34.4756 29.4527 34.5483 29.255 34.6934C29.0574 34.8385 28.9157 35.0471 28.8537 35.2843Z" fill="black"/>
</g>
<g opacity="0.13">
<path d="M29.9578 64.978C29.9317 65.0933 29.8668 65.1961 29.7739 65.2693C29.6811 65.3425 29.566 65.3816 29.4478 65.38C29.5357 65.4367 29.6346 65.474 29.7381 65.4896C29.8415 65.5051 29.9471 65.4984 30.0478 65.4701C30.2152 65.4157 30.3597 65.3072 30.4586 65.1616C30.5575 65.016 30.6051 64.8417 30.5938 64.666L29.9578 64.978Z" fill="black"/>
</g>
<g opacity="0.13">
<path d="M22.2114 59.106L22.1514 58.668C22.1524 58.816 22.1726 58.9632 22.2114 59.106Z" fill="black"/>
</g>
<g opacity="0.13">
<path d="M36.3361 67.9572C35.9281 68.2452 35.3761 68.1552 34.314 68.1372C33.5061 68.1359 32.701 68.0433 31.9139 67.8612C31.3979 67.7352 30.9059 67.3151 30.3659 67.3871C29.3518 67.4772 29.2558 69.0792 30.2399 69.3432C30.9452 69.6404 31.6736 69.8792 32.4179 70.0573C33.0363 70.263 33.6959 70.3124 34.338 70.2013C35.1374 70.0069 35.9023 69.6913 36.6061 69.2652C36.8941 69.0672 37.2841 68.9112 37.3981 68.5452C37.4367 68.4755 37.4612 68.3988 37.4702 68.3196C37.4792 68.2404 37.4725 68.1602 37.4505 68.0836C37.4285 68.007 37.3916 67.9355 37.342 67.8731C37.2923 67.8107 37.2309 67.7588 37.1611 67.7202C37.0914 67.6816 37.0147 67.6571 36.9355 67.6481C36.8563 67.6391 36.7761 67.6458 36.6995 67.6678C36.6229 67.6898 36.5514 67.7267 36.489 67.7763C36.4267 67.826 36.3747 67.8874 36.3361 67.9572Z" fill="black"/>
</g>
<g opacity="0.13">
<path d="M47.119 69.407C46.759 69.533 46.687 69.731 46.1349 70.037C45.1969 70.5925 44.1558 70.9518 43.0748 71.093C42.1545 71.3703 41.1978 71.5079 40.2367 71.5011C39.7497 71.518 39.2621 71.4959 38.7786 71.435C38.4708 71.3363 38.1473 71.2956 37.8246 71.315C36.5526 71.4471 36.4326 73.4271 37.6686 73.7631C40.8067 74.7232 43.3988 73.7631 45.6249 72.3471C46.3152 71.9431 46.9574 71.462 47.539 70.913C47.851 70.547 47.929 70.613 47.995 70.109C47.9972 70.0005 47.9744 69.893 47.9284 69.7947C47.8825 69.6965 47.8145 69.6101 47.7299 69.5422C47.6452 69.4744 47.5461 69.4269 47.4402 69.4035C47.3343 69.38 47.2244 69.3812 47.119 69.407Z" fill="black"/>
</g>
<g opacity="0.13">
<path d="M60.3137 76.2157C59.6537 76.3117 59.8157 76.4017 59.4677 76.5097C59.0508 76.7082 58.6145 76.8631 58.1657 76.9717C57.8904 77.0328 57.6119 77.0789 57.3316 77.1097C57.3962 77.0184 57.4422 76.9152 57.4669 76.8061C57.4916 76.6969 57.4946 76.584 57.4756 76.4737C57.4536 76.2588 57.3535 76.0594 57.1942 75.9134C57.0349 75.7674 56.8276 75.685 56.6116 75.6817C56.0956 75.6817 55.7056 76.1617 55.2376 76.3537C54.5579 76.698 53.8516 76.9869 53.1255 77.2177C52.3652 77.4514 51.5748 77.5727 50.7794 77.5778C50.3388 77.478 49.9041 77.3538 49.4773 77.2057C50.3053 76.8517 51.0987 76.4219 51.8474 75.9217C52.7011 75.3565 53.4828 74.6896 54.1755 73.9356C54.2586 73.8599 54.3241 73.767 54.3676 73.6634C54.4112 73.5598 54.4316 73.4479 54.4275 73.3356C54.4277 73.2065 54.3954 73.0795 54.3335 72.9662C54.2716 72.853 54.1822 72.7571 54.0735 72.6876C53.9371 72.6049 53.7766 72.5712 53.6185 72.5919C53.4603 72.6126 53.314 72.6866 53.2035 72.8016C53.2515 72.7656 53.3715 72.6696 53.2995 72.7176C52.9455 72.9456 52.5975 73.1736 52.2374 73.3956C50.2513 74.6501 48.0333 75.4928 45.7152 75.8737C45.3008 75.9417 44.8801 75.9618 44.4611 75.9337H44.3591C44.0506 75.8434 43.7323 75.791 43.4111 75.7777C43.2488 75.8129 43.1025 75.9001 42.9944 76.0261C42.8862 76.1521 42.8222 76.3099 42.812 76.4757C42.8018 76.6414 42.846 76.8059 42.9379 76.9442C43.0298 77.0825 43.1644 77.187 43.3211 77.2417C43.9741 77.5129 44.66 77.6965 45.3612 77.7878C46.1051 77.8367 46.8522 77.7984 47.5873 77.6738C47.9814 77.6363 48.3711 77.562 48.7513 77.4518C48.6584 77.557 48.589 77.681 48.548 77.8153C48.5069 77.9496 48.4951 78.0912 48.5133 78.2304C48.5315 78.3697 48.5793 78.5034 48.6534 78.6227C48.7276 78.7419 48.8264 78.8439 48.9433 78.9218C50.8574 79.9358 52.9155 79.7258 54.8235 78.8198C55.1726 78.6723 55.5096 78.4977 55.8316 78.2978C55.8251 78.4496 55.8488 78.6012 55.9012 78.7438C55.9536 78.8864 56.0337 79.0173 56.1369 79.1288C56.2401 79.2403 56.3643 79.3304 56.5024 79.3937C56.6405 79.457 56.7898 79.4924 56.9416 79.4978C58.1417 79.3418 59.4197 79.2698 60.4278 78.5138C60.7278 78.2678 61.1178 78.0638 61.2498 77.6738C61.3162 77.5166 61.3432 77.3456 61.3287 77.1755C61.3141 77.0055 61.2583 76.8416 61.1661 76.698C61.0739 76.5544 60.9481 76.4354 60.7996 76.3514C60.6511 76.2674 60.4843 76.2208 60.3137 76.2157Z" fill="black"/>
</g>
<g opacity="0.13">
<path d="M69.9557 71.5403C69.2237 71.9303 69.3977 72.0083 68.9236 72.3143C68.4625 72.7121 67.8953 72.9665 67.2916 73.0464C66.9499 73.1515 66.5926 73.1961 66.2355 73.1784C66.1516 73.1843 66.0674 73.1843 65.9835 73.1784L65.6895 73.1124C65.0895 73.0104 64.4355 72.5123 63.8414 72.9144C63.665 73.0301 63.5245 73.193 63.436 73.3845C63.3475 73.5761 63.3145 73.7886 63.3408 73.998C63.367 74.2073 63.4515 74.4051 63.5845 74.5689C63.7176 74.7327 63.8939 74.8559 64.0935 74.9244C64.8823 75.2182 65.7178 75.3666 66.5595 75.3625C67.5775 75.2713 68.5529 74.911 69.3857 74.3184C69.788 74.0143 70.1745 73.6899 70.5437 73.3464C70.6934 73.2445 70.8182 73.1101 70.9086 72.9532C70.999 72.7963 71.0527 72.621 71.0657 72.4403C71.0708 72.3018 71.0436 72.164 70.9862 72.0379C70.9289 71.9117 70.843 71.8005 70.7353 71.7133C70.6277 71.626 70.5012 71.5649 70.3659 71.5349C70.2306 71.5049 70.0902 71.5067 69.9557 71.5403Z" fill="black"/>
</g>
<g opacity="0.13">
<path d="M78.2484 68.4909C78.2522 68.2633 78.1833 68.0404 78.0516 67.8548C77.9199 67.6691 77.7324 67.5304 77.5163 67.4588H77.4443C77.4849 66.5925 77.4225 65.7244 77.2583 64.8727C76.8696 63.5912 76.3467 62.3543 75.6983 61.1826C75.1932 59.9006 74.4929 58.7044 73.6222 57.6364C73.5318 57.5606 73.421 57.5131 73.3038 57.4999C73.1865 57.4866 73.068 57.5083 72.963 57.5621C72.858 57.6159 72.7711 57.6994 72.7134 57.8023C72.6556 57.9052 72.6294 58.0228 72.6381 58.1405C72.6741 58.5845 73.0582 58.8905 73.2382 59.2685C74.179 60.7497 74.8399 62.3909 75.1882 64.1107C75.7738 65.7825 75.9628 67.5675 75.7403 69.3249V69.3849L75.6863 69.6789C75.6723 69.7479 75.6542 69.816 75.6322 69.8829C75.5302 70.0629 75.4162 70.2369 75.3022 70.4049C75.1882 70.573 74.8702 70.945 74.7022 71.107L74.5942 71.173C74.1009 71.1988 73.6087 71.104 73.1602 70.897C72.9141 70.801 72.8661 70.771 73.1602 70.897C72.7453 70.6776 72.314 70.491 71.8701 70.3389C70.8501 70.1409 70.346 71.695 71.2701 72.223C71.5881 72.391 71.9361 72.559 72.2481 72.697C72.2751 72.8782 72.3432 73.0509 72.4472 73.2017C72.5512 73.3525 72.6884 73.4775 72.8481 73.5671C72.9201 73.6091 72.9981 73.6391 73.0762 73.6751C73.0867 73.9049 73.1695 74.1255 73.3128 74.3054C73.4561 74.4853 73.6526 74.6154 73.8742 74.6771C74.302 74.8412 74.7653 74.8908 75.2182 74.8211C75.3946 74.7755 75.5656 74.7111 75.7283 74.6291C76.2102 74.456 76.6102 74.1094 76.8503 73.6571C76.9515 73.4325 76.9685 73.1791 76.8983 72.943C77.0689 72.756 77.1723 72.5174 77.1923 72.265C77.6386 71.6351 77.9567 70.9236 78.1283 70.1709C78.2323 69.6491 78.2886 69.1189 78.2964 68.5869C78.2993 68.569 78.2993 68.5508 78.2964 68.5329L78.2484 68.4909Z" fill="black"/>
</g>
<path d="M18.9478 69.0142H18.8398C15.5937 68.4142 12.2395 67.7542 8.92739 66.8062C7.67279 66.3872 6.39698 66.0347 5.10525 65.7501C3.61185 65.4215 2.13921 65.0048 0.695078 64.5021C0.556897 64.4434 0.445732 64.335 0.383526 64.1984C0.32132 64.0618 0.31259 63.9068 0.359062 63.764C0.417665 63.6272 0.525038 63.517 0.660319 63.4549C0.7956 63.3929 0.949131 63.3833 1.09109 63.428C2.49194 63.913 3.92054 64.3137 5.36926 64.6281C6.6886 64.9199 7.99232 65.2784 9.27541 65.7021C12.3235 66.5781 15.4677 67.1902 18.5158 67.7782C19.8418 62.156 21.6419 56.6658 23.388 51.3496C24.42 48.1874 25.494 44.9173 26.4721 41.6052V41.5632C26.7961 40.7111 27.1501 39.8651 27.4861 39.0551C28.4814 36.9112 29.2283 34.6604 29.7122 32.3468C29.6993 32.3262 29.6831 32.308 29.6642 32.2928C29.6021 32.2966 29.5401 32.2842 29.4842 32.2568C26.6101 31.1705 23.6797 30.2391 20.7059 29.4667C17.1431 28.5669 13.6515 27.4057 10.2594 25.9926C10.1649 25.908 10.0996 25.7957 10.0729 25.6717C10.0462 25.5477 10.0594 25.4185 10.1108 25.3025C10.1621 25.1866 10.2488 25.0898 10.3586 25.0262C10.4683 24.9626 10.5953 24.9354 10.7215 24.9485C14.0645 26.3356 17.5036 27.4787 21.0119 28.3687C24.0042 29.1598 26.9525 30.1092 29.8442 31.2128C30.1295 31.2614 30.3891 31.4077 30.5785 31.6266C30.7678 31.8455 30.8752 32.1234 30.8822 32.4128C30.8848 32.4448 30.8848 32.4769 30.8822 32.5088C30.3867 34.9363 29.6115 37.2981 28.5722 39.5471C28.2361 40.3451 27.8941 41.1732 27.5761 42.0072C26.5921 45.3253 25.518 48.6074 24.48 51.7636C22.6079 57.4698 20.8439 62.864 19.5178 68.6182C19.4755 68.7352 19.398 68.8361 19.2959 68.907C19.1938 68.978 19.0721 69.0154 18.9478 69.0142Z" fill="black"/>
<path d="M12.2932 67.2723C12.2494 67.2781 12.205 67.2781 12.1612 67.2723C12.018 67.2315 11.895 67.1388 11.8163 67.0124C11.7376 66.886 11.7086 66.7348 11.7352 66.5882C14.7296 54.0235 18.632 41.6926 23.4117 29.6928C23.4186 29.5983 23.4478 29.5068 23.4969 29.4258C23.546 29.3448 23.6136 29.2765 23.6941 29.2267C23.7746 29.1768 23.8658 29.1467 23.9602 29.1388C24.0546 29.1309 24.1496 29.1455 24.2373 29.1814C24.3249 29.2173 24.4029 29.2734 24.4647 29.3452C24.5265 29.4169 24.5705 29.5023 24.593 29.5944C24.6154 29.6864 24.6158 29.7824 24.594 29.8746C24.5723 29.9668 24.529 30.0526 24.4677 30.1248C19.7115 42.0705 15.8271 54.3451 12.8452 66.8522C12.8132 66.9737 12.7414 67.0811 12.6414 67.1571C12.5414 67.2332 12.4189 67.2738 12.2932 67.2723Z" fill="black"/>
<path d="M98.505 70.6385C98.3801 70.6397 98.2584 70.599 98.1594 70.5228C98.0605 70.4467 97.9899 70.3395 97.959 70.2185C95.8649 62.6702 93.6508 55.1219 91.3107 47.1296C90.1107 43.0075 88.8506 38.7293 87.6026 34.4271C87.5662 34.3037 87.5732 34.1715 87.6223 34.0525C87.6714 33.9335 87.7597 33.8349 87.8726 33.7731C93.1998 30.74 98.7738 28.1627 104.535 26.0688C104.662 26.064 104.787 26.0996 104.893 26.1706C104.998 26.2415 105.079 26.3441 105.122 26.4636C105.165 26.583 105.17 26.7132 105.134 26.8353C105.099 26.9573 105.026 27.065 104.925 27.1428C99.365 29.1626 93.9805 31.6371 88.8266 34.5411C90.0267 38.7053 91.2267 42.8214 92.4268 46.8116C94.7069 54.6119 96.8669 61.9562 98.907 69.3185C103.779 67.5184 108.615 65.4003 113.308 63.1082C113.441 63.0524 113.591 63.0495 113.727 63.1003C113.863 63.1511 113.974 63.2517 114.038 63.3817C114.103 63.5116 114.115 63.6612 114.073 63.7999C114.031 63.9386 113.937 64.056 113.812 64.1283C108.898 66.5398 103.865 68.7007 98.733 70.6025C98.6604 70.6305 98.5827 70.6427 98.505 70.6385Z" fill="#564079"/>
<path d="M104.835 67.7523C104.71 67.7472 104.589 67.7028 104.49 67.6253C104.391 67.5477 104.318 67.4411 104.283 67.3203C101.211 55.1998 97.6831 43.0313 93.8789 31.1509C93.8797 31.0244 93.9205 30.9014 93.9953 30.7995C94.0702 30.6976 94.1754 30.6219 94.2958 30.5833C94.4163 30.5447 94.5458 30.5452 94.666 30.5846C94.7861 30.624 94.8908 30.7004 94.9649 30.8029C98.8051 42.7073 102.315 54.8998 105.387 67.0443C105.416 67.1901 105.39 67.3415 105.313 67.469C105.237 67.5965 105.116 67.691 104.973 67.7343C104.928 67.7466 104.882 67.7526 104.835 67.7523Z" fill="#564079"/>
<path d="M46.6267 51.3181C45.9578 51.3424 45.2952 51.1816 44.7119 50.8534C44.1285 50.5252 43.6471 50.0424 43.3206 49.4581C42.1926 47.154 44.3167 44.5619 45.0187 43.7158C47.9048 40.1997 50.8929 36.5696 54.6191 33.8275C58.8192 30.7313 63.4094 29.3273 67.5495 29.8793C69.6335 30.2387 71.6676 30.8429 73.6098 31.6794C74.2398 31.9254 74.8818 32.1774 75.5239 32.4054C79.5392 33.8531 83.7666 34.6255 88.0343 34.6915C88.1544 34.731 88.2589 34.8073 88.333 34.9097C88.4071 35.012 88.447 35.1352 88.447 35.2615C88.447 35.3879 88.4071 35.511 88.333 35.6134C88.2589 35.7157 88.1544 35.7921 88.0343 35.8315C83.6397 35.7645 79.2866 34.9697 75.1519 33.4795C74.5038 33.2454 73.8498 32.9874 73.2198 32.7474C71.3591 31.9376 69.4096 31.3496 67.4115 30.9954C63.5714 30.4853 59.2752 31.8114 55.3151 34.7335C51.7149 37.3916 48.7748 40.9677 45.9307 44.4239C44.3406 46.356 43.8306 47.838 44.3766 48.9421C44.6271 49.3568 44.9917 49.6906 45.427 49.9034C45.8622 50.1163 46.3496 50.1991 46.8307 50.1421C47.929 49.9923 48.9836 49.6142 49.9269 49.0321L52.0989 47.892C56.5211 45.5819 60.6973 43.4038 64.6574 40.4697C64.7776 40.4296 64.9074 40.4286 65.0282 40.4669C65.149 40.5051 65.2546 40.5805 65.3299 40.6825C65.4052 40.7844 65.4463 40.9075 65.4473 41.0342C65.4483 41.1609 65.4091 41.2847 65.3355 41.3878C61.3033 44.3879 57.0911 46.572 52.627 48.9L50.4609 50.0401C49.3758 50.7006 48.1632 51.1239 46.9028 51.2821L46.6267 51.3181Z" fill="#564079"/>
<path d="M85.5206 71.4139C85.409 71.4108 85.3004 71.3766 85.2071 71.3151C85.1138 71.2536 85.0395 71.1673 84.9926 71.0659C84.9403 70.9259 84.942 70.7715 84.9975 70.6328C85.053 70.4941 85.1582 70.3811 85.2926 70.3158C89.0788 68.6778 92.8949 66.9797 96.6391 65.2636C96.7649 65.2493 96.8921 65.2751 97.0024 65.3374C97.1127 65.3997 97.2004 65.4953 97.253 65.6106C97.3056 65.7258 97.3204 65.8547 97.2953 65.9788C97.2702 66.103 97.2064 66.216 97.1131 66.3017C93.3629 68.0178 89.5348 69.7218 85.7427 71.3659C85.6724 71.3959 85.597 71.4122 85.5206 71.4139Z" fill="black"/>
<path d="M84.0502 73.6522C83.9463 73.6587 83.8421 73.6587 83.7382 73.6522C81.9742 73.4542 80.2461 72.2301 78.9921 70.298C78.2362 69.0502 77.6033 67.732 77.102 66.3619C76.928 65.9419 76.76 65.5219 76.586 65.1078C75.1746 61.782 73.2378 58.7046 70.8497 55.9935C70.755 55.8791 70.7087 55.7322 70.7206 55.5842C70.7326 55.4361 70.8018 55.2986 70.9137 55.2008C71.0255 55.1031 71.1711 55.0528 71.3194 55.0608C71.4677 55.0687 71.607 55.1343 71.7078 55.2435C74.1742 58.0447 76.1756 61.2231 77.636 64.6578C77.816 65.0838 77.984 65.5098 78.158 65.9359C78.6394 67.2357 79.242 68.4872 79.9581 69.674C81.0261 71.3241 82.4542 72.3561 83.8762 72.5181C84.0122 72.5485 84.1542 72.538 84.2843 72.4881C84.3563 72.4401 84.4703 72.2661 84.4523 71.6361C84.2507 65.1981 82.2964 58.937 78.8 53.5274C75.357 48.2682 70.4809 44.1041 64.7475 41.5269C64.6534 41.5171 64.5629 41.4852 64.4834 41.4338C64.404 41.3824 64.3378 41.3129 64.2904 41.231C64.2429 41.1491 64.2155 41.0572 64.2104 40.9627C64.2052 40.8682 64.2225 40.7738 64.2608 40.6873C64.2991 40.6007 64.3573 40.5245 64.4307 40.4648C64.5041 40.405 64.5906 40.3635 64.6831 40.3435C64.7756 40.3236 64.8715 40.3258 64.963 40.3501C65.0545 40.3743 65.139 40.4198 65.2095 40.4829C71.1433 43.1446 76.1921 47.448 79.7601 52.8854C83.3711 58.4703 85.3896 64.9347 85.5983 71.5821C85.5983 71.9541 85.6403 72.9441 84.9203 73.4182C84.6609 73.5831 84.3573 73.6648 84.0502 73.6522Z" fill="#564079"/>
<path d="M57.787 79.7008C56.7944 79.7259 55.825 79.3985 55.0509 78.7768C54.9908 78.7319 54.9402 78.6755 54.9022 78.6109C54.8641 78.5463 54.8394 78.4747 54.8293 78.4004C54.8193 78.3261 54.8241 78.2506 54.8436 78.1782C54.8631 78.1057 54.8968 78.038 54.9429 77.9787C55.0399 77.8643 55.1762 77.7904 55.325 77.7715C55.4739 77.7526 55.6244 77.7902 55.7469 77.8767C56.0958 78.1476 56.4951 78.3466 56.9215 78.4619C57.348 78.5773 57.793 78.6068 58.231 78.5488H58.309C58.8487 78.5193 59.3771 78.3827 59.8633 78.1468C60.3496 77.9108 60.784 77.5804 61.1411 77.1747C61.346 76.9512 61.5021 76.6874 61.5992 76.4002C61.6963 76.113 61.7324 75.8086 61.7051 75.5067C61.7051 75.5067 61.7051 75.4586 61.7051 75.4286C61.6924 74.3269 61.5962 73.2277 61.4171 72.1405C61.4038 72.0194 61.4277 71.8972 61.4856 71.79C61.5435 71.6828 61.6326 71.5958 61.7411 71.5405C61.8544 71.4928 61.9796 71.481 62.0998 71.5067C62.22 71.5325 62.3294 71.5945 62.4131 71.6845C63.1551 72.6447 64.037 73.4881 65.0292 74.1866C65.4669 74.4964 65.9698 74.7019 66.4992 74.7872C67.0286 74.8725 67.5705 74.8353 68.0834 74.6786C69.3134 74.2106 70.5675 71.9605 70.2855 70.7305C70.2592 70.5831 70.2889 70.4312 70.3688 70.3047C70.4488 70.1781 70.5731 70.086 70.7175 70.0464C70.8648 70.0201 71.0167 70.0499 71.1432 70.1298C71.2698 70.2098 71.3619 70.3341 71.4015 70.4785C71.8095 72.2785 70.2614 75.0686 68.4914 75.7467C67.8134 75.9703 67.0925 76.0326 66.3862 75.9284C65.68 75.8242 65.0078 75.5565 64.4232 75.1466C63.8198 74.7591 63.2658 74.2997 62.7732 73.7786C62.8152 74.3006 62.8512 74.8466 62.8512 75.3926C62.8956 75.8467 62.8443 76.3051 62.7006 76.7381C62.557 77.1711 62.3241 77.5692 62.0171 77.9067C61.5611 78.438 61.0023 78.8713 60.3743 79.1807C59.7462 79.4901 59.0621 79.6691 58.363 79.7068H58.291L57.787 79.7008Z" fill="#564079"/>
<path d="M75.092 75.1865C74.6512 75.1703 74.2176 75.0705 73.814 74.8925C71.8159 74.0765 70.7599 71.7964 69.7338 69.5943C69.0258 68.0702 68.2998 66.4982 67.3337 65.5681C67.23 65.4617 67.1695 65.3205 67.164 65.1719C67.1584 65.0234 67.2082 64.878 67.3037 64.7641C67.4143 64.6629 67.5588 64.6068 67.7087 64.6068C67.8587 64.6068 68.0031 64.6629 68.1138 64.7641C69.2658 65.8502 70.0458 67.5242 70.7959 69.1443C71.7739 71.2384 72.6919 73.2184 74.276 73.8665C74.978 74.1485 75.7701 74.4665 76.8921 72.4864C77.1785 71.8867 77.3281 71.2309 77.3301 70.5663C77.3462 68.8003 77.0933 67.0421 76.5801 65.3521C76.5141 65.0941 76.4481 64.8301 76.3881 64.5661C76.3703 64.4936 76.367 64.4183 76.3785 64.3445C76.39 64.2707 76.4161 64.2 76.4551 64.1363C76.4942 64.0727 76.5455 64.0175 76.6061 63.9738C76.6667 63.9302 76.7354 63.899 76.8081 63.8821C76.9548 63.8536 77.1068 63.8809 77.2344 63.9586C77.362 64.0363 77.456 64.1587 77.4981 64.3021C77.5581 64.5601 77.6241 64.8181 77.6841 65.0821C78.234 66.884 78.4992 68.7607 78.4702 70.6443C78.4512 71.4791 78.2462 72.299 77.8701 73.0444C76.9101 74.6885 75.9681 75.1865 75.092 75.1865Z" fill="#564079"/>
<path d="M40.8968 74.85H40.7588C39.0788 74.802 37.0987 73.758 36.5587 71.8499C36.4048 71.2402 36.3721 70.6061 36.4627 69.9838C35.3745 70.6589 34.0748 70.9069 32.8145 70.6799C31.8317 70.48 30.9314 69.9902 30.2298 69.2736C29.5281 68.557 29.0574 67.6465 28.8784 66.6597C28.8136 66.4019 28.8114 66.1323 28.872 65.8735C28.9325 65.6146 29.054 65.374 29.2264 65.1716C29.2768 65.1118 29.339 65.0629 29.4091 65.0282C29.4792 64.9934 29.5557 64.9734 29.6338 64.9695C29.712 64.9655 29.7901 64.9777 29.8633 65.0053C29.9365 65.0329 30.0033 65.0752 30.0594 65.1297C30.1156 65.1842 30.1599 65.2497 30.1897 65.3221C30.2194 65.3945 30.2339 65.4722 30.2324 65.5504C30.2308 65.6286 30.2131 65.7057 30.1804 65.7768C30.1477 65.8479 30.1008 65.9115 30.0424 65.9637C30.0064 66.0057 29.9584 66.1557 30.0064 66.4857C30.1455 67.2382 30.5049 67.9324 31.039 68.4804C31.5731 69.0284 32.2579 69.4055 33.0065 69.5638C33.7381 69.6951 34.4918 69.6198 35.1828 69.3463C35.8739 69.0728 36.4751 68.6121 36.9187 68.0157C36.9892 67.9152 37.0909 67.8407 37.2081 67.8038C37.3252 67.7669 37.4513 67.7697 37.5667 67.8117C37.7527 67.7097 37.9207 67.6437 38.0287 67.5957C40.1335 66.73 42.3603 66.1976 44.629 66.0177C46.9151 65.8317 47.8631 66.6657 48.2291 67.3977C48.5099 67.964 48.6084 68.6033 48.5111 69.2278C48.4025 70.1441 48.034 71.0102 47.4491 71.7239C46.8867 72.3555 46.2212 72.887 45.481 73.296C44.287 74.016 42.6669 74.85 40.8968 74.85ZM37.8127 69.0118C37.5487 69.8172 37.4991 70.6775 37.6687 71.5079C38.0527 72.8939 39.5288 73.65 40.7888 73.68C42.3189 73.728 43.789 72.9539 44.923 72.2819C45.5498 71.9369 46.1154 71.4909 46.5971 70.9619C47.0416 70.4173 47.3225 69.7577 47.4071 69.0598C47.4683 68.6674 47.4162 68.2656 47.2571 67.9017C46.8371 67.1157 45.649 67.0437 44.725 67.1157C42.5799 67.29 40.4748 67.7961 38.4848 68.6158C38.2368 68.7021 38.0084 68.8367 37.8127 69.0118Z" fill="#564079"/>
<path d="M46.0571 78.6133C45.2561 78.6289 44.4666 78.4212 43.777 78.0133C43.1323 77.5947 42.613 77.0095 42.2739 76.3197C41.9348 75.63 41.7886 74.8613 41.8509 74.0952C41.8995 73.9773 41.9843 73.8779 42.0931 73.8115C42.2019 73.7451 42.3291 73.715 42.4561 73.7257C42.5831 73.7364 42.7035 73.7873 42.7996 73.871C42.8958 73.9547 42.9628 74.0668 42.991 74.1912C42.9544 74.737 43.0615 75.283 43.3015 75.7746C43.5415 76.2662 43.9061 76.6864 44.359 76.9933C44.8573 77.2642 45.4108 77.418 45.9774 77.4429C46.5441 77.4679 47.109 77.3633 47.6291 77.1373C48.7811 76.6379 49.8433 75.9527 50.7733 75.1092C52.2073 73.9092 53.5514 72.6131 53.6774 70.945C53.6989 70.8361 53.6989 70.724 53.6774 70.615C53.609 70.5046 53.5114 70.4153 53.3954 70.357C52.5289 69.88 51.51 69.7615 50.5573 70.027C49.6141 70.2876 48.7115 70.6773 47.8752 71.1851L47.7131 71.2691C47.6478 71.3048 47.5761 71.3273 47.502 71.3353C47.4279 71.3432 47.353 71.3363 47.2816 71.3151C47.2102 71.2939 47.1437 71.2588 47.0859 71.2117C47.0282 71.1647 46.9803 71.1067 46.9451 71.0411C46.8801 70.9068 46.8674 70.7531 46.9096 70.61C46.9517 70.4669 47.0457 70.3446 47.1731 70.267L47.3291 70.183C48.2539 69.6261 49.2515 69.2 50.2932 68.917C50.9125 68.7431 51.5604 68.6955 52.1984 68.7769C52.8365 68.8583 53.4516 69.0672 54.0074 69.391C54.3264 69.5724 54.5803 69.8495 54.7334 70.183C54.8346 70.4528 54.8696 70.7429 54.8354 71.0291C54.6854 73.1231 53.1494 74.6292 51.5173 75.9912C50.4904 76.9143 49.3187 77.6623 48.0492 78.2053C47.4151 78.4603 46.7403 78.5985 46.0571 78.6133Z" fill="#564079"/>
<path d="M52.1891 80.1503C51.422 80.1525 50.666 79.9671 49.987 79.6102C49.5371 79.4141 49.1525 79.0937 48.8783 78.6866C48.6041 78.2796 48.4517 77.8028 48.439 77.3121C48.4849 77.1939 48.5671 77.0932 48.6739 77.0245C48.7806 76.9559 48.9063 76.9229 49.033 76.9302C49.1597 76.9376 49.2808 76.9849 49.3789 77.0654C49.477 77.1458 49.547 77.2553 49.579 77.3781C49.579 77.9062 50.065 78.3682 50.515 78.5782C51.2191 78.9458 52.025 79.0703 52.8071 78.9322C54.028 78.6105 55.1366 77.9586 56.0113 77.0481C57.0193 76.1361 57.4453 75.3741 57.3613 74.648C57.2789 74.2614 57.0715 73.9126 56.7711 73.6556C56.4707 73.3986 56.094 73.2476 55.6992 73.226C54.7995 73.2413 53.9401 73.6023 53.2991 74.234C53.2481 74.3136 53.1789 74.3799 53.0973 74.4277C53.0157 74.4754 52.924 74.5032 52.8296 74.5087C52.7352 74.5143 52.6409 74.4975 52.5542 74.4597C52.4676 74.4218 52.3911 74.3641 52.331 74.2911C52.2709 74.2181 52.229 74.1319 52.2085 74.0396C52.188 73.9474 52.1897 73.8515 52.2133 73.76C52.2369 73.6684 52.2818 73.5838 52.3443 73.5129C52.4068 73.442 52.4852 73.3868 52.5731 73.352C53.4293 72.5418 54.5625 72.0889 55.7412 72.0859C56.4048 72.1203 57.0368 72.3797 57.5331 72.8215C58.0294 73.2632 58.3604 73.8609 58.4714 74.516C58.6394 75.9741 57.5713 77.1321 56.7553 77.8762C55.8013 78.7402 54.5172 79.7662 52.9811 80.0362C52.7209 80.097 52.4559 80.1351 52.1891 80.1503Z" fill="#564079"/>
<path d="M37.4646 68.5438C37.3312 68.5387 37.2034 68.4894 37.1013 68.4035C36.9991 68.3177 36.9285 68.2002 36.9006 68.0698C36.7146 66.9477 35.5445 66.2697 34.8605 65.9697C32.8744 65.0936 31.1463 65.1176 29.7303 66.0537C29.6036 66.1274 29.4544 66.1523 29.3107 66.1235C29.167 66.0948 29.0388 66.0144 28.9503 65.8977C27.1049 63.1166 24.5312 60.8958 21.51 59.4774C21.3774 59.409 21.275 59.2937 21.2229 59.1539C21.1708 59.0141 21.1726 58.8599 21.228 58.7214C21.2964 58.5888 21.4117 58.4865 21.5515 58.4343C21.6913 58.3822 21.8455 58.384 21.984 58.4394C25.0303 59.8618 27.6497 62.0591 29.5803 64.8116C31.2363 63.9296 33.1804 63.9656 35.3225 64.9196C36.8646 65.6037 37.8246 66.6537 38.0226 67.8777C38.0355 67.9515 38.0335 68.0271 38.0169 68.1C38.0002 68.173 37.9692 68.242 37.9256 68.3028C37.8821 68.3637 37.8268 68.4153 37.7631 68.4546C37.6994 68.4939 37.6285 68.5201 37.5546 68.5318L37.4646 68.5438Z" fill="#564079"/>
<path d="M29.862 34.9308C29.7241 34.9285 29.5917 34.8762 29.4894 34.7836C29.387 34.691 29.3218 34.5645 29.3057 34.4275C29.2895 34.2905 29.3237 34.1523 29.4017 34.0385C29.4797 33.9247 29.5964 33.8431 29.73 33.8088C35.0333 32.4592 40.2443 30.7697 45.3306 28.7506L45.7266 28.6006C47.4268 27.8581 49.2156 27.3379 51.0488 27.0525C55.333 26.5545 59.2691 28.4806 62.7433 30.1846C62.8175 30.2127 62.885 30.2559 62.9416 30.3115C62.9981 30.3671 63.0424 30.4339 63.0717 30.5077C63.1009 30.5814 63.1145 30.6604 63.1114 30.7397C63.1084 30.8189 63.0888 30.8967 63.054 30.968C63.0192 31.0393 62.97 31.1025 62.9093 31.1536C62.8487 31.2048 62.7781 31.2427 62.7019 31.265C62.6258 31.2872 62.5459 31.2934 62.4672 31.283C62.3886 31.2726 62.313 31.246 62.2453 31.2047C58.9091 29.5726 55.135 27.7246 51.1808 28.2046C49.4462 28.4893 47.7533 28.9871 46.1406 29.6866L45.7386 29.8366C40.6018 31.876 35.3386 33.5816 29.982 34.9428C29.9417 34.9433 29.9014 34.9393 29.862 34.9308Z" fill="#564079"/>
<path d="M110.44 63.1501H110.368L104.667 60.8941C104.627 60.8713 104.597 60.8348 104.581 60.7914C104.566 60.7479 104.567 60.7004 104.583 60.6574C104.6 60.6145 104.632 60.579 104.673 60.5574C104.713 60.5359 104.76 60.5297 104.805 60.5401L110.512 62.7961C110.558 62.8149 110.596 62.8511 110.616 62.8971C110.636 62.9431 110.637 62.9952 110.62 63.0421C110.604 63.0762 110.578 63.1047 110.546 63.124C110.514 63.1432 110.477 63.1524 110.44 63.1501Z" fill="#564079"/>
<path d="M112.366 60.9054H112.306C109.148 59.777 106.06 58.4606 103.059 56.9633C103.037 56.9522 103.018 56.937 103.002 56.9183C102.985 56.8997 102.973 56.8781 102.965 56.8547C102.957 56.8313 102.954 56.8065 102.956 56.7819C102.958 56.7573 102.964 56.7333 102.975 56.7113C102.986 56.6892 103.002 56.6695 103.02 56.6534C103.039 56.6372 103.061 56.6249 103.084 56.6171C103.107 56.6093 103.132 56.6061 103.157 56.6079C103.181 56.6096 103.205 56.6162 103.227 56.6272C106.216 58.113 109.289 59.4214 112.432 60.5454C112.474 60.561 112.509 60.591 112.532 60.63C112.554 60.669 112.562 60.7147 112.554 60.759C112.546 60.8032 112.523 60.8433 112.489 60.8723C112.454 60.9013 112.411 60.9172 112.366 60.9174V60.9054Z" fill="#564079"/>
<path d="M112.852 57.3729H112.792C109.3 56.1729 105.813 54.8048 102.435 53.3107C102.409 53.3026 102.386 53.2891 102.365 53.2711C102.345 53.2531 102.329 53.231 102.318 53.2063C102.307 53.1816 102.301 53.1548 102.301 53.1277C102.301 53.1006 102.306 53.0738 102.318 53.049C102.329 53.0243 102.345 53.0022 102.365 52.9841C102.385 52.9661 102.409 52.9526 102.435 52.9444C102.461 52.9363 102.488 52.9337 102.515 52.9369C102.542 52.94 102.568 52.9488 102.591 52.9627C105.957 54.4568 109.432 55.8188 112.912 57.0129C112.957 57.024 112.997 57.0519 113.023 57.091C113.048 57.1301 113.059 57.1774 113.051 57.2237C113.043 57.2699 113.019 57.3116 112.982 57.3403C112.945 57.3691 112.898 57.3829 112.852 57.3789V57.3729Z" fill="#564079"/>
<path d="M112.851 54.0147C112.83 54.0209 112.807 54.0209 112.785 54.0147C108.723 52.4187 105.585 51.0146 101.235 49.1185C101.194 49.0944 101.164 49.0563 101.15 49.0115C101.136 48.9666 101.139 48.9181 101.158 48.8752C101.177 48.8323 101.211 48.7979 101.254 48.7786C101.297 48.7593 101.346 48.7564 101.391 48.7705C105.723 50.6906 108.873 52.0707 112.923 53.6607C112.97 53.6807 113.008 53.718 113.028 53.765C113.048 53.812 113.049 53.8649 113.031 53.9127C113.013 53.9447 112.987 53.9711 112.955 53.9891C112.924 54.0071 112.888 54.016 112.851 54.0147Z" fill="#564079"/>
<path d="M111.844 50.1607H111.766L100.119 45.1745C100.073 45.1536 100.037 45.1154 100.019 45.0682C100.001 45.021 100.003 44.9687 100.023 44.9225C100.033 44.9 100.047 44.8796 100.065 44.8626C100.082 44.8456 100.103 44.8322 100.126 44.8233C100.149 44.8144 100.173 44.81 100.198 44.8106C100.222 44.8111 100.247 44.8166 100.269 44.8265L111.916 49.8127C111.939 49.8219 111.96 49.8356 111.977 49.8531C111.995 49.8705 112.009 49.8913 112.018 49.9142C112.028 49.9371 112.033 49.9617 112.033 49.9865C112.032 50.0114 112.027 50.0359 112.018 50.0587C112.001 50.0902 111.976 50.1164 111.945 50.1344C111.914 50.1524 111.879 50.1615 111.844 50.1607Z" fill="#564079"/>
<path d="M112.017 46.8657C111.989 46.8714 111.961 46.8714 111.933 46.8657L99.2244 41.0215C99.1975 41.014 99.1725 41.0007 99.1512 40.9825C99.13 40.9643 99.1129 40.9417 99.1013 40.9163C99.0897 40.8908 99.0838 40.8632 99.084 40.8352C99.0842 40.8072 99.0905 40.7796 99.1025 40.7543C99.1144 40.7291 99.1318 40.7067 99.1533 40.6888C99.1748 40.671 99.2 40.658 99.227 40.6509C99.2541 40.6437 99.2824 40.6426 99.3099 40.6476C99.3374 40.6525 99.3636 40.6634 99.3864 40.6795L112.095 46.5237C112.141 46.5447 112.177 46.5829 112.195 46.63C112.213 46.6772 112.211 46.7295 112.191 46.7757C112.172 46.8045 112.146 46.828 112.116 46.8438C112.085 46.8595 112.051 46.8671 112.017 46.8657Z" fill="#564079"/>
<path d="M110.782 42.3005C110.754 42.3062 110.725 42.3062 110.698 42.3005L97.8633 36.3423C97.8375 36.3334 97.814 36.3191 97.7942 36.3005C97.7744 36.2818 97.7587 36.2591 97.7484 36.2339C97.738 36.2088 97.7331 36.1817 97.734 36.1545C97.7349 36.1272 97.7416 36.1005 97.7536 36.0761C97.7656 36.0517 97.7826 36.0301 97.8036 36.0127C97.8246 35.9954 97.849 35.9827 97.8753 35.9755C97.9016 35.9684 97.9291 35.9669 97.9559 35.9711C97.9828 35.9754 98.0085 35.9853 98.0313 36.0002L110.866 41.9585C110.889 41.9688 110.909 41.9836 110.926 42.0019C110.943 42.0203 110.956 42.0419 110.964 42.0654C110.973 42.0889 110.976 42.1139 110.975 42.1388C110.973 42.1637 110.967 42.1881 110.956 42.2105C110.937 42.2393 110.911 42.2627 110.881 42.2785C110.85 42.2943 110.816 42.3019 110.782 42.3005Z" fill="#564079"/>
<path d="M107.361 35.8732H107.289C104.115 34.5892 100.881 33.3591 97.6889 32.2071C97.6655 32.199 97.6439 32.1864 97.6255 32.1699C97.6071 32.1534 97.5921 32.1334 97.5815 32.111C97.5709 32.0887 97.5648 32.0644 97.5637 32.0397C97.5625 32.015 97.5664 31.9903 97.5749 31.967C97.5913 31.9197 97.6256 31.8806 97.6704 31.8582C97.7153 31.8357 97.7671 31.8317 97.8149 31.847C101.025 32.9991 104.265 34.2471 107.415 35.5192C107.454 35.5369 107.486 35.5671 107.505 35.6049C107.525 35.6426 107.532 35.6859 107.524 35.7278C107.517 35.7697 107.495 35.8079 107.464 35.8364C107.432 35.8649 107.392 35.8821 107.349 35.8852L107.361 35.8732Z" fill="#564079"/>
<path d="M107.109 31.6362C107.084 31.6415 107.057 31.6415 107.031 31.6362L102.477 29.6381C102.437 29.614 102.407 29.5758 102.393 29.531C102.379 29.4861 102.381 29.4376 102.401 29.3947C102.42 29.3518 102.454 29.3174 102.497 29.2981C102.54 29.2789 102.588 29.276 102.633 29.2901L107.187 31.2881C107.21 31.2979 107.23 31.3121 107.247 31.3297C107.264 31.3474 107.278 31.3683 107.287 31.3912C107.296 31.414 107.3 31.4384 107.299 31.463C107.299 31.4875 107.293 31.5117 107.283 31.5341C107.267 31.5661 107.242 31.5927 107.212 31.6108C107.181 31.6289 107.145 31.6377 107.109 31.6362Z" fill="#564079"/>
<path d="M10.5353 25.6113C15.0355 27.2014 19.5897 28.6415 23.9279 30.0035C23.2198 33.1536 21.3898 35.8837 20.1597 38.8538C19.5385 40.4465 19.0017 42.0708 18.5517 43.72C16.3156 51.4243 14.1735 59.1526 12.1254 66.9049C8.40899 65.5702 4.58198 64.5663 0.688965 63.9048C4.65512 51.0103 8.23126 38.5478 10.5353 25.6113Z" fill="#564079"/>
<g opacity="0.13">
<path d="M28.8537 35.2843C27.8876 38.9505 26.1836 41.6566 24.9355 45.6887C24.1856 48.0463 23.5963 50.4519 23.1715 52.889C22.8954 53.9691 22.6854 55.0671 22.4754 56.1592C22.2236 57.1196 22.1343 58.1154 22.2114 59.1053C22.2639 59.3198 22.361 59.5208 22.4963 59.6953C22.6317 59.8698 22.8023 60.0139 22.997 60.118C23.1917 60.2222 23.4062 60.2842 23.6265 60.2999C23.8468 60.3156 24.0679 60.2848 24.2755 60.2093C24.7915 60.8093 25.3435 61.3253 25.8956 61.8654V61.8114C25.8596 60.7313 25.8716 59.6513 25.9316 58.5712C25.7485 57.9618 25.6338 57.3339 25.5895 56.6992C25.7996 55.4991 26.0696 54.3291 26.1896 53.099C26.7857 49.2249 27.7193 45.4102 28.9797 41.6986C29.3397 40.5945 29.6157 39.4545 30.0777 38.3865C30.4017 37.4204 30.9418 36.4424 30.9418 35.3863C30.9032 35.1442 30.7825 34.9227 30.5999 34.7591C30.4173 34.5954 30.184 34.4996 29.9391 34.4876C29.6942 34.4756 29.4527 34.5483 29.255 34.6934C29.0574 34.8385 28.9157 35.0471 28.8537 35.2843Z" fill="black"/>
</g>
<g opacity="0.13">
<path d="M29.9578 64.978C29.9317 65.0933 29.8668 65.1961 29.7739 65.2693C29.6811 65.3425 29.566 65.3816 29.4478 65.38C29.5357 65.4367 29.6346 65.474 29.7381 65.4896C29.8415 65.5051 29.9471 65.4984 30.0478 65.4701C30.2152 65.4157 30.3597 65.3072 30.4586 65.1616C30.5575 65.016 30.6051 64.8417 30.5938 64.666L29.9578 64.978Z" fill="black"/>
</g>
<g opacity="0.13">
<path d="M22.2114 59.106L22.1514 58.668C22.1524 58.816 22.1726 58.9632 22.2114 59.106Z" fill="black"/>
</g>
<path d="M18.9478 69.0142H18.8398C15.5937 68.4142 12.2395 67.7542 8.92739 66.8062C7.67279 66.3872 6.39698 66.0347 5.10525 65.7501C3.61185 65.4215 2.13921 65.0048 0.695078 64.5021C0.556897 64.4434 0.445732 64.335 0.383526 64.1984C0.32132 64.0618 0.31259 63.9068 0.359062 63.764C0.417665 63.6272 0.525038 63.517 0.660319 63.4549C0.7956 63.3929 0.949131 63.3833 1.09109 63.428C2.49194 63.913 3.92054 64.3137 5.36926 64.6281C6.6886 64.9199 7.99232 65.2784 9.27541 65.7021C12.3235 66.5781 15.4677 67.1902 18.5158 67.7782C19.8418 62.156 21.6419 56.6658 23.388 51.3496C24.42 48.1874 25.494 44.9173 26.4721 41.6052V41.5632C26.7961 40.7111 27.1501 39.8651 27.4861 39.0551C28.4814 36.9112 29.2283 34.6604 29.7122 32.3468C29.6993 32.3262 29.6831 32.308 29.6642 32.2928C29.6021 32.2966 29.5401 32.2842 29.4842 32.2568C26.6101 31.1705 23.6797 30.2391 20.7059 29.4667C17.1431 28.5669 13.6515 27.4057 10.2594 25.9926C10.1649 25.908 10.0996 25.7957 10.0729 25.6717C10.0462 25.5477 10.0594 25.4185 10.1108 25.3025C10.1621 25.1866 10.2488 25.0898 10.3586 25.0262C10.4683 24.9626 10.5953 24.9354 10.7215 24.9485C14.0645 26.3356 17.5036 27.4787 21.0119 28.3687C24.0042 29.1598 26.9525 30.1092 29.8442 31.2128C30.1295 31.2614 30.3891 31.4077 30.5785 31.6266C30.7678 31.8455 30.8752 32.1234 30.8822 32.4128C30.8848 32.4448 30.8848 32.4769 30.8822 32.5088C30.3867 34.9363 29.6115 37.2981 28.5722 39.5471C28.2361 40.3451 27.8941 41.1732 27.5761 42.0072C26.5921 45.3253 25.518 48.6074 24.48 51.7636C22.6079 57.4698 20.8439 62.864 19.5178 68.6182C19.4755 68.7352 19.398 68.8361 19.2959 68.907C19.1938 68.978 19.0721 69.0154 18.9478 69.0142Z" fill="#564079"/>
<path d="M12.2932 67.2723C12.2494 67.2781 12.205 67.2781 12.1612 67.2723C12.018 67.2315 11.895 67.1388 11.8163 67.0124C11.7376 66.886 11.7086 66.7348 11.7352 66.5882C14.7296 54.0235 18.632 41.6926 23.4117 29.6928C23.4186 29.5983 23.4478 29.5068 23.4969 29.4258C23.546 29.3448 23.6136 29.2765 23.6941 29.2267C23.7746 29.1768 23.8658 29.1467 23.9602 29.1388C24.0546 29.1309 24.1496 29.1455 24.2373 29.1814C24.3249 29.2173 24.4029 29.2734 24.4647 29.3452C24.5265 29.4169 24.5705 29.5023 24.593 29.5944C24.6154 29.6864 24.6158 29.7824 24.594 29.8746C24.5723 29.9668 24.529 30.0526 24.4677 30.1248C19.7115 42.0705 15.8271 54.3451 12.8452 66.8522C12.8132 66.9737 12.7414 67.0811 12.6414 67.1571C12.5414 67.2332 12.4189 67.2738 12.2932 67.2723Z" fill="#564079"/>
<path d="M85.5206 71.4139C85.409 71.4108 85.3004 71.3766 85.2071 71.3151C85.1138 71.2536 85.0395 71.1673 84.9926 71.0659C84.9403 70.9259 84.942 70.7715 84.9975 70.6328C85.053 70.4941 85.1582 70.3811 85.2926 70.3158C89.0788 68.6778 92.8949 66.9797 96.6391 65.2636C96.7649 65.2493 96.8921 65.2751 97.0024 65.3374C97.1127 65.3997 97.2004 65.4953 97.253 65.6106C97.3056 65.7258 97.3204 65.8547 97.2953 65.9788C97.2702 66.103 97.2064 66.216 97.1131 66.3017C93.3629 68.0178 89.5348 69.7218 85.7427 71.3659C85.6724 71.3959 85.597 71.4122 85.5206 71.4139Z" fill="#564079"/>
<path d="M75.9978 28.8115C75.9206 28.8116 75.8442 28.7959 75.7733 28.7654C75.7024 28.7348 75.6386 28.69 75.5857 28.6338C75.5328 28.5775 75.492 28.511 75.4659 28.4384C75.4398 28.3657 75.4288 28.2885 75.4338 28.2115L75.5958 12.1968C75.6045 12.0491 75.6675 11.9097 75.7727 11.8056C75.878 11.7015 76.0179 11.64 76.1658 11.6328C76.243 11.6327 76.3194 11.6483 76.3903 11.6789C76.4612 11.7095 76.525 11.7543 76.5779 11.8105C76.6308 11.8668 76.6716 11.9333 76.6977 12.0059C76.7238 12.0786 76.7347 12.1558 76.7298 12.2328L76.5678 28.2115C76.568 28.3655 76.5089 28.5138 76.4028 28.6255C76.2967 28.7372 76.1517 28.8038 75.9978 28.8115Z" fill="#564079"/>
<path d="M72.7879 16.8412C72.6518 16.8387 72.5206 16.7901 72.4158 16.7032C72.3078 16.6006 72.2418 16.4614 72.2307 16.3128C72.2196 16.1642 72.2642 16.0167 72.3558 15.8992C73.6505 14.38 74.7939 12.7381 75.77 10.997C75.8233 10.9094 75.8982 10.8369 75.9874 10.7865C76.0767 10.7361 76.1774 10.7094 76.28 10.709C76.3823 10.7094 76.4825 10.7382 76.5694 10.7922C76.6563 10.8463 76.7264 10.9234 76.772 11.015L76.886 11.231C77.6528 12.8621 78.5879 14.4085 79.6761 15.8452C79.7276 15.9037 79.7665 15.9721 79.7905 16.0462C79.8144 16.1203 79.823 16.1985 79.8155 16.276C79.8081 16.3536 79.7849 16.4288 79.7473 16.497C79.7096 16.5652 79.6584 16.6249 79.5968 16.6726C79.5352 16.7202 79.4645 16.7548 79.389 16.774C79.3136 16.7933 79.2349 16.7968 79.158 16.7845C79.0811 16.7722 79.0075 16.7443 78.9419 16.7024C78.8762 16.6606 78.8197 16.6057 78.7761 16.5412C77.7966 15.2689 76.9463 13.9021 76.238 12.4611C75.3562 13.9419 74.3527 15.3468 73.2379 16.6612C73.1812 16.7231 73.1113 16.7715 73.0334 16.8026C72.9555 16.8338 72.8716 16.847 72.7879 16.8412Z" fill="#564079"/>
<path d="M61.3091 23.8858C61.1563 23.8766 61.0128 23.8094 60.908 23.6979C60.8031 23.5863 60.7448 23.4389 60.7451 23.2858L60.9131 7.26519C60.9218 7.11742 60.9849 6.97809 61.0901 6.87398C61.1953 6.76986 61.3353 6.70832 61.4831 6.70117C61.636 6.71036 61.7795 6.7776 61.8843 6.88915C61.9892 7.0007 62.0474 7.1481 62.0472 7.3012L61.8792 23.3218C61.8705 23.4696 61.8074 23.6089 61.7022 23.713C61.597 23.8171 61.457 23.8787 61.3091 23.8858Z" fill="#564079"/>
<path d="M58.1053 11.9389C57.9692 11.9364 57.838 11.8877 57.7333 11.8009C57.6243 11.699 57.5572 11.5603 57.545 11.4116C57.5328 11.263 57.5764 11.1151 57.6673 10.9968C58.9639 9.47913 60.1075 7.8371 61.0814 6.09465C61.1347 6.00706 61.2096 5.9346 61.2989 5.88418C61.3882 5.83376 61.4889 5.80707 61.5914 5.80664C61.6945 5.80729 61.7954 5.83615 61.8832 5.8901C61.971 5.94405 62.0423 6.02101 62.0894 6.11265L62.1914 6.31666C62.9597 7.95195 63.8968 9.50244 64.9876 10.9428C65.039 11.0013 65.0779 11.0697 65.1019 11.1438C65.1259 11.2179 65.1344 11.2962 65.127 11.3737C65.1195 11.4512 65.0963 11.5264 65.0587 11.5946C65.0211 11.6628 64.9699 11.7226 64.9083 11.7702C64.8467 11.8179 64.7759 11.8524 64.7005 11.8717C64.625 11.8909 64.5464 11.8945 64.4695 11.8822C64.3925 11.8699 64.319 11.8419 64.2533 11.8001C64.1876 11.7582 64.1312 11.7034 64.0875 11.6389C63.108 10.3665 62.2578 8.99971 61.5494 7.55871C60.6657 9.03833 59.6623 10.4431 58.5493 11.7589C58.4916 11.8178 58.4224 11.8641 58.346 11.8951C58.2697 11.9261 58.1877 11.941 58.1053 11.9389Z" fill="#564079"/>
<path d="M44.6046 26.003C44.4517 25.9938 44.3082 25.9266 44.2034 25.8151C44.0985 25.7035 44.0403 25.5561 44.0405 25.403L44.2085 9.38238C44.2172 9.23461 44.2803 9.09528 44.3855 8.99116C44.4907 8.88705 44.6307 8.8255 44.7786 8.81836C44.9314 8.82754 45.0749 8.89479 45.1797 9.00634C45.2846 9.11788 45.3429 9.26529 45.3426 9.41838L45.1746 25.439C45.1659 25.5868 45.1028 25.7261 44.9976 25.8302C44.8924 25.9343 44.7524 25.9959 44.6046 26.003Z" fill="#564079"/>
<path d="M41.4007 14.0502C41.2639 14.0519 41.1313 14.0027 41.0287 13.9122C40.9197 13.8104 40.8526 13.6716 40.8404 13.5229C40.8282 13.3743 40.8718 13.2264 40.9627 13.1082C42.2592 11.5925 43.4028 9.95251 44.3768 8.21198C44.4294 8.12328 44.504 8.04963 44.5933 7.99813C44.6826 7.94663 44.7837 7.91902 44.8868 7.91797C44.9896 7.9229 45.0894 7.95419 45.1767 8.00883C45.2639 8.06347 45.3356 8.13963 45.3849 8.22998L45.4929 8.43999C46.2614 10.0701 47.1964 11.6164 48.283 13.0542C48.3296 13.1126 48.3642 13.1798 48.3846 13.2518C48.4051 13.3237 48.411 13.399 48.4021 13.4733C48.3931 13.5476 48.3695 13.6193 48.3326 13.6844C48.2957 13.7494 48.2462 13.8065 48.187 13.8522C48.0652 13.9395 47.9151 13.978 47.7663 13.9603C47.6175 13.9425 47.4808 13.8697 47.3829 13.7562C46.4047 12.483 45.5546 11.1163 44.8448 9.67604C43.9617 11.156 42.9583 12.5608 41.8447 13.8762C41.7865 13.934 41.7171 13.9793 41.6407 14.0092C41.5644 14.0391 41.4827 14.0531 41.4007 14.0502Z" fill="#564079"/>
</svg>
