<svg width="104" height="105" viewBox="0 0 104 105" fill="none" xmlns="http://www.w3.org/2000/svg">
<path d="M87.3558 17.5752C94.3482 24.5674 99.11 33.4761 101.039 43.1747C102.968 52.8732 101.978 62.9261 98.1943 72.0619C94.4101 81.1978 88.0018 89.0063 79.7798 94.5001C71.5578 99.994 61.8913 102.926 52.0027 102.926C42.1141 102.926 32.4476 99.994 24.2256 94.5001C16.0036 89.0063 9.59529 81.1978 5.81114 72.0619C2.02698 62.9261 1.03691 52.8732 2.96613 43.1747C4.89535 33.4761 9.65721 24.5674 16.6495 17.5752C26.0258 8.19908 38.7427 2.93164 52.0027 2.93164C65.2627 2.93164 77.9796 8.19908 87.3558 17.5752Z" fill="#564079"/>
<path d="M80.4971 51.7964L33.2891 73.5215V30.084L80.4971 51.7964Z" fill="white"/>
<path d="M51.9972 102.932C79.61 102.932 101.995 80.5476 101.995 52.9348C101.995 25.3221 79.61 2.9375 51.9972 2.9375C24.3845 2.9375 2 25.3221 2 52.9348C2 80.5476 24.3845 102.932 51.9972 102.932Z" stroke="white" stroke-width="3.9873"/>
</svg>
