<svg width="84" height="73" viewBox="0 0 84 73" fill="none" xmlns="http://www.w3.org/2000/svg">
<path d="M53.0655 46.846V33.0767C53.0655 31.6059 53.4918 31.1867 54.9768 31.1796C62.0178 31.1796 69.0587 31.1796 76.0997 31.1796C76.5282 31.1359 76.9587 31.2405 77.3195 31.4758C77.6802 31.7111 77.9494 32.063 78.082 32.4727C79.773 36.352 81.4995 40.2171 83.2331 44.0822C83.4488 44.5523 83.558 45.0642 83.5528 45.5813C83.5528 51.2369 83.5528 56.8924 83.5528 62.5479C83.5528 64.0187 83.1194 64.445 81.6416 64.445C80.718 64.445 79.7943 64.4947 78.8707 64.445C78.1602 64.4023 77.8618 64.6084 77.677 65.3544C77.2249 67.2456 76.2054 68.9533 74.7551 70.2487C73.3049 71.544 71.4933 72.3649 69.5632 72.6014C67.531 72.8671 65.4669 72.4821 63.6671 71.5018C61.8673 70.5215 60.4243 68.9962 59.5452 67.1448C59.2231 66.53 59.0002 65.8682 58.8845 65.1839C58.8063 64.5373 58.4937 64.4734 57.9182 64.4734C51.7985 64.4734 45.6811 64.4734 39.5662 64.4734C36.0137 64.4734 32.4044 64.4734 28.8235 64.4734C28.2551 64.4734 28.0064 64.5799 27.8501 65.1839C27.3636 67.3187 26.1664 69.225 24.4548 70.5904C22.7432 71.9558 20.6185 72.6995 18.429 72.6995C16.2394 72.6995 14.1148 71.9558 12.4031 70.5904C10.6915 69.225 9.49434 67.3187 9.00781 65.1839C8.86572 64.5728 8.63837 64.4307 8.04866 64.4378C6.0877 64.4805 4.11961 64.4378 2.15864 64.4378C0.908175 64.4378 0.425074 63.9547 0.417969 62.7185C0.417969 60.1536 0.417969 57.5816 0.417969 55.0167C0.417969 53.9865 0.936617 53.3755 1.7821 53.3613C2.62759 53.347 3.20309 53.9652 3.20309 54.9812C3.20309 56.9777 3.20309 58.967 3.20309 60.9564C3.20309 61.5106 3.33098 61.7024 3.91359 61.6669C5.24221 61.6243 6.57082 61.6172 7.89945 61.6669C8.60994 61.6669 8.90834 61.5177 9.09307 60.7646C9.58185 58.7139 10.7355 56.8826 12.3742 55.5562C14.0128 54.2299 16.0443 53.4831 18.1519 53.4323C20.1856 53.3634 22.1893 53.9374 23.8781 55.0726C25.5668 56.2078 26.8548 57.8465 27.5588 59.7557C27.5588 59.7557 27.5588 59.8125 27.5588 59.8339C27.7506 60.4307 27.772 61.2548 28.1699 61.5461C28.5677 61.8374 29.4558 61.6456 30.1166 61.6456C37.4773 61.6456 44.838 61.6456 52.1988 61.6456C52.9092 61.6456 53.094 61.468 53.0869 60.7504C53.0229 56.1393 53.0655 51.514 53.0655 46.846Z" fill="#564079"/>
<path d="M21.556 17.3231H40.5191C40.7794 17.309 41.0403 17.309 41.3006 17.3231C41.6481 17.3481 41.9733 17.5039 42.2107 17.7589C42.4481 18.014 42.58 18.3495 42.58 18.698C42.58 19.0464 42.4481 19.3819 42.2107 19.637C41.9733 19.8921 41.6481 20.0478 41.3006 20.0728C40.437 20.126 39.5709 20.126 38.7073 20.0728C37.947 20.0088 37.8192 20.293 37.8263 20.9822C37.8263 24.6199 37.7765 28.2576 37.876 31.8954C37.9186 33.6787 36.8031 34.2897 35.3324 33.7355C33.2933 32.954 31.1974 32.3146 29.1441 31.5614C28.5268 31.3233 27.843 31.3233 27.2257 31.5614C25.0516 32.3288 22.8633 33.0464 20.6749 33.764C19.2539 34.2471 18.4511 33.6787 18.4511 32.144C18.4511 28.3926 18.4511 24.6412 18.4511 20.8898C18.4511 20.2291 18.2664 20.0941 17.634 20.0941C13.1295 20.1225 8.62972 20.1225 4.13466 20.0941C3.42417 20.0941 3.17552 20.2149 3.17552 21.0177C3.17552 30.0765 3.17552 39.1353 3.17552 48.2012V48.8051C3.17552 49.9561 2.64975 50.6027 1.75453 50.5885C0.859306 50.5742 0.397461 49.9348 0.397461 48.8335V19.3836C0.397461 17.6855 0.766926 17.3231 2.49343 17.3231H21.556Z" fill="#564079"/>
<path d="M54.4942 0.69826C57.4277 0.715162 60.2352 1.89284 62.3028 3.9738C64.3705 6.05477 65.5301 8.86974 65.5282 11.8033C65.4468 13.4228 64.9843 15.0002 64.1782 16.4073C61.9615 20.7484 58.8353 24.4003 55.5102 27.9031C55.3875 28.0705 55.227 28.2066 55.0419 28.3004C54.8567 28.3943 54.6521 28.4432 54.4445 28.4432C54.2369 28.4432 54.0322 28.3943 53.8471 28.3004C53.6619 28.2066 53.5015 28.0705 53.3787 27.9031C50.0375 24.4912 47.1395 20.6718 44.7533 16.5352C40.5685 9.07498 46.7143 0.591686 54.4942 0.69826Z" fill="#564079"/>
<path d="M15.0481 38.1058H22.2312C23.4746 38.1058 23.9648 38.5819 23.9648 39.8181C23.9648 42.3806 23.9648 44.9455 23.9648 47.5128C23.9648 48.6922 23.4604 49.1824 22.2668 49.1824C17.3928 49.1824 12.5212 49.1824 7.65192 49.1824C6.45829 49.1824 5.96094 48.6922 5.96094 47.5057C5.96094 44.91 5.96094 42.3049 5.96094 39.6902C5.96094 38.5677 6.47251 38.0703 7.6164 38.0703L15.0481 38.1058Z" fill="#564079"/>
<path d="M23.9643 11.7821H31.8295C33.0089 11.7821 33.6413 12.2582 33.6626 13.1392C33.6839 14.0202 33.0302 14.5602 31.8792 14.5602C26.579 14.5602 21.2763 14.5602 15.9713 14.5602C14.6285 14.5602 13.8398 13.5228 14.4579 12.4997C14.6081 12.2518 14.827 12.0527 15.0881 11.9266C15.3491 11.8005 15.6411 11.7528 15.9287 11.7892L23.9643 11.7821Z" fill="#564079"/>
<path d="M28.824 3.46846C26.4012 3.46846 23.9784 3.46846 21.5628 3.46846C20.4544 3.46846 19.8363 2.97823 19.815 2.11142C19.7937 1.24462 20.4331 0.690436 21.5059 0.690436H36.199C36.5022 0.649618 36.8105 0.70778 37.0781 0.856274C37.3456 1.00477 37.5581 1.23566 37.6839 1.51461C37.7951 1.73372 37.8409 1.98025 37.8157 2.2247C37.7905 2.46914 37.6954 2.70115 37.5418 2.89296C37.3807 3.09725 37.1704 3.25723 36.9305 3.3579C36.6907 3.45857 36.4292 3.49662 36.1705 3.46846H28.824Z" fill="#564079"/>
<path d="M17.0442 9.01143H10.394C9.37088 9.01143 8.75273 8.49277 8.73852 7.65439C8.72431 6.81601 9.33535 6.2334 10.3442 6.2334H23.7371C24.0403 6.19259 24.3486 6.25075 24.6162 6.39924C24.8837 6.54774 25.0962 6.77862 25.222 7.05757C25.3328 7.2876 25.3731 7.54531 25.3377 7.79819C25.3023 8.05107 25.1928 8.28781 25.0231 8.47856C24.858 8.66061 24.6523 8.80118 24.4226 8.88883C24.193 8.97648 23.9459 9.00874 23.7015 8.98301L17.0442 9.01143Z" fill="#564079"/>
<path d="M41.9895 40.8555H47.2543C48.2774 40.8555 48.8955 41.3812 48.9026 42.2196C48.9097 43.058 48.2916 43.6406 47.2827 43.6406H36.6821C35.6732 43.6406 35.0622 43.0722 35.0764 42.2196C35.0849 42.0251 35.1333 41.8345 35.2186 41.6595C35.3039 41.4845 35.4242 41.3289 35.5721 41.2023C35.72 41.0757 35.8923 40.9809 36.0784 40.9237C36.2644 40.8665 36.4603 40.8481 36.6537 40.8697C38.4158 40.8555 40.2346 40.8555 41.9895 40.8555Z" fill="#564079"/>
<path d="M41.8899 49.1894C40.1918 49.1894 38.4937 49.1894 36.7956 49.1894C35.6943 49.1894 35.0691 48.6921 35.0549 47.8253C35.0407 46.9585 35.673 46.4043 36.753 46.4043H47.2043C48.2843 46.4043 48.9166 46.9372 48.9024 47.8253C48.8882 48.7134 48.263 49.1894 47.1617 49.1894C45.4068 49.1965 43.6519 49.1894 41.8899 49.1894Z" fill="#564079"/>
<path d="M55.8652 47.732C55.8652 43.4051 55.8652 39.0711 55.8652 34.7442C55.8652 34.1048 56.0073 33.9058 56.6681 33.9343C57.9896 33.9911 59.3182 33.9982 60.6468 33.9343C61.3573 33.9343 61.4426 34.1403 61.4355 34.7584C61.4355 37.9628 61.4355 41.1529 61.4355 44.3714C61.4355 46.034 61.8121 46.4176 63.4533 46.4176C68.9596 46.4176 74.4731 46.4176 79.9865 46.4176C80.6473 46.4176 80.8604 46.5526 80.8533 47.256C80.8154 51.789 80.8154 56.3195 80.8533 60.8478C80.8533 61.5583 80.6544 61.7501 79.9936 61.6861C79.3329 61.6222 78.6152 61.8638 78.1179 61.5938C77.6206 61.3238 77.72 60.4712 77.514 59.8886C76.8245 57.9753 75.5536 56.3259 73.8793 55.1715C72.205 54.0171 70.2115 53.4156 68.1781 53.4515C66.0686 53.4781 64.027 54.201 62.3708 55.5077C60.7145 56.8145 59.5365 58.6318 59.0198 60.6772C58.8138 61.5298 58.4799 61.7288 57.6557 61.6932C55.8937 61.6293 55.8936 61.6932 55.8936 59.8673L55.8652 47.732Z" fill="#FEFEFE"/>
<path d="M79.9298 43.6485H77.6562C73.3932 43.6485 69.18 43.6485 64.9455 43.6485C64.306 43.6485 64.1213 43.4993 64.1355 42.8457C64.171 40.1103 64.1355 37.3678 64.1355 34.6324C64.1355 34.0569 64.2989 33.9219 64.846 33.9219C68.2493 33.9219 71.6525 33.9219 75.0487 33.9219C75.4466 33.9219 75.7592 33.9219 75.9297 34.3837C77.2157 37.3393 78.5372 40.2808 79.8445 43.2222C79.8864 43.3613 79.9149 43.504 79.9298 43.6485Z" fill="#FEFEFE"/>
<path d="M25.3495 63.1073C25.3383 64.4768 24.9214 65.8121 24.1515 66.9447C23.3816 68.0773 22.2933 68.9563 21.0241 69.4706C19.7548 69.9849 18.3617 70.1115 17.0205 69.8343C15.6794 69.5572 14.4505 68.8887 13.4891 67.9135C12.5277 66.9382 11.8769 65.6998 11.619 64.3548C11.3612 63.0099 11.5077 61.6186 12.0402 60.3569C12.5727 59.0952 13.4672 58.0196 14.6107 57.2661C15.7542 56.5125 17.0954 56.1148 18.4648 56.1232C19.3755 56.1297 20.276 56.3155 21.1148 56.67C21.9536 57.0245 22.7144 57.5408 23.3537 58.1893C23.993 58.8379 24.4983 59.606 24.8408 60.4498C25.1832 61.2937 25.3561 62.1967 25.3495 63.1073Z" fill="#FEFEFE"/>
<path d="M75.2335 63.0717C75.2293 64.4412 74.8193 65.7787 74.0552 66.9152C73.2912 68.0517 72.2074 68.9363 70.9408 69.4571C69.6742 69.978 68.2817 70.1117 66.9391 69.8414C65.5966 69.5712 64.3642 68.909 63.3979 67.9387C62.4315 66.9683 61.7744 65.7333 61.5096 64.3896C61.2448 63.046 61.3843 61.654 61.9103 60.3896C62.4363 59.1251 63.3253 58.045 64.465 57.2856C65.6046 56.5262 66.9438 56.1217 68.3133 56.1231C70.1519 56.1287 71.9131 56.8635 73.2105 58.1662C74.5078 59.4689 75.2354 61.2331 75.2335 63.0717Z" fill="#FEFEFE"/>
<path d="M35.0547 30.6302C33.044 29.9694 31.1257 29.3584 29.2287 28.6905C28.5416 28.4327 27.7843 28.4327 27.0972 28.6905C25.186 29.401 23.2392 29.9836 21.2285 30.6515C21.2285 27.2269 21.2285 23.9089 21.2285 20.5909C21.2285 20.2001 21.3706 20.1007 21.733 20.1078C25.9959 20.1078 30.2589 20.1078 34.5219 20.1078C34.9197 20.1078 35.076 20.2001 35.076 20.6335C35.0476 23.9018 35.0547 27.1914 35.0547 30.6302Z" fill="#FEFEFE"/>
<path d="M62.7717 11.4833C62.7173 12.8403 62.3293 14.1629 61.642 15.3342C59.8302 18.7872 57.379 21.7286 54.7928 24.6559C54.5371 24.9401 54.3808 24.9543 54.0823 24.6559C51.4748 21.6789 48.9455 18.6522 47.0982 15.121C46.3236 13.7896 45.9915 12.2467 46.1499 10.7145C46.3082 9.18237 46.9487 7.73998 47.9792 6.5951C48.9289 5.31967 50.245 4.36428 51.7519 3.85648C53.2589 3.34867 54.8848 3.31262 56.4128 3.75313C59.7521 4.59151 61.8054 6.82956 62.5585 10.2115C62.7006 10.6733 62.729 11.1636 62.7717 11.4833Z" fill="#FEFEFE"/>
<path d="M14.941 46.4197C13.1293 46.4197 11.3175 46.3842 9.49864 46.4197C8.83078 46.4197 8.68869 46.2208 8.71 45.6026C8.75974 44.2456 8.71 42.8957 8.71 41.5386C8.71 41.0413 8.78814 40.8281 9.35653 40.8281C13.1032 40.8565 16.8475 40.8565 20.5894 40.8281C21.0939 40.8281 21.2076 40.9986 21.2005 41.4676C21.2005 42.8886 21.165 44.3451 21.2005 45.7874C21.2005 46.306 21.0086 46.3913 20.5539 46.3913C18.6853 46.4126 16.7883 46.4197 14.941 46.4197Z" fill="#FEFEFE"/>
<path d="M22.5783 63.0155C22.5853 63.8399 22.347 64.6478 21.8936 65.3364C21.4403 66.0251 20.7924 66.5633 20.0323 66.8827C19.2722 67.2021 18.4343 67.2883 17.6251 67.1302C16.8159 66.9721 16.0721 66.577 15.4881 65.995C14.9041 65.413 14.5064 64.6705 14.3455 63.8619C14.1846 63.0532 14.2679 62.215 14.5847 61.4539C14.9015 60.6927 15.4375 60.0429 16.1246 59.5872C16.8117 59.1315 17.6187 58.8904 18.4432 58.8946C19.5352 58.902 20.5805 59.3381 21.354 60.1089C22.1274 60.8797 22.5671 61.9235 22.5783 63.0155Z" fill="#564079"/>
<path d="M68.285 67.2014C67.4611 67.1971 66.6572 66.948 65.9752 66.4859C65.2932 66.0237 64.7639 65.3693 64.4545 64.6057C64.1452 63.8422 64.0697 63.0039 64.2378 62.1974C64.4058 61.3908 64.8097 60.6524 65.3982 60.0759C65.9868 59.4994 66.7333 59.1108 67.5432 58.9594C68.353 58.8081 69.1895 58.9008 69.9465 59.2258C70.7036 59.5508 71.3469 60.0935 71.7949 60.7849C72.2429 61.4763 72.4753 62.2852 72.4627 63.109C72.4422 64.2027 71.9928 65.2446 71.2113 66.0101C70.4299 66.7756 69.3789 67.2035 68.285 67.2014Z" fill="#564079"/>
<path d="M48.9095 11.7251C48.9207 10.63 49.2562 9.56284 49.8735 8.65825C50.4908 7.75367 51.3623 7.05226 52.3779 6.64259C53.3936 6.23292 54.5078 6.13335 55.58 6.35645C56.6522 6.57956 57.6342 7.11534 58.4021 7.89614C59.1701 8.67694 59.6894 9.66776 59.8947 10.7435C60.0999 11.8193 59.9818 12.9317 59.5553 13.9404C59.1288 14.9491 58.413 15.8088 57.4983 16.4109C56.5835 17.0131 55.5109 17.3308 54.4158 17.3238C53.6862 17.3192 52.9647 17.1705 52.2927 16.8864C51.6207 16.6023 51.0115 16.1882 50.4999 15.668C49.9883 15.1479 49.5844 14.5318 49.3115 13.8552C49.0386 13.1786 48.902 12.4547 48.9095 11.7251Z" fill="#564079"/>
<path d="M19.808 63.0866C19.8096 63.2749 19.7728 63.4616 19.6998 63.6352C19.6268 63.8088 19.5192 63.9657 19.3836 64.0963C19.2479 64.227 19.0871 64.3286 18.9108 64.3949C18.7346 64.4613 18.5467 64.491 18.3586 64.4823C18.1704 64.4736 17.986 64.4267 17.8167 64.3443C17.6473 64.2619 17.4965 64.1459 17.3735 64.0033C17.2505 63.8607 17.1579 63.6946 17.1012 63.5149C17.0446 63.3353 17.0252 63.1461 17.0442 62.9587C17.0799 62.6062 17.2493 62.2807 17.5176 62.0493C17.7859 61.8178 18.1327 61.698 18.4866 61.7144C18.8406 61.7308 19.1748 61.8821 19.4206 62.1374C19.6663 62.3926 19.805 62.7323 19.808 63.0866Z" fill="#FCFCFD"/>
<path d="M68.3703 61.6641C68.6465 61.6718 68.9141 61.7619 69.1387 61.9228C69.3633 62.0837 69.5346 62.3081 69.6307 62.5671C69.7268 62.8262 69.7433 63.108 69.678 63.3765C69.6126 63.6449 69.4686 63.8877 69.2643 64.0737C69.0599 64.2597 68.8046 64.3803 68.5312 64.42C68.2578 64.4598 67.9787 64.4169 67.7299 64.2969C67.481 64.1769 67.2738 63.9852 67.1347 63.7464C66.9956 63.5077 66.931 63.2329 66.9493 62.9572C66.9813 62.6029 67.1451 62.2735 67.4082 62.0341C67.6713 61.7947 68.0146 61.6626 68.3703 61.6641Z" fill="#FCFCFD"/>
<path d="M57.2156 11.7601C57.2212 12.3096 57.0633 12.8484 56.762 13.3079C56.4606 13.7675 56.0294 14.1271 55.5232 14.341C55.017 14.5548 54.4586 14.6134 53.919 14.5091C53.3795 14.4048 52.8831 14.1425 52.493 13.7554C52.1029 13.3683 51.8367 12.874 51.7283 12.3353C51.6199 11.7965 51.6741 11.2377 51.884 10.7299C52.094 10.222 52.4502 9.78805 52.9074 9.48315C53.3646 9.17826 53.9022 9.01621 54.4517 9.01759C55.1799 9.02125 55.8776 9.3107 56.3945 9.82362C56.9114 10.3366 57.2063 11.0319 57.2156 11.7601Z" fill="#FEFEFE"/>
</svg>
