<svg width="61" height="88" viewBox="0 0 61 88" fill="none" xmlns="http://www.w3.org/2000/svg">
<path d="M5.76036 43.6547V4.01091C5.76036 1.4023 7.03646 0.119141 9.63802 0.119141H51.2983C53.7729 0.119141 55.0843 1.43049 55.0843 3.91925V83.4748C55.0843 85.9635 53.7729 87.2749 51.2912 87.2749H9.54645C7.0718 87.2749 5.76036 85.9635 5.76036 83.4748C5.75566 70.2014 5.75566 56.9281 5.76036 43.6547Z" fill="#564079"/>
<path d="M17.0403 70.6427C16.9909 72.7578 16.9909 72.7578 15.1367 71.7496C14.3471 71.3125 14.1849 71.4041 14.1849 72.3136C14.1849 73.7801 14.1497 75.2465 14.1849 76.7059C14.1849 77.3405 13.9946 77.4956 13.3953 77.4744C12.2532 77.4321 11.104 77.4744 9.96182 77.4744C8.98888 77.4744 8.59406 77.0655 8.55176 76.0644C8.55176 75.8881 8.55176 75.7118 8.55176 75.5356C8.55176 54.0322 8.55176 32.5264 8.55176 11.0183C8.55176 10.1089 8.79849 9.9326 9.66567 9.93965C23.5501 9.96785 37.4345 9.96785 51.3189 9.93965C52.0732 9.93965 52.2917 10.0948 52.2917 10.8914C52.2635 32.4841 52.2635 54.0768 52.2917 75.6695C52.2917 77.1642 51.9886 77.4603 50.4939 77.4603C48.9993 77.4603 47.4412 77.4603 45.9183 77.4603C45.453 77.4603 45.2132 77.3898 45.2485 76.854C45.2485 64.9907 45.2485 53.1227 45.2485 41.25C45.2451 41.1937 45.2451 41.1372 45.2485 41.0808L45.3261 40.968C45.617 40.8348 45.9388 40.7836 46.2567 40.8199C47.2226 40.7847 47.6668 40.4886 47.7655 39.8399C47.8501 39.0362 47.3424 38.6978 46.6515 38.5286C45.5981 38.4498 44.5408 38.4381 43.4859 38.4933C33.9257 38.4933 24.3609 38.4933 14.7913 38.4933C14.5872 38.4758 14.382 38.4758 14.1779 38.4933C13.6139 38.6414 13.0992 38.8741 13.0498 39.5438C13.03 39.8551 13.121 40.1633 13.3069 40.4137C13.4928 40.6641 13.7614 40.8405 14.0651 40.9116C14.797 40.9644 15.5313 40.9786 16.2647 40.9539C16.3973 40.9369 16.5319 40.9495 16.659 40.9908C16.786 41.0321 16.9023 41.1011 16.9995 41.1929C17.0966 41.2846 17.1721 41.3968 17.2206 41.5213C17.2692 41.6458 17.2895 41.7795 17.28 41.9127C17.28 42.237 17.28 42.5543 17.28 42.8786C17.28 51.5881 17.28 60.2835 17.28 68.9647C17.3959 69.535 17.3112 70.1277 17.0403 70.6427Z" fill="#FEFEFE"/>
<path d="M17.0402 70.6433C17.0402 61.2429 17.0402 51.8284 17.0402 42.3999C17.0402 41.2366 17.0402 41.2648 15.8417 41.2295C15.1366 41.2295 14.3893 41.4128 13.7266 41.0744C14.2906 40.602 14.9604 40.7994 15.5879 40.7853C16.2153 40.7712 16.7511 40.736 16.8921 39.9605C16.9626 39.6009 17.2799 39.4669 17.5972 39.4176C17.9454 39.3728 18.2967 39.3563 18.6477 39.3682H42.3649C42.8609 39.2978 43.3667 39.3687 43.8243 39.5727C43.9973 39.8138 44.0938 40.1014 44.1013 40.3981C44.1089 40.6948 44.0271 40.9869 43.8666 41.2366V72.5258C43.8666 75.078 43.8666 77.6231 43.8666 80.1753C43.8828 80.7917 43.7185 81.3994 43.3942 81.9238C42.8795 82.7487 42.6891 82.7769 41.9841 82.1776C41.7543 81.9944 41.4788 81.8774 41.1874 81.8392C40.0523 81.6559 39.6787 81.2329 39.6787 80.0837C39.6787 77.5033 39.58 74.9229 39.6787 72.3284C39.7774 70.2133 37.8526 69.4166 36.5342 70.5376C36.4428 70.6323 36.3333 70.7075 36.2122 70.759C36.0911 70.8104 35.9608 70.8369 35.8292 70.8369C35.6976 70.8369 35.5674 70.8104 35.4462 70.759C35.3251 70.7075 35.2156 70.6323 35.1242 70.5376C34.6602 70.0962 34.0444 69.85 33.404 69.85C32.7636 69.85 32.1476 70.0962 31.6836 70.5376C31.5049 70.7103 31.266 70.8069 31.0174 70.8069C30.7688 70.8069 30.5299 70.7103 30.3511 70.5376C29.8771 70.0826 29.2456 69.8285 28.5886 69.8285C27.9315 69.8285 27.3 70.0826 26.826 70.5376C26.7441 70.6196 26.6469 70.6848 26.5398 70.7292C26.4327 70.7736 26.318 70.7965 26.2021 70.7965C26.0862 70.7965 25.9714 70.7736 25.8643 70.7292C25.7572 70.6848 25.66 70.6196 25.5781 70.5376C25.0929 70.0743 24.4477 69.8158 23.7768 69.8158C23.1058 69.8158 22.4607 70.0743 21.9754 70.5376C21.6863 70.7632 21.362 70.9817 20.9602 70.6433C20.4343 70.135 19.7315 69.8509 19.0002 69.8509C18.2688 69.8509 17.566 70.135 17.0402 70.6433Z" fill="#FEFDF8"/>
<path d="M26.9043 4.31383C25.8185 4.31383 24.7398 4.31383 23.654 4.31383C23.1676 4.31383 22.7304 4.20808 22.6952 3.65815C22.6599 3.10823 23.1394 2.95312 23.5906 2.95312C25.7809 2.95312 27.9782 2.95312 30.1826 2.95312C30.6338 2.95312 31.1133 3.08708 31.0992 3.65815C31.0851 4.22923 30.648 4.36318 30.1615 4.36318C29.0758 4.30678 27.99 4.31383 26.9043 4.31383Z" fill="#8471A2"/>
<path d="M43.8383 41.243L43.796 39.7201C43.5351 38.8247 42.8936 38.6907 42.0405 38.6907C33.1618 38.719 24.2855 38.719 15.4115 38.6907C14.8686 38.6907 14.2835 38.8388 13.8252 38.3876C14.1072 38.162 14.4456 38.2466 14.7558 38.2466H46.0803C46.3976 38.2466 46.7289 38.162 47.0179 38.3805C46.9492 38.4762 46.856 38.5515 46.7481 38.5987C46.6401 38.6458 46.5215 38.663 46.4046 38.6484C45.5867 38.6061 45.4387 39.0715 45.474 39.7483C45.5579 40.2091 45.4728 40.6847 45.2343 41.0878C44.7639 40.9994 44.2778 41.0534 43.8383 41.243Z" fill="#8471A2"/>
<path d="M30.4218 8.66987C46.7757 8.66987 60.0331 8.64147 60.0331 8.60642C60.0331 8.57138 46.7757 8.54297 30.4218 8.54297C14.068 8.54297 0.810547 8.57138 0.810547 8.60642C0.810547 8.64147 14.068 8.66987 30.4218 8.66987Z" fill="#776592"/>
<path d="M36.0333 4.30645C35.5962 4.30645 35.152 4.30645 34.7149 4.30645C34.6183 4.31323 34.5213 4.30002 34.43 4.26764C34.3386 4.23526 34.255 4.1844 34.1842 4.11824C34.1134 4.05209 34.057 3.97205 34.0185 3.88313C33.98 3.79421 33.9603 3.69831 33.9605 3.60142C33.9492 3.5061 33.9596 3.40945 33.991 3.31875C34.0225 3.22806 34.074 3.14567 34.1419 3.07779C34.2098 3.00992 34.2922 2.95833 34.3829 2.92691C34.4736 2.89549 34.5702 2.88505 34.6655 2.89639C35.6284 2.84704 36.5933 2.84704 37.5562 2.89639C37.6463 2.8933 37.7359 2.91008 37.8187 2.94555C37.9015 2.98102 37.9755 3.03431 38.0354 3.10162C38.0953 3.16892 38.1397 3.2486 38.1653 3.33498C38.1909 3.42137 38.1972 3.51233 38.1837 3.60142C38.1678 3.7772 38.0865 3.94063 37.956 4.05941C37.8254 4.1782 37.6552 4.24371 37.4787 4.243C36.971 4.32055 36.4986 4.30645 36.0333 4.30645Z" fill="#8471A2"/>
<path d="M40.1093 83.264H17.2451V83.0948H18.1123C24.9511 83.0948 31.7829 83.0948 38.6217 83.1371C39.1222 83.1371 39.6157 82.4321 40.1163 83.0877C40.1798 83.13 40.2009 83.1723 40.1797 83.2076C40.1586 83.2428 40.1304 83.264 40.1093 83.264Z" fill="#5E4A7F"/>
<path d="M38.2129 80.9093V71.8145H38.2975V80.9798L38.2129 80.9093Z" fill="#7A6994"/>
<path d="M40.1094 83.263V83.0938H41.4841V83.2771L40.1094 83.263Z" fill="#6E5B8B"/>
<path d="M39.8205 23.9206C39.7858 24.8876 39.5855 25.8414 39.2283 26.7407C39.052 27.199 38.8405 27.6854 38.2483 27.4951C37.656 27.3047 37.7265 26.7548 37.9028 26.2472C38.4159 24.9273 38.5558 23.4916 38.307 22.0976C38.0583 20.7035 37.4306 19.4048 36.4927 18.3438C35.3615 17.015 33.8289 16.0901 32.1261 15.7085C30.4232 15.327 28.6424 15.5096 27.0524 16.2287C25.4565 16.9511 24.147 18.1849 23.331 19.7351C22.5151 21.2853 22.2392 23.0632 22.5472 24.7877C22.8608 26.4702 23.7073 28.0072 24.9616 29.1714C26.216 30.3357 27.8118 31.0654 29.5129 31.2529C29.7738 31.2529 30.0346 31.3234 30.3026 31.3304C30.7679 31.3304 31.1416 31.5349 31.1275 32.0354C31.1134 32.536 30.6974 32.7405 30.1968 32.7405C28.6984 32.6871 27.2322 32.2916 25.9102 31.5842C23.9701 30.54 22.4649 28.8394 21.664 26.7868C20.8631 24.7342 20.8188 22.4636 21.539 20.3813C22.2817 18.3068 23.7243 16.5559 25.6184 15.43C27.5125 14.3041 29.7398 13.8735 31.9171 14.2123C36.535 15.0019 39.8346 18.8444 39.8205 23.9206Z" fill="#564079"/>
<path d="M13.8254 38.3935H23.4913H42.5765C43.8244 38.3935 43.8385 38.1185 43.7962 39.6907C35.1008 39.6907 26.4055 39.6907 17.7101 39.6907C17.1602 39.6907 16.9487 39.8529 17.0051 40.3957C17.0615 40.9386 16.8641 41.1572 16.3 41.1008C15.4258 41.0514 14.5445 41.1008 13.6632 41.1008C12.4153 40.0855 12.4788 38.9716 13.8254 38.3935Z" fill="#564179"/>
<path d="M29.4421 24.0122L32.1141 20.2544C32.2408 20.0601 32.3798 19.874 32.5301 19.6974C32.612 19.5827 32.7159 19.4855 32.8358 19.4115C32.9558 19.3375 33.0892 19.2882 33.2285 19.2665C33.3677 19.2448 33.5099 19.2512 33.6466 19.2852C33.7834 19.3193 33.912 19.3803 34.0248 19.4647C34.1557 19.5374 34.2694 19.6373 34.3582 19.7577C34.4471 19.8781 34.509 20.0162 34.5397 20.1627C34.5705 20.3091 34.5693 20.4605 34.5365 20.6065C34.5036 20.7524 34.4397 20.8896 34.3491 21.0088C33.1153 22.8207 31.8462 24.6185 30.549 26.3811C30.4616 26.5116 30.3463 26.6212 30.2115 26.702C30.0767 26.7827 29.9258 26.8327 29.7694 26.8482C29.6131 26.8637 29.4552 26.8444 29.3072 26.7916C29.1592 26.7389 29.0247 26.6541 28.9133 26.5432C28.2083 26.0074 27.5033 25.4504 26.8758 24.8723C26.7537 24.7872 26.651 24.6774 26.5742 24.5498C26.4975 24.4223 26.4486 24.2801 26.4306 24.1323C26.4126 23.9846 26.426 23.8347 26.4699 23.6925C26.5138 23.5503 26.5873 23.419 26.6854 23.3072C26.772 23.1773 26.886 23.0679 27.0193 22.9867C27.1526 22.9054 27.302 22.8543 27.4572 22.8368C27.6123 22.8194 27.7693 22.836 27.9173 22.8856C28.0654 22.9352 28.2008 23.0165 28.3141 23.1239C28.6948 23.3918 29.0473 23.702 29.4421 24.0122Z" fill="#564079"/>
<path d="M45.2344 41.096C45.2344 40.8351 45.2344 40.5672 45.2344 40.3064C45.2344 38.5085 45.2343 38.5085 47.0321 38.3887C47.2059 38.4162 47.3719 38.48 47.5194 38.5759C47.6669 38.6718 47.7926 38.7976 47.8883 38.9452C47.984 39.0928 48.0477 39.2588 48.0751 39.4326C48.1025 39.6064 48.0931 39.784 48.0474 39.9538C48.0266 40.1282 47.9712 40.2967 47.8843 40.4494C47.7975 40.6021 47.6811 40.7359 47.5419 40.8429C47.4027 40.95 47.2434 41.0281 47.0735 41.0728C46.9037 41.1175 46.7267 41.1278 46.5528 41.103L45.2344 41.096Z" fill="#574179"/>
<path d="M37.289 29.512C37.2874 29.6301 37.2586 29.7462 37.2048 29.8514C37.151 29.9565 37.0736 30.0479 36.9788 30.1183C36.1385 30.9363 35.1504 31.5871 34.067 32.036C33.6299 32.2122 33.2492 32.184 33.0377 31.7046C32.996 31.6176 32.9738 31.5226 32.9727 31.4261C32.9716 31.3297 32.9915 31.2341 33.0311 31.1462C33.0707 31.0582 33.1291 30.98 33.2021 30.9169C33.275 30.8539 33.3609 30.8075 33.4536 30.781C34.4194 30.358 35.3062 29.7739 36.0763 29.0537C36.1727 28.9404 36.3044 28.8628 36.4502 28.8334C36.596 28.804 36.7473 28.8245 36.8801 28.8915C36.9992 28.9466 37.1007 29.0339 37.1729 29.1435C37.2452 29.2531 37.2854 29.3807 37.289 29.512Z" fill="#57417A"/>
<path d="M20.4322 56.021C20.9328 55.9646 21.2571 56.021 21.4897 56.4229C21.622 56.6202 21.8132 56.7707 22.036 56.853C22.2588 56.9353 22.5018 56.9451 22.7306 56.8811C22.9026 56.8707 23.0659 56.8023 23.1939 56.6871C23.322 56.5718 23.4072 56.4165 23.4356 56.2466C23.4773 56.0718 23.4564 55.8879 23.3766 55.7269C23.2967 55.5658 23.1629 55.4379 22.9985 55.3653C22.4909 55.1397 21.9551 54.9776 21.4404 54.7661C20.5944 54.4206 19.8611 53.9835 19.8188 52.9189C19.7793 52.4723 19.8992 52.0262 20.1573 51.6596C20.4154 51.2931 20.7951 51.0298 21.2289 50.9166C21.3727 50.8846 21.498 50.7968 21.5773 50.6726C21.6565 50.5484 21.6834 50.3978 21.6519 50.2539C21.5743 49.6546 21.8704 49.5488 22.4203 49.5488C22.9703 49.5488 23.062 49.8097 23.0126 50.2539C22.9892 50.3326 22.9837 50.4156 22.9966 50.4968C23.0095 50.5779 23.0405 50.6552 23.0871 50.7228C23.1338 50.7904 23.195 50.8467 23.2663 50.8876C23.3376 50.9284 23.4171 50.9528 23.499 50.9589C23.8167 51.0303 24.1047 51.1976 24.324 51.4383C24.6342 51.7838 25.0854 52.3619 24.747 52.6087C24.6309 52.6957 24.4988 52.7589 24.3583 52.7947C24.2177 52.8304 24.0715 52.8381 23.928 52.8171C23.7845 52.7961 23.6465 52.747 23.5221 52.6725C23.3977 52.598 23.2893 52.4996 23.203 52.383C23.0919 52.2275 22.9385 52.1069 22.7611 52.0357C22.5837 51.9645 22.3896 51.9456 22.2018 51.9812C22.0436 51.9753 21.8879 52.0229 21.7601 52.1163C21.6322 52.2097 21.5394 52.3434 21.4968 52.4959C21.4684 52.5801 21.4573 52.6691 21.4641 52.7577C21.4708 52.8462 21.4953 52.9326 21.5361 53.0115C21.5769 53.0904 21.6331 53.1603 21.7014 53.2171C21.7698 53.2738 21.8488 53.3163 21.9339 53.3419C22.4768 53.5675 23.0408 53.7367 23.5836 53.9412C24.0292 54.0595 24.4221 54.3239 24.6995 54.692C24.9769 55.0602 25.1227 55.5108 25.1136 55.9716C25.1364 56.4329 24.9931 56.887 24.7099 57.2518C24.4266 57.6165 24.022 57.8677 23.5695 57.9598C23.0972 58.0797 23.0479 58.3687 23.0902 58.7354C23.1395 59.25 22.9703 59.4404 22.3851 59.4404C21.8 59.4404 21.6801 59.2218 21.7718 58.7354C21.7954 58.6376 21.7979 58.5358 21.779 58.437C21.7601 58.3382 21.7202 58.2446 21.6621 58.1624C21.604 58.0803 21.5289 58.0115 21.442 57.9607C21.3552 57.91 21.2585 57.8784 21.1584 57.8682C20.9145 57.8087 20.6857 57.6989 20.4866 57.546C20.2875 57.393 20.1225 57.2002 20.0021 56.9798C19.8611 56.726 19.6355 56.444 19.7483 56.1761C19.8611 55.9082 20.263 56.0704 20.4322 56.021Z" fill="#8572A3"/>
<path d="M34.7295 50.9394H29.1951C28.6804 50.9394 28.1093 50.9394 28.1305 50.2343C28.1516 49.5293 28.7015 49.5293 29.2232 49.5293H40.3839C40.9267 49.5293 41.526 49.5293 41.526 50.2343C41.526 50.9394 40.821 50.9041 40.3486 50.9041L34.7295 50.9394Z" fill="#8573A3"/>
<path d="M34.8775 62.3027H40.5177C41.0042 62.3027 41.526 62.3027 41.533 63.0078C41.5401 63.7128 41.0465 63.7128 40.546 63.7128H29.0963C28.5957 63.7128 28.1092 63.6 28.1233 62.9655C28.1374 62.3309 28.6662 62.3098 29.1527 62.3098L34.8775 62.3027Z" fill="#8673A3"/>
<path d="M34.8214 55.1444H29.1812C28.6524 55.1444 28.1025 55.1444 28.1236 54.4394C28.1448 53.7344 28.6524 53.7344 29.153 53.7344H40.511C41.0186 53.7344 41.498 53.8119 41.5192 54.4394C41.5403 55.0669 41.0398 55.1444 40.5392 55.1444H34.8214Z" fill="#8572A3"/>
<path d="M32.0578 58.0918C33.0308 58.0918 33.9967 58.0918 34.9696 58.0918C35.4279 58.0918 35.8227 58.2258 35.858 58.7263C35.8932 59.2269 35.4773 59.4948 34.9978 59.4948C32.9956 59.4948 30.998 59.4948 29.0051 59.4948C28.5257 59.4948 28.1027 59.3256 28.1238 58.7475C28.145 58.1694 28.5962 58.0918 29.0685 58.0918H32.0578Z" fill="#8673A3"/>
<path d="M39.5873 58.0918H40.814C41.2159 58.0918 41.5191 58.2681 41.5191 58.6911C41.5395 58.7864 41.5378 58.8851 41.5144 58.9796C41.491 59.0742 41.4464 59.1622 41.3838 59.237C41.3213 59.3117 41.2426 59.3713 41.1536 59.4111C41.0647 59.4508 40.9678 59.4698 40.8704 59.4666C39.968 59.5089 39.0655 59.5089 38.1631 59.4666C38.0686 59.474 37.9737 59.4609 37.8848 59.4281C37.7959 59.3953 37.7151 59.3436 37.6481 59.2766C37.5811 59.2096 37.5294 59.1288 37.4965 59.0399C37.4637 58.951 37.4507 58.8561 37.4581 58.7616C37.4658 58.6662 37.4929 58.5734 37.5377 58.4888C37.5825 58.4042 37.6441 58.3297 37.7186 58.2696C37.7931 58.2096 37.8791 58.1654 37.9713 58.1397C38.0634 58.1139 38.1599 58.1072 38.2548 58.12L39.5873 58.0918Z" fill="#8674A4"/>
<path d="M23.5549 44.6619C23.559 44.7494 23.5446 44.8368 23.5126 44.9183C23.4806 44.9999 23.4317 45.0737 23.369 45.135C23.3064 45.1963 23.2316 45.2436 23.1494 45.2738C23.0672 45.3041 22.9795 45.3166 22.8921 45.3105C22.7968 45.3219 22.7002 45.3114 22.6095 45.28C22.5188 45.2486 22.4363 45.197 22.3685 45.1291C22.3006 45.0612 22.249 44.9789 22.2176 44.8882C22.1862 44.7975 22.1757 44.7008 22.1871 44.6055C22.1832 44.5177 22.1974 44.43 22.2288 44.3479C22.2602 44.2659 22.308 44.1911 22.3695 44.1283C22.431 44.0655 22.5047 44.016 22.5861 43.9829C22.6675 43.9497 22.7549 43.9337 22.8428 43.9357C22.9378 43.9347 23.0319 43.9529 23.1197 43.9892C23.2075 44.0256 23.287 44.0793 23.3535 44.1471C23.42 44.2149 23.4722 44.2955 23.5067 44.3839C23.5413 44.4724 23.5577 44.5669 23.5549 44.6619Z" fill="#8976A5"/>
<path d="M34.9344 43.9727C35.3574 43.9727 35.6394 44.2124 35.6394 44.6142C35.6508 44.7096 35.6404 44.8062 35.609 44.8969C35.5776 44.9876 35.526 45.07 35.4581 45.1379C35.3902 45.2057 35.3078 45.2573 35.2171 45.2887C35.1264 45.3202 35.0297 45.3306 34.9344 45.3193C34.8457 45.3284 34.7562 45.3175 34.6724 45.2872C34.5885 45.2569 34.5126 45.2081 34.4502 45.1444C34.3879 45.0807 34.3407 45.0038 34.3123 44.9193C34.2838 44.8348 34.2748 44.745 34.2858 44.6565C34.2821 44.5687 34.296 44.481 34.3268 44.3986C34.3576 44.3162 34.4047 44.2409 34.4652 44.1771C34.5257 44.1133 34.5984 44.0623 34.6791 44.0272C34.7597 43.9921 34.8465 43.9735 34.9344 43.9727Z" fill="#8976A5"/>
<path d="M25.8883 43.9634C25.978 43.9556 26.0685 43.9665 26.1538 43.9956C26.2392 44.0247 26.3175 44.0712 26.3838 44.1322C26.4501 44.1932 26.5031 44.2674 26.5391 44.35C26.5752 44.4327 26.5936 44.5219 26.5933 44.612C26.6092 44.7003 26.6051 44.791 26.5812 44.8774C26.5574 44.9639 26.5144 45.0439 26.4556 45.1116C26.3967 45.1792 26.3234 45.2328 26.2411 45.2684C26.1588 45.304 26.0695 45.3206 25.9799 45.317C25.8849 45.3341 25.7873 45.3296 25.6944 45.3037C25.6014 45.2778 25.5154 45.2313 25.4429 45.1676C25.3704 45.1039 25.3132 45.0247 25.2756 44.9358C25.2379 44.8469 25.2209 44.7507 25.2256 44.6543C25.1903 44.2454 25.4793 44.0268 25.8883 43.9634Z" fill="#8876A5"/>
<path d="M32.664 44.6436C32.6555 44.8185 32.5822 44.9839 32.4584 45.1077C32.3346 45.2315 32.1692 45.3048 31.9943 45.3134C31.9077 45.3302 31.8184 45.3274 31.7329 45.3053C31.6475 45.2832 31.568 45.2422 31.5005 45.1855C31.4329 45.1287 31.3788 45.0575 31.3423 44.9772C31.3057 44.8969 31.2876 44.8094 31.2893 44.7211C31.2763 44.6292 31.2842 44.5355 31.3122 44.447C31.3403 44.3584 31.388 44.2774 31.4516 44.2097C31.5152 44.142 31.5931 44.0895 31.6797 44.056C31.7663 44.0225 31.8594 44.0089 31.952 44.0161C32.3468 43.9738 32.5724 44.2417 32.664 44.6436Z" fill="#8876A5"/>
<path d="M38.6993 44.678C38.6217 45.094 38.4031 45.3337 37.9942 45.3125C37.9056 45.3188 37.8166 45.306 37.7334 45.2749C37.6501 45.2438 37.5745 45.1952 37.5117 45.1324C37.4488 45.0695 37.4002 44.9939 37.3691 44.9107C37.3381 44.8274 37.3252 44.7385 37.3315 44.6498C37.3213 44.5504 37.3344 44.4499 37.3695 44.3563C37.4046 44.2628 37.4608 44.1785 37.5339 44.1103C37.6069 44.042 37.6948 43.9916 37.7905 43.9629C37.8863 43.9342 37.9873 43.928 38.0859 43.9448C38.2615 43.9676 38.4222 44.0557 38.5358 44.1916C38.6495 44.3274 38.7078 44.5011 38.6993 44.678Z" fill="#8775A4"/>
<path d="M41.7105 44.6274C41.7243 44.7177 41.7177 44.81 41.6913 44.8974C41.6649 44.9849 41.6193 45.0653 41.5578 45.1329C41.4963 45.2005 41.4204 45.2535 41.3359 45.288C41.2513 45.3225 41.1601 45.3377 41.0689 45.3324C40.9822 45.3422 40.8944 45.334 40.811 45.3082C40.7276 45.2825 40.6503 45.2399 40.5842 45.183C40.518 45.1261 40.4642 45.0561 40.4263 44.9775C40.3884 44.8989 40.3672 44.8133 40.3639 44.7261C40.3539 44.6311 40.3653 44.535 40.3972 44.4449C40.4291 44.3549 40.4807 44.2731 40.5483 44.2055C40.6159 44.1379 40.6976 44.0863 40.7877 44.0544C40.8778 44.0225 40.9739 44.0111 41.0689 44.0211C41.1512 44.0173 41.2334 44.0301 41.3106 44.0588C41.3879 44.0875 41.4585 44.1314 41.5184 44.188C41.5783 44.2446 41.6261 44.3127 41.6591 44.3882C41.6921 44.4637 41.7096 44.545 41.7105 44.6274Z" fill="#8876A5"/>
<path d="M19.8392 44C20.2904 44 20.5442 44.275 20.5442 44.705C20.5453 44.8012 20.5247 44.8965 20.484 44.9837C20.4432 45.0708 20.3834 45.1477 20.3089 45.2087C20.2344 45.2696 20.1472 45.313 20.0537 45.3357C19.9602 45.3583 19.8628 45.3596 19.7687 45.3396C19.6808 45.3399 19.5939 45.3209 19.5142 45.284C19.4345 45.247 19.3639 45.193 19.3074 45.1257C19.2509 45.0585 19.2099 44.9796 19.1872 44.8947C19.1646 44.8098 19.1609 44.721 19.1764 44.6345C19.1834 44.1551 19.4726 44.0141 19.8392 44Z" fill="#8976A5"/>
<path d="M28.8921 45.3161C28.8016 45.3275 28.7098 45.319 28.6229 45.2912C28.5361 45.2634 28.4563 45.2171 28.3892 45.1553C28.3221 45.0936 28.2692 45.018 28.2343 44.9337C28.1994 44.8495 28.1833 44.7586 28.1871 44.6675C28.1771 44.5725 28.1885 44.4764 28.2204 44.3863C28.2523 44.2963 28.304 44.2145 28.3715 44.1469C28.4391 44.0793 28.5209 44.0277 28.611 43.9958C28.701 43.9639 28.7971 43.9525 28.8921 43.9625C28.981 43.9615 29.0691 43.9798 29.1501 44.0162C29.2312 44.0526 29.3034 44.1062 29.3618 44.1732C29.4201 44.2403 29.4632 44.3192 29.488 44.4046C29.5128 44.4899 29.5188 44.5796 29.5055 44.6675C29.5125 44.7515 29.5016 44.8359 29.4737 44.9154C29.4459 44.9949 29.4016 45.0676 29.3437 45.1288C29.2858 45.19 29.2157 45.2384 29.1379 45.2706C29.0601 45.3029 28.9763 45.3184 28.8921 45.3161Z" fill="#8674A4"/>
</svg>
