<svg width="143" height="77" viewBox="0 0 143 77" fill="none" xmlns="http://www.w3.org/2000/svg">
<path d="M40.6532 14.3221C40.6124 14.0187 40.5006 13.7291 40.327 13.4769C40.1534 13.2248 39.9228 13.017 39.6539 12.8706C38.7858 12.3822 38.9847 11.7628 41.2546 7.94191L43.8547 3.56481H58.4238V15.2084H49.5385C42.1771 15.2084 40.6532 15.0456 40.6532 14.3221ZM71.9077 38.8256C71.9077 38.6718 70.2211 36.5375 68.1637 34.0777C61.9689 26.6846 61.8739 26.3907 61.5031 13.7749C61.0962 -0.0481023 61.5257 0.499038 51.103 0.499038C44.8811 0.499038 43.6919 0.661833 42.376 1.69732C41.535 2.3575 38.8129 6.42709 36.3169 10.7409L31.7951 18.5816L31.5871 26.4902C31.4379 32.4228 31.1575 34.6294 30.4838 35.3031C30.22 35.6015 30.0205 35.951 29.8976 36.3299C29.7746 36.7087 29.731 37.1088 29.7693 37.5052C29.9412 38.708 30.3753 38.821 35.6476 38.9838C40.6623 39.1375 41.3632 39.0335 41.6526 38.0795C43.7235 31.1114 49.5883 28.0954 55.3897 31.0075C57.8043 32.2283 60.2642 35.5654 60.2642 37.6544C60.2642 39.0652 60.3817 39.0924 66.0882 39.0924C69.3077 39.1059 71.9077 38.9793 71.9077 38.8256Z" fill="#564079"/>
<path d="M50.7688 35.1992C49.8695 35.201 48.9986 35.5145 48.3045 36.0863C47.6103 36.658 47.1358 37.4527 46.9617 38.335C46.7876 39.2173 46.9246 40.1326 47.3495 40.9252C47.7744 41.7178 48.4609 42.3386 49.2921 42.682C50.1232 43.0254 51.0477 43.0701 51.9081 42.8085C52.7685 42.5468 53.5116 41.9951 54.011 41.2471C54.5103 40.4992 54.735 39.6013 54.6468 38.7063C54.5586 37.8114 54.1629 36.9747 53.5271 36.3387C53.1647 35.9768 52.7346 35.69 52.2613 35.4945C51.788 35.299 51.2809 35.1986 50.7688 35.1992ZM50.7688 31.2969C52.3115 31.2969 53.8196 31.7544 55.1023 32.6115C56.385 33.4685 57.3847 34.6867 57.9751 36.112C58.5655 37.5373 58.7199 39.1056 58.419 40.6187C58.118 42.1317 57.3751 43.5216 56.2843 44.6124C55.1934 45.7033 53.8036 46.4462 52.2905 46.7471C50.7774 47.0481 49.2091 46.8936 47.7839 46.3033C46.3586 45.7129 45.1404 44.7131 44.2833 43.4304C43.4262 42.1477 42.9688 40.6396 42.9688 39.0969C42.9699 37.0286 43.7921 35.0454 45.2547 33.5828C46.7172 32.1203 48.7005 31.2981 50.7688 31.2969Z" fill="#564079"/>
<path d="M65.2382 14.0234H111.36C111.612 14.0228 111.862 14.072 112.095 14.1682C112.327 14.2643 112.539 14.4055 112.717 14.5836C112.895 14.7618 113.037 14.9734 113.133 15.2063C113.229 15.4391 113.278 15.6887 113.277 15.9407V19.6078C113.278 19.8598 113.229 20.1093 113.133 20.3422C113.037 20.5751 112.895 20.7867 112.717 20.9648C112.539 21.143 112.327 21.2842 112.095 21.3803C111.862 21.4765 111.612 21.5256 111.36 21.525H65.2382C64.986 21.5256 64.7362 21.4765 64.5031 21.3804C64.27 21.2843 64.0581 21.1432 63.8796 20.9651C63.7011 20.787 63.5594 20.5755 63.4628 20.3425C63.3662 20.1096 63.3164 19.86 63.3164 19.6078V15.9497C63.3152 15.6968 63.3641 15.4462 63.4602 15.2122C63.5563 14.9783 63.6977 14.7656 63.8764 14.5866C64.055 14.4075 64.2673 14.2656 64.501 14.1689C64.7347 14.0723 64.9853 14.0228 65.2382 14.0234Z" fill="#564079"/>
<path d="M68.7112 22.6738H111.361C111.612 22.6732 111.862 22.7224 112.095 22.8186C112.328 22.9147 112.539 23.0559 112.718 23.234C112.896 23.4122 113.037 23.6238 113.133 23.8567C113.229 24.0895 113.278 24.3391 113.278 24.5911V28.2582C113.278 28.5101 113.229 28.7597 113.133 28.9926C113.037 29.2255 112.896 29.4371 112.718 29.6152C112.539 29.7934 112.328 29.9346 112.095 30.0307C111.862 30.1268 111.612 30.176 111.361 30.1754H68.7112C68.4592 30.176 68.2097 30.1268 67.9768 30.0307C67.7439 29.9346 67.5323 29.7934 67.3542 29.6152C67.176 29.4371 67.0348 29.2255 66.9387 28.9926C66.8425 28.7597 66.7934 28.5101 66.794 28.2582V24.5911C66.7934 24.3391 66.8425 24.0895 66.9387 23.8567C67.0348 23.6238 67.176 23.4122 67.3542 23.234C67.5323 23.0559 67.7439 22.9147 67.9768 22.8186C68.2097 22.7224 68.4592 22.6732 68.7112 22.6738Z" fill="#42D3AD"/>
<path d="M111.379 31.3281H74.6619C73.603 31.3281 72.7446 32.1865 72.7446 33.2454V36.9125C72.7446 37.9714 73.603 38.8298 74.6619 38.8298H111.379C112.437 38.8298 113.296 37.9714 113.296 36.9125V33.2454C113.296 32.1865 112.437 31.3281 111.379 31.3281Z" fill="#564079"/>
<path d="M65.2382 5.36915H93.6485C94.157 5.36915 94.6446 5.57117 95.0042 5.93072C95.3638 6.29027 95.5658 6.77789 95.5658 7.28637V10.9762C95.5663 11.2279 95.5171 11.4773 95.4209 11.7099C95.3247 11.9425 95.1835 12.1538 95.0053 12.3316C94.8271 12.5094 94.6154 12.6501 94.3826 12.7458C94.1497 12.8414 93.9002 12.89 93.6485 12.8888H65.2382C64.9863 12.89 64.7366 12.8415 64.5035 12.7459C64.2704 12.6503 64.0585 12.5096 63.8799 12.3319C63.7013 12.1541 63.5596 11.9429 63.4629 11.7102C63.3663 11.4776 63.3165 11.2281 63.3165 10.9762V7.30448C63.3141 7.0508 63.3621 6.79917 63.4576 6.56417C63.5532 6.32917 63.6944 6.11548 63.8732 5.93547C64.0519 5.75546 64.2646 5.61269 64.499 5.51547C64.7333 5.41826 64.9846 5.36854 65.2382 5.36915Z" fill="#42D3AD"/>
<path d="M2.042 71.2924C1.77042 71.3067 1.49887 71.2638 1.24496 71.1664C0.991055 71.069 0.760465 70.9192 0.568162 70.7269C0.37586 70.5346 0.22614 70.3041 0.128722 70.0501C0.0313043 69.7962 -0.0116311 69.5247 0.00269291 69.2531V59.7574C-0.00439487 59.5766 0.0279209 59.3963 0.0974116 59.2293C0.166902 59.0622 0.271898 58.9122 0.405123 58.7897C0.543869 58.6606 0.70679 58.5601 0.884499 58.4941C1.06221 58.4282 1.2512 58.398 1.44061 58.4054C1.62304 58.3995 1.80477 58.4305 1.97492 58.4966C2.14508 58.5626 2.30017 58.6623 2.43088 58.7897C2.56187 58.9137 2.66506 59.0641 2.73365 59.2309C2.80224 59.3977 2.83468 59.5771 2.8288 59.7574V67.7609C2.81008 67.8885 2.8213 68.0188 2.86157 68.1414C2.90185 68.2639 2.97006 68.3755 3.06085 68.4671C3.15163 68.5588 3.26249 68.6281 3.38466 68.6696C3.50683 68.711 3.63697 68.7235 3.76479 68.706H6.56377C6.73912 68.6956 6.91475 68.7211 7.07987 68.781C7.24498 68.841 7.39611 68.9341 7.52394 69.0546C7.65178 69.175 7.75363 69.3204 7.82325 69.4817C7.89287 69.6429 7.92879 69.8167 7.92879 69.9924C7.92879 70.1681 7.89287 70.3419 7.82325 70.5032C7.75363 70.6644 7.65178 70.8098 7.52394 70.9303C7.39611 71.0507 7.24498 71.1438 7.07987 71.2037C6.91475 71.2637 6.73912 71.2892 6.56377 71.2788L2.042 71.2924Z" fill="#564079"/>
<path d="M15.25 65.5488C15.307 65.5465 15.3634 65.5359 15.4173 65.5171C15.4896 65.5171 15.5303 65.4222 15.5303 65.291C15.5128 65.1116 15.4507 64.9394 15.3496 64.7902C15.2485 64.6409 15.1116 64.5193 14.9515 64.4364C14.5053 64.1576 13.9851 64.0204 13.4594 64.043C12.8991 64.0173 12.3446 64.1658 11.8722 64.4681C11.4653 64.7485 11.2618 65.0378 11.2618 65.3272C11.2618 65.4764 11.3477 65.5488 11.5195 65.5488H15.25ZM13.6176 71.6034C12.2962 71.647 11.0061 71.1955 10.0002 70.3374C9.51164 69.8987 9.12733 69.3564 8.87541 68.75C8.62348 68.1437 8.51032 67.4887 8.54419 66.833C8.50998 66.1629 8.61981 65.4933 8.8663 64.8693C9.11278 64.2453 9.49019 63.6814 9.97307 63.2156C10.8151 62.5149 11.8408 62.0713 12.9279 61.9374C14.0151 61.8035 15.1178 61.985 16.1046 62.4604C16.7332 62.7959 17.2573 63.2981 17.6194 63.9119C17.9461 64.4736 18.1191 65.1115 18.1213 65.7613C18.1213 66.8511 17.6375 67.3937 16.6789 67.3937H11.4833C11.316 67.3937 11.2347 67.4977 11.2347 67.7057C11.2429 67.9534 11.323 68.1934 11.4651 68.3964C11.6071 68.5995 11.8051 68.757 12.035 68.8497C12.5933 69.1393 13.2149 69.2854 13.8437 69.2747C14.2685 69.2732 14.6912 69.2154 15.1008 69.1029C15.4971 68.9958 15.8708 68.8181 16.2041 68.5784C16.3945 68.4391 16.6238 68.3632 16.8597 68.3613C17.0096 68.3602 17.1581 68.3902 17.2959 68.4493C17.4336 68.5085 17.5576 68.5955 17.6601 68.705C17.7667 68.8136 17.8507 68.9422 17.9074 69.0835C17.964 69.2247 17.9922 69.3758 17.9902 69.5279C17.9769 69.7397 17.9159 69.9456 17.8118 70.1304C17.7076 70.3152 17.563 70.4741 17.3888 70.5951C16.8997 70.9584 16.3385 71.2128 15.7429 71.3412C15.0488 71.5204 14.3344 71.6085 13.6176 71.6034Z" fill="#564079"/>
<path d="M24.7189 69.0669C25.02 69.0801 25.3203 69.0261 25.5979 68.9087C25.8756 68.7914 26.1236 68.6137 26.3241 68.3886C26.7238 67.9211 26.935 67.3214 26.9164 66.7065C26.944 66.0971 26.7313 65.5013 26.3241 65.047C25.8918 64.6427 25.322 64.4177 24.7302 64.4177C24.1383 64.4177 23.5685 64.6427 23.1362 65.047C22.9274 65.2681 22.7653 65.529 22.6596 65.8141C22.554 66.0992 22.5069 66.4028 22.5213 66.7065C22.5021 67.3255 22.7224 67.928 23.1362 68.3886C23.3346 68.6103 23.5791 68.7858 23.8524 68.903C24.1258 69.0202 24.4216 69.0761 24.7189 69.0669ZM24.5018 71.6036C23.8732 71.6292 23.2461 71.5243 22.6601 71.2955C22.0741 71.0667 21.5418 70.719 21.0969 70.2742C20.653 69.7964 20.3091 69.2346 20.0855 68.6219C19.8618 68.0092 19.7629 67.358 19.7946 66.7065C19.7611 66.0637 19.8563 65.4206 20.0745 64.815C20.2926 64.2094 20.6295 63.6533 21.0653 63.1795C21.5017 62.7426 22.0239 62.4009 22.5991 62.1759C23.1742 61.951 23.7898 61.8478 24.4068 61.8728C24.8831 61.8683 25.3555 61.9578 25.797 62.1363C26.2385 62.3147 26.6404 62.5786 26.9797 62.9128C27.0671 62.6581 27.2334 62.4379 27.4545 62.2842C27.689 62.1128 27.9736 62.0238 28.2639 62.031C28.6381 62.0142 29.0038 62.1458 29.2813 62.3973C29.4065 62.5026 29.507 62.6342 29.5758 62.7826C29.6446 62.9311 29.6799 63.0928 29.6792 63.2564V70.3827C29.6836 70.5502 29.65 70.7165 29.5811 70.8691C29.5122 71.0218 29.4097 71.1569 29.2813 71.2645C28.9961 71.5001 28.6334 71.621 28.2639 71.6036C27.9765 71.6347 27.6876 71.5601 27.4513 71.3936C27.2149 71.2272 27.0473 70.9803 26.9797 70.6992C26.2991 71.3054 25.4128 71.6289 24.5018 71.6036Z" fill="#564079"/>
<path d="M40.0021 71.6035C39.64 71.6174 39.2856 71.4966 39.0073 71.2644C38.8808 71.1558 38.7802 71.0202 38.7129 70.8676C38.6456 70.7151 38.6133 70.5494 38.6185 70.3827V66.5528C38.6468 66.2551 38.6159 65.9547 38.5274 65.6691C38.4389 65.3835 38.2947 65.1182 38.103 64.8887C37.9349 64.7252 37.7361 64.5966 37.518 64.5105C37.2999 64.4243 37.0668 64.3823 36.8324 64.3868C36.5921 64.3794 36.3528 64.42 36.1284 64.5062C35.9041 64.5924 35.6991 64.7224 35.5256 64.8887C35.1933 65.1972 34.9697 65.6049 34.888 66.0508V70.2515C34.8928 70.4223 34.8596 70.5921 34.7908 70.7485C34.722 70.9049 34.6193 71.044 34.4901 71.1559C34.2312 71.396 33.889 71.5258 33.536 71.5176C33.1687 71.5281 32.8102 71.4043 32.5276 71.1695C32.399 71.0629 32.296 70.9287 32.2263 70.7768C32.1567 70.6249 32.1221 70.4593 32.1252 70.2923V63.2609C32.124 63.0981 32.1582 62.9369 32.2253 62.7886C32.2925 62.6403 32.391 62.5083 32.5141 62.4017C32.7938 62.1508 33.1606 62.0194 33.536 62.0355C33.8388 62.0239 34.1363 62.1182 34.377 62.3023C34.6021 62.4734 34.7681 62.7105 34.8518 62.9805C35.162 62.6041 35.5579 62.3074 36.0064 62.1154C36.4548 61.9235 36.9427 61.8418 37.4292 61.8772C38.4789 61.8338 39.5031 62.2077 40.2779 62.9172C41.0135 63.6045 41.3813 64.7018 41.3813 66.2091V70.4505C41.3837 70.6105 41.3491 70.7689 41.28 70.9132C41.211 71.0576 41.1094 71.184 40.9833 71.2825C40.7059 71.5047 40.3573 71.6187 40.0021 71.6035Z" fill="#564079"/>
<path d="M47.1243 69.3077H48.3452C48.8436 69.3394 49.3431 69.2651 49.8107 69.0897C50.2783 68.9143 50.7035 68.6419 51.0582 68.2903C51.7198 67.4969 52.0445 66.4759 51.9626 65.4461C51.9355 64.1891 51.6099 63.2365 50.9859 62.5884C50.6255 62.2475 50.1983 61.9851 49.7313 61.8177C49.2643 61.6504 48.7677 61.5818 48.2728 61.6162H47.0791C46.9728 61.6011 46.8645 61.6109 46.7627 61.6449C46.6609 61.6789 46.5684 61.7361 46.4925 61.812C46.4167 61.8879 46.3595 61.9803 46.3255 62.0821C46.2915 62.1839 46.2817 62.2922 46.2968 62.3985V68.5164C46.2792 68.6276 46.2887 68.7414 46.3247 68.848C46.3607 68.9547 46.4219 69.051 46.5033 69.1288C46.5846 69.2066 46.6836 69.2635 46.7918 69.2947C46.8999 69.3259 47.014 69.3303 47.1243 69.3077ZM45.6502 71.8173C45.0792 71.8459 44.5201 71.6476 44.0947 71.2656C43.9002 71.0781 43.748 70.8512 43.6481 70.6001C43.5483 70.349 43.5033 70.0795 43.5159 69.8096V61.051C43.5007 60.7892 43.5398 60.5271 43.6309 60.2811C43.7219 60.0352 43.8629 59.8108 44.045 59.6221C44.2343 59.4471 44.4565 59.3115 44.6987 59.223C44.9409 59.1345 45.1982 59.0949 45.4557 59.1066H48.318C49.5419 59.0702 50.7538 59.3572 51.8314 59.9386C52.7689 60.4661 53.5361 61.2506 54.0426 62.1995C54.5659 63.2022 54.8301 64.3198 54.8113 65.4506C54.8342 66.6081 54.5652 67.7526 54.029 68.7787C53.5358 69.7115 52.794 70.4896 51.8857 71.0267C50.9775 71.5638 49.9383 71.839 48.8832 71.8219L45.6502 71.8173Z" fill="#42D3AD"/>
<path d="M58.3831 60.9726C57.9663 60.9779 57.5628 60.8262 57.2527 60.5475C57.1043 60.4103 56.9871 60.2428 56.9091 60.0563C56.8311 59.8699 56.7941 59.6688 56.8005 59.4668C56.7987 59.2715 56.8381 59.0779 56.916 58.8987C56.9939 58.7196 57.1086 58.5587 57.2527 58.4268C57.5568 58.1355 57.962 57.9735 58.3831 57.9746C58.5844 57.9737 58.7838 58.0133 58.9694 58.091C59.1551 58.1687 59.3232 58.2828 59.4638 58.4268C59.6082 58.5586 59.7231 58.7194 59.801 58.8986C59.8789 59.0778 59.9181 59.2714 59.916 59.4668C59.9228 59.6689 59.8859 59.87 59.8078 60.0565C59.7298 60.243 59.6125 60.4105 59.4638 60.5475C59.1736 60.8259 58.7853 60.9786 58.3831 60.9726ZM58.3831 72.1142C58.0189 72.1241 57.663 72.0038 57.3793 71.7751C57.2459 71.6663 57.1396 71.528 57.069 71.371C56.9983 71.214 56.9653 71.0427 56.9724 70.8707V63.7489C56.9712 63.5861 57.0054 63.425 57.0725 63.2767C57.1396 63.1284 57.2381 62.9964 57.3612 62.8898C57.6409 62.6389 58.0077 62.5074 58.3831 62.5236C58.5645 62.5135 58.746 62.5407 58.9163 62.6038C59.0867 62.6668 59.2423 62.7642 59.3734 62.8898C59.493 63.0074 59.5869 63.1484 59.6491 63.304C59.7114 63.4597 59.7407 63.6266 59.7351 63.7942V70.8572C59.7403 71.028 59.7073 71.1978 59.6384 71.3543C59.5696 71.5108 59.4667 71.6499 59.3372 71.7615C59.077 71.9984 58.7349 72.1248 58.3831 72.1142Z" fill="#42D3AD"/>
<path d="M65.6316 72.1156C64.3992 72.1649 63.1785 71.8605 62.1136 71.2384C61.9381 71.1276 61.7959 70.9713 61.7022 70.7862C61.6238 70.6223 61.5821 70.4433 61.5801 70.2617C61.582 69.9064 61.7102 69.5634 61.9418 69.294C62.0461 69.1525 62.1825 69.0378 62.3396 68.9592C62.4968 68.8806 62.6704 68.8404 62.8462 68.8418C63.0212 68.8429 63.1934 68.8864 63.3481 68.9684C63.761 69.1592 64.1909 69.3106 64.6323 69.4206C65.0645 69.5277 65.5074 69.5854 65.9526 69.5924C66.7304 69.5924 67.1192 69.4115 67.1192 69.0543C67.1172 68.9485 67.0908 68.8445 67.0422 68.7504C66.9936 68.6563 66.924 68.5747 66.8389 68.5117C66.435 68.2882 65.9801 68.173 65.5185 68.1771C65.2427 68.1771 64.89 68.1138 64.465 68.0505C64.0274 67.9884 63.6001 67.8683 63.1944 67.6933C62.7816 67.5191 62.4193 67.2438 62.1408 66.893C61.8377 66.4735 61.6876 65.9627 61.7157 65.446C61.6983 65.0155 61.7864 64.5874 61.9724 64.1988C62.1584 63.8103 62.4367 63.4731 62.7829 63.2168C63.6204 62.6354 64.6269 62.3476 65.6451 62.3983C66.3043 62.3944 66.9615 62.4688 67.6031 62.6199C68.1194 62.7139 68.6016 62.9433 69.0003 63.2846C69.1294 63.3921 69.2349 63.5252 69.31 63.6755C69.3851 63.8258 69.4283 63.99 69.4368 64.1578C69.4453 64.3256 69.4189 64.4933 69.3594 64.6505C69.2998 64.8076 69.2083 64.9507 69.0907 65.0707C68.9805 65.1932 68.845 65.2902 68.6935 65.355C68.542 65.4198 68.3782 65.4508 68.2135 65.446C68.0298 65.4449 67.8488 65.4016 67.6845 65.3194C67.3911 65.1356 67.066 65.0083 66.7259 64.9441C66.3382 64.859 65.9425 64.8166 65.5457 64.8174C64.7544 64.8174 64.3564 64.9848 64.3564 65.3194C64.3616 65.3989 64.3856 65.4761 64.4265 65.5445C64.4674 65.6129 64.524 65.6706 64.5916 65.7128C64.929 65.8814 65.2961 65.9828 65.6723 66.0112C66.031 66.0504 66.438 66.1092 66.8932 66.1875C67.3595 66.2541 67.8154 66.3803 68.2497 66.5629C68.6815 66.7455 69.0551 67.0425 69.3304 67.422C69.6515 67.9039 69.8099 68.4759 69.7826 69.0543C69.797 69.4955 69.7011 69.9332 69.5038 70.328C69.3064 70.7228 69.0137 71.0621 68.6521 71.3152C67.7585 71.9019 66.6985 72.1828 65.6316 72.1156Z" fill="#42D3AD"/>
<path d="M76.4163 69.5774C76.7099 69.5893 77.0025 69.5345 77.2719 69.417C77.5413 69.2995 77.7806 69.1224 77.9718 68.8992C78.3684 68.4301 78.5777 67.8311 78.5596 67.2171C78.5864 66.6086 78.3756 66.0135 77.9718 65.5576C77.773 65.3471 77.5311 65.182 77.2626 65.0735C76.9942 64.965 76.7055 64.9157 76.4163 64.929C76.1327 64.918 75.85 64.9685 75.5878 65.077C75.3255 65.1855 75.0899 65.3494 74.8969 65.5576C74.498 66.0158 74.2907 66.6101 74.3182 67.2171C74.2992 67.8296 74.5051 68.4279 74.8969 68.8992C75.0823 69.1199 75.3154 69.2956 75.5786 69.4131C75.8418 69.5306 76.1282 69.5868 76.4163 69.5774ZM76.6378 72.1141C75.7843 72.138 74.9542 71.8337 74.3182 71.264V75.103C74.3226 75.2733 74.2897 75.4426 74.2217 75.5989C74.1538 75.7551 74.0524 75.8945 73.9248 76.0074C73.6652 76.2459 73.323 76.374 72.9707 76.3646C72.6027 76.3754 72.2432 76.2534 71.9578 76.021C71.8291 75.9143 71.7262 75.7801 71.6565 75.6283C71.5868 75.4764 71.5523 75.3108 71.5554 75.1438V63.7805C71.5551 63.6179 71.5897 63.457 71.6568 63.3088C71.7238 63.1606 71.8218 63.0286 71.9442 62.9214C72.2256 62.6702 72.5939 62.5388 72.9707 62.5551C73.2611 62.5472 73.5459 62.6363 73.7801 62.8084C74.002 62.9611 74.1686 63.1816 74.2549 63.4369C74.5778 63.106 74.964 62.8435 75.3905 62.6648C75.8169 62.4862 76.275 62.395 76.7373 62.3969C77.3492 62.3697 77.96 62.472 78.5296 62.6972C79.0992 62.9224 79.6148 63.2654 80.0427 63.7037C80.9071 64.6688 81.3541 65.9369 81.2862 67.2307C81.3504 68.5386 80.8991 69.8196 80.0292 70.7983C79.5888 71.2447 79.059 71.5926 78.4744 71.8194C77.8899 72.0462 77.264 72.1467 76.6378 72.1141Z" fill="#42D3AD"/>
<path d="M87.8696 69.5789C88.1702 69.5927 88.47 69.539 88.747 69.4216C89.024 69.3042 89.2712 69.1262 89.4703 68.9006C89.8732 68.4347 90.0863 67.8343 90.0672 67.2185C90.095 66.6083 89.8804 66.0118 89.4703 65.559C89.0398 65.1602 88.4746 64.9386 87.8877 64.9386C87.3008 64.9386 86.7356 65.1602 86.3051 65.559C86.0962 65.7801 85.9341 66.041 85.8285 66.3261C85.7228 66.6113 85.6758 66.9148 85.6901 67.2185C85.671 67.8375 85.8912 68.44 86.3051 68.9006C86.5013 69.1201 86.7428 69.2945 87.0129 69.4116C87.283 69.5287 87.5753 69.5858 87.8696 69.5789ZM87.648 72.1156C87.0196 72.1404 86.3927 72.0351 85.8068 71.8064C85.2209 71.5776 84.6886 71.2303 84.2432 70.7862C83.7998 70.3082 83.4566 69.7462 83.2338 69.1335C83.0109 68.5208 82.9129 67.8697 82.9454 67.2185C82.9109 66.5756 83.0055 65.9323 83.2238 65.3265C83.442 64.7207 83.7794 64.1648 84.216 63.6915C84.6519 63.2539 85.1741 62.9118 85.7494 62.6868C86.3247 62.4618 86.9404 62.3589 87.5576 62.3847C88.0338 62.3802 88.5062 62.4698 88.9477 62.6483C89.3893 62.8267 89.7912 63.0906 90.1305 63.4248C90.2087 63.1716 90.3675 62.9509 90.5827 62.7962C90.8185 62.6242 91.1048 62.5352 91.3966 62.5431C91.7708 62.5262 92.1364 62.6578 92.414 62.9093C92.5383 63.0154 92.6381 63.1471 92.7068 63.2954C92.7755 63.4437 92.8113 63.605 92.8119 63.7684V70.8902C92.8184 71.0612 92.7859 71.2315 92.717 71.3882C92.6481 71.5448 92.5445 71.6838 92.414 71.7946C92.1288 72.0302 91.7661 72.1511 91.3966 72.1337C91.109 72.1658 90.8197 72.0915 90.5831 71.9249C90.3465 71.7583 90.1791 71.5109 90.1124 71.2294C89.4323 71.8253 88.5519 72.1419 87.648 72.1156Z" fill="#42D3AD"/>
<path d="M99.1922 72.1146C98.3763 72.1445 97.5794 71.8633 96.963 71.3278C96.3752 70.8078 96.0858 70.0029 96.0858 68.9132V65.5219C96.0918 65.4795 96.0879 65.4363 96.0744 65.3957C96.0608 65.3551 96.038 65.3182 96.0078 65.2879C95.9775 65.2576 95.9406 65.2348 95.9 65.2213C95.8594 65.2077 95.8162 65.2038 95.7738 65.2098H95.3216C95.1637 65.222 95.0051 65.1973 94.8583 65.1377C94.7116 65.0781 94.5807 64.9851 94.476 64.8662C94.2815 64.6161 94.1807 64.3057 94.1912 63.989C94.1822 63.6641 94.2825 63.3457 94.476 63.0846C94.5784 62.9621 94.7085 62.8659 94.8556 62.8037C95.0027 62.7416 95.1624 62.7154 95.3216 62.7274H95.7738C95.8168 62.7328 95.8606 62.7282 95.9015 62.7138C95.9425 62.6994 95.9795 62.6758 96.0098 62.6446C96.04 62.6135 96.0626 62.5758 96.0758 62.5344C96.089 62.4931 96.0924 62.4492 96.0858 62.4064V60.0822C96.0825 59.9137 96.1142 59.7464 96.1788 59.5907C96.2434 59.4351 96.3395 59.2945 96.4611 59.1778C96.5888 59.0518 96.7409 58.9531 96.9081 58.8877C97.0752 58.8224 97.2539 58.7919 97.4333 58.798C97.7973 58.7834 98.1527 58.9116 98.4235 59.1552C98.5497 59.2696 98.6503 59.4092 98.7189 59.565C98.7874 59.7208 98.8224 59.8894 98.8214 60.0596V62.3837C98.8214 62.5963 98.9209 62.7048 99.1289 62.7048H100.296C100.464 62.699 100.632 62.7291 100.788 62.793C100.943 62.8569 101.084 62.9532 101.2 63.0756C101.435 63.3176 101.565 63.6426 101.562 63.9799C101.566 64.1433 101.536 64.3058 101.474 64.4568C101.411 64.6079 101.318 64.7443 101.2 64.8572C101.076 64.9731 100.93 65.0631 100.771 65.1221C100.612 65.1811 100.443 65.2079 100.273 65.2008H99.1515C99.1093 65.1946 99.0662 65.1984 99.0257 65.2119C98.9853 65.2255 98.9486 65.2484 98.9186 65.2788C98.8886 65.3092 98.8663 65.3462 98.8533 65.3869C98.8404 65.4275 98.8372 65.4707 98.8441 65.5128V68.4655C98.8133 68.7439 98.8857 69.0238 99.0475 69.2523C99.1131 69.3231 99.193 69.379 99.2819 69.4164C99.3708 69.4539 99.4666 69.4719 99.563 69.4694C99.732 69.4564 99.8998 69.4307 100.065 69.3925C100.213 69.3548 100.365 69.3291 100.517 69.3156C100.677 69.3138 100.836 69.3469 100.982 69.4125C101.128 69.478 101.258 69.5746 101.363 69.6954C101.568 69.9182 101.69 70.2047 101.709 70.5068C101.728 70.8089 101.642 71.1083 101.467 71.355C101.289 71.6026 101.029 71.7802 100.734 71.8569C100.475 71.9375 100.211 71.9995 99.9429 72.0423C99.695 72.0866 99.444 72.1107 99.1922 72.1146Z" fill="#42D3AD"/>
<path d="M107.743 72.1142C106.884 72.1179 106.037 71.9148 105.274 71.5219C104.514 71.1264 103.879 70.5286 103.438 69.7945C102.962 68.9716 102.725 68.0318 102.755 67.0815C102.732 66.441 102.846 65.803 103.088 65.2098C103.331 64.6165 103.697 64.0816 104.162 63.6404C105.146 62.7694 106.43 62.3139 107.743 62.3698C108.301 62.3692 108.858 62.4329 109.402 62.5597C109.925 62.6742 110.412 62.9131 110.822 63.2561C110.969 63.3702 111.086 63.5174 111.164 63.6856C111.243 63.8538 111.281 64.0382 111.274 64.2237C111.27 64.5596 111.141 64.8818 110.913 65.1281C110.803 65.2613 110.665 65.3676 110.508 65.439C110.351 65.5103 110.18 65.5448 110.008 65.5396C109.786 65.5421 109.568 65.4757 109.384 65.3497C109.12 65.2035 108.839 65.0897 108.548 65.0105C108.288 64.9411 108.02 64.9076 107.752 64.9111C107.13 64.8832 106.522 65.099 106.056 65.5124C105.836 65.714 105.663 65.9614 105.549 66.2372C105.435 66.513 105.383 66.8105 105.396 67.1086C105.377 67.4447 105.432 67.7808 105.557 68.0933C105.682 68.4058 105.874 68.6871 106.12 68.9173C106.583 69.3379 107.189 69.5673 107.815 69.5595C108.58 69.5454 109.314 69.2546 109.882 68.741C110.085 68.5689 110.339 68.4687 110.605 68.4561C110.77 68.4558 110.933 68.4927 111.082 68.5639C111.23 68.6352 111.361 68.739 111.464 68.8676C111.701 69.123 111.831 69.4598 111.826 69.8081C111.822 69.9732 111.791 70.1365 111.736 70.292C111.663 70.4894 111.543 70.6662 111.387 70.8074C110.855 71.2531 110.241 71.5897 109.579 71.7977C108.986 71.995 108.367 72.1016 107.743 72.1142Z" fill="#42D3AD"/>
<path d="M115.068 72.1141C114.701 72.1261 114.341 72.0058 114.055 71.7749C113.923 71.6653 113.818 71.5266 113.748 71.3698C113.679 71.213 113.646 71.0421 113.653 70.8706V59.1954C113.651 59.0318 113.685 58.8699 113.752 58.7207C113.819 58.5716 113.918 58.4388 114.042 58.3317C114.325 58.0838 114.692 57.9543 115.068 57.97C115.426 57.9583 115.774 58.0882 116.036 58.3317C116.16 58.4464 116.259 58.5865 116.324 58.7426C116.39 58.8986 116.421 59.0669 116.416 59.2361V63.4278C116.712 63.0892 117.088 62.8297 117.51 62.6726C117.979 62.4811 118.482 62.3843 118.988 62.3877C119.507 62.3655 120.025 62.4459 120.512 62.6244C120.999 62.8029 121.447 63.0759 121.828 63.4278C122.549 64.1151 122.909 65.2124 122.909 66.7196V70.9611C122.911 71.1211 122.877 71.2794 122.808 71.4238C122.739 71.5681 122.637 71.6945 122.511 71.793C122.233 72.015 121.885 72.1305 121.53 72.1186C121.168 72.1325 120.813 72.0117 120.535 71.7795C120.406 71.6676 120.305 71.5282 120.237 71.3717C120.17 71.2151 120.139 71.0454 120.146 70.8751V67.0452C120.174 66.7475 120.143 66.4472 120.055 66.1615C119.966 65.8759 119.822 65.6107 119.631 65.3812C119.463 65.2168 119.264 65.0877 119.046 65.0015C118.828 64.9152 118.595 64.8737 118.36 64.8792C118.121 64.8717 117.883 64.914 117.661 65.0036C117.439 65.0931 117.238 65.2278 117.071 65.3993C116.753 65.7142 116.527 66.1096 116.416 66.5433V70.8435C116.421 71.0143 116.388 71.1842 116.319 71.3407C116.25 71.4971 116.147 71.6362 116.018 71.7478C115.761 71.9885 115.42 72.1199 115.068 72.1141Z" fill="#42D3AD"/>
<path d="M131.41 66.0597C131.468 66.0575 131.526 66.0468 131.582 66.028C131.654 66.028 131.695 65.9331 131.695 65.802C131.676 65.6223 131.613 65.4502 131.511 65.301C131.409 65.1518 131.272 65.0303 131.111 64.9473C130.667 64.6686 130.148 64.5314 129.624 64.5539C129.062 64.5272 128.506 64.6758 128.032 64.979C127.869 65.0624 127.729 65.1842 127.623 65.3338C127.518 65.4835 127.45 65.6565 127.426 65.8381C127.426 65.9873 127.512 66.0597 127.679 66.0597H131.41ZM129.777 72.1143C128.456 72.1601 127.165 71.7084 126.16 70.8483C125.671 70.4096 125.287 69.8672 125.035 69.2609C124.783 68.6546 124.67 67.9996 124.704 67.3439C124.667 66.6701 124.775 65.9962 125.021 65.368C125.268 64.7398 125.647 64.1722 126.133 63.7038C126.975 63.0032 128.001 62.5595 129.088 62.4256C130.175 62.2918 131.278 62.4733 132.264 62.9487C132.893 63.283 133.416 63.7856 133.775 64.4002C134.103 64.9611 134.277 65.5995 134.277 66.2496C134.277 67.3409 133.796 67.885 132.834 67.882H127.639C127.476 67.882 127.394 67.986 127.394 68.194C127.402 68.4413 127.481 68.6812 127.622 68.8843C127.764 69.0874 127.961 69.2451 128.19 69.338C128.749 69.6253 129.371 69.7698 129.999 69.7585C130.424 69.7582 130.846 69.702 131.256 69.5912C131.651 69.4832 132.023 69.3055 132.355 69.0667C132.547 68.9273 132.778 68.8515 133.015 68.8496C133.164 68.8489 133.312 68.879 133.449 68.9382C133.586 68.9973 133.709 69.0842 133.811 69.1933C133.918 69.3017 134.003 69.4302 134.06 69.5714C134.118 69.7126 134.147 69.8638 134.145 70.0162C134.131 70.2277 134.07 70.4333 133.966 70.618C133.862 70.8026 133.718 70.9617 133.544 71.0834C133.054 71.4451 132.493 71.6992 131.898 71.8295C131.206 72.0152 130.494 72.111 129.777 72.1143Z" fill="#42D3AD"/>
<path d="M137.686 72.0207C137.318 72.0335 136.958 71.9113 136.673 71.677C136.544 71.5704 136.441 71.4362 136.372 71.2844C136.302 71.1325 136.268 70.9669 136.271 70.7998V63.7685C136.27 63.6058 136.305 63.445 136.372 63.2968C136.439 63.1486 136.537 63.0165 136.66 62.9093C136.941 62.6577 137.309 62.5262 137.686 62.5431C138.019 62.5336 138.342 62.6517 138.59 62.8732C138.822 63.0814 138.973 63.3649 139.015 63.6735C139.258 63.3058 139.579 62.9968 139.956 62.7692C140.328 62.5194 140.765 62.3856 141.213 62.3848C141.477 62.3843 141.739 62.4162 141.995 62.4798C142.283 62.5572 142.537 62.7272 142.719 62.9636C142.903 63.2034 143.001 63.4978 142.999 63.8001C143.006 63.9997 142.972 64.1988 142.899 64.3847C142.826 64.5706 142.715 64.7395 142.574 64.8808C142.452 65.0145 142.296 65.1132 142.122 65.1664C141.949 65.2197 141.765 65.2257 141.588 65.1838C141.322 65.1179 141.049 65.0845 140.774 65.0843C140.55 65.0781 140.326 65.1195 140.119 65.2061C139.912 65.2926 139.725 65.4222 139.572 65.5862C139.264 65.9208 139.074 66.6036 139.015 67.6301V70.7636C139.02 70.9344 138.987 71.1042 138.918 71.2606C138.849 71.417 138.747 71.5561 138.617 71.668C138.363 71.8994 138.03 72.0255 137.686 72.0207Z" fill="#42D3AD"/>
</svg>
